G04 #@! TF.GenerationSoftware,KiCad,Pcbnew,5.1.5+dfsg1-2build2*
G04 #@! TF.CreationDate,2021-08-03T14:14:28-04:00*
G04 #@! TF.ProjectId,pmod_1553,706d6f64-5f31-4353-9533-2e6b69636164,rev?*
G04 #@! TF.SameCoordinates,Original*
G04 #@! TF.FileFunction,Copper,L1,Top*
G04 #@! TF.FilePolarity,Positive*
%FSLAX46Y46*%
G04 Gerber Fmt 4.6, Leading zero omitted, Abs format (unit mm)*
G04 Created by KiCad (PCBNEW 5.1.5+dfsg1-2build2) date 2021-08-03 14:14:28*
%MOMM*%
%LPD*%
G04 APERTURE LIST*
%ADD10O,1.600000X2.400000*%
%ADD11R,1.600000X2.400000*%
%ADD12C,1.600000*%
%ADD13O,1.700000X1.700000*%
%ADD14R,1.700000X1.700000*%
%ADD15O,2.200000X1.740000*%
%ADD16C,0.100000*%
%ADD17O,1.600000X1.600000*%
%ADD18C,1.303000*%
%ADD19R,1.600000X1.600000*%
%ADD20C,1.950000*%
G04 APERTURE END LIST*
D10*
X120000000Y-85620000D03*
X104760000Y-78000000D03*
X117460000Y-85620000D03*
X107300000Y-78000000D03*
X114920000Y-85620000D03*
X109840000Y-78000000D03*
X112380000Y-85620000D03*
X112380000Y-78000000D03*
X109840000Y-85620000D03*
X114920000Y-78000000D03*
X107300000Y-85620000D03*
X117460000Y-78000000D03*
X104760000Y-85620000D03*
D11*
X120000000Y-78000000D03*
D12*
X116000000Y-89000000D03*
X121000000Y-89000000D03*
D13*
X167500000Y-90960000D03*
D14*
X167500000Y-93500000D03*
D15*
X162000000Y-93540000D03*
G04 #@! TA.AperFunction,ComponentPad*
D16*
G36*
X162874505Y-90131204D02*
G01*
X162898773Y-90134804D01*
X162922572Y-90140765D01*
X162945671Y-90149030D01*
X162967850Y-90159520D01*
X162988893Y-90172132D01*
X163008599Y-90186747D01*
X163026777Y-90203223D01*
X163043253Y-90221401D01*
X163057868Y-90241107D01*
X163070480Y-90262150D01*
X163080970Y-90284329D01*
X163089235Y-90307428D01*
X163095196Y-90331227D01*
X163098796Y-90355495D01*
X163100000Y-90379999D01*
X163100000Y-91620001D01*
X163098796Y-91644505D01*
X163095196Y-91668773D01*
X163089235Y-91692572D01*
X163080970Y-91715671D01*
X163070480Y-91737850D01*
X163057868Y-91758893D01*
X163043253Y-91778599D01*
X163026777Y-91796777D01*
X163008599Y-91813253D01*
X162988893Y-91827868D01*
X162967850Y-91840480D01*
X162945671Y-91850970D01*
X162922572Y-91859235D01*
X162898773Y-91865196D01*
X162874505Y-91868796D01*
X162850001Y-91870000D01*
X161149999Y-91870000D01*
X161125495Y-91868796D01*
X161101227Y-91865196D01*
X161077428Y-91859235D01*
X161054329Y-91850970D01*
X161032150Y-91840480D01*
X161011107Y-91827868D01*
X160991401Y-91813253D01*
X160973223Y-91796777D01*
X160956747Y-91778599D01*
X160942132Y-91758893D01*
X160929520Y-91737850D01*
X160919030Y-91715671D01*
X160910765Y-91692572D01*
X160904804Y-91668773D01*
X160901204Y-91644505D01*
X160900000Y-91620001D01*
X160900000Y-90379999D01*
X160901204Y-90355495D01*
X160904804Y-90331227D01*
X160910765Y-90307428D01*
X160919030Y-90284329D01*
X160929520Y-90262150D01*
X160942132Y-90241107D01*
X160956747Y-90221401D01*
X160973223Y-90203223D01*
X160991401Y-90186747D01*
X161011107Y-90172132D01*
X161032150Y-90159520D01*
X161054329Y-90149030D01*
X161077428Y-90140765D01*
X161101227Y-90134804D01*
X161125495Y-90131204D01*
X161149999Y-90130000D01*
X162850001Y-90130000D01*
X162874505Y-90131204D01*
G37*
G04 #@! TD.AperFunction*
D12*
X150500000Y-79000000D03*
X155500000Y-79000000D03*
X130000000Y-90000000D03*
X125000000Y-90000000D03*
X132800000Y-94000000D03*
X127800000Y-94000000D03*
X144000000Y-105000000D03*
X144000000Y-100000000D03*
X144000000Y-97500000D03*
X144000000Y-92500000D03*
D17*
X137000000Y-102000000D03*
D12*
X137000000Y-94380000D03*
D17*
X140500000Y-94380000D03*
D12*
X140500000Y-102000000D03*
D17*
X111500000Y-88500000D03*
D12*
X111500000Y-96120000D03*
D17*
X106500000Y-96120000D03*
D12*
X106500000Y-88500000D03*
D18*
X117120000Y-105000000D03*
X114580000Y-105000000D03*
X112040000Y-105000000D03*
X109500000Y-105000000D03*
D12*
X102500000Y-105000000D03*
D19*
X102500000Y-102500000D03*
D20*
X177500000Y-83000000D03*
X177500000Y-88000000D03*
X177500000Y-96500000D03*
X177500000Y-101500000D03*
D13*
X98460000Y-85800000D03*
X101000000Y-85800000D03*
X98460000Y-88340000D03*
X101000000Y-88340000D03*
X98460000Y-90880000D03*
X101000000Y-90880000D03*
X98460000Y-93420000D03*
X101000000Y-93420000D03*
X98460000Y-95960000D03*
X101000000Y-95960000D03*
X98460000Y-98500000D03*
D14*
X101000000Y-98500000D03*
D17*
X123680000Y-86500000D03*
X131300000Y-78880000D03*
X123680000Y-83960000D03*
X131300000Y-81420000D03*
X123680000Y-81420000D03*
X131300000Y-83960000D03*
X123680000Y-78880000D03*
D19*
X131300000Y-86500000D03*
D17*
X134120000Y-97500000D03*
X126500000Y-105120000D03*
X134120000Y-100040000D03*
X126500000Y-102580000D03*
X134120000Y-102580000D03*
X126500000Y-100040000D03*
X134120000Y-105120000D03*
D19*
X126500000Y-97500000D03*
D17*
X162500000Y-87500000D03*
D12*
X170120000Y-87500000D03*
D17*
X162500000Y-83000000D03*
D12*
X170120000Y-83000000D03*
D17*
X170120000Y-101500000D03*
D12*
X162500000Y-101500000D03*
D17*
X162500000Y-97000000D03*
D12*
X170120000Y-97000000D03*
D17*
X135380000Y-86500000D03*
D12*
X143000000Y-86500000D03*
D17*
X135380000Y-78500000D03*
D12*
X143000000Y-78500000D03*
D17*
X114880000Y-93500000D03*
D12*
X122500000Y-93500000D03*
D17*
X114880000Y-97000000D03*
D12*
X122500000Y-97000000D03*
M02*
