G04 #@! TF.GenerationSoftware,KiCad,Pcbnew,5.1.5+dfsg1-2build2*
G04 #@! TF.CreationDate,2021-12-08T17:39:40-05:00*
G04 #@! TF.ProjectId,pmod_1553,706d6f64-5f31-4353-9533-2e6b69636164,rev?*
G04 #@! TF.SameCoordinates,Original*
G04 #@! TF.FileFunction,Copper,L2,Bot*
G04 #@! TF.FilePolarity,Positive*
%FSLAX46Y46*%
G04 Gerber Fmt 4.6, Leading zero omitted, Abs format (unit mm)*
G04 Created by KiCad (PCBNEW 5.1.5+dfsg1-2build2) date 2021-12-08 17:39:40*
%MOMM*%
%LPD*%
G04 APERTURE LIST*
%ADD10O,1.600000X2.400000*%
%ADD11R,1.600000X2.400000*%
%ADD12C,1.600000*%
%ADD13O,1.700000X1.700000*%
%ADD14R,1.700000X1.700000*%
%ADD15O,2.200000X1.740000*%
%ADD16C,0.100000*%
%ADD17O,1.600000X1.600000*%
%ADD18C,1.303000*%
%ADD19R,1.600000X1.600000*%
%ADD20C,1.950000*%
%ADD21R,3.556000X1.270000*%
%ADD22C,1.625600*%
%ADD23C,0.762000*%
%ADD24C,0.254000*%
G04 APERTURE END LIST*
D10*
X168000000Y-94120000D03*
X150220000Y-86500000D03*
X165460000Y-94120000D03*
X152760000Y-86500000D03*
X162920000Y-94120000D03*
X155300000Y-86500000D03*
X160380000Y-94120000D03*
X157840000Y-86500000D03*
X157840000Y-94120000D03*
X160380000Y-86500000D03*
X155300000Y-94120000D03*
X162920000Y-86500000D03*
X152760000Y-94120000D03*
X165460000Y-86500000D03*
X150220000Y-94120000D03*
D11*
X168000000Y-86500000D03*
D12*
X160500000Y-102000000D03*
X160500000Y-97000000D03*
D10*
X120000000Y-85620000D03*
X104760000Y-78000000D03*
X117460000Y-85620000D03*
X107300000Y-78000000D03*
X114920000Y-85620000D03*
X109840000Y-78000000D03*
X112380000Y-85620000D03*
X112380000Y-78000000D03*
X109840000Y-85620000D03*
X114920000Y-78000000D03*
X107300000Y-85620000D03*
X117460000Y-78000000D03*
X104760000Y-85620000D03*
D11*
X120000000Y-78000000D03*
D12*
X116000000Y-89000000D03*
X121000000Y-89000000D03*
D13*
X204000000Y-78460000D03*
D14*
X204000000Y-81000000D03*
D15*
X204500000Y-103540000D03*
G04 #@! TA.AperFunction,ComponentPad*
D16*
G36*
X205374505Y-100131204D02*
G01*
X205398773Y-100134804D01*
X205422572Y-100140765D01*
X205445671Y-100149030D01*
X205467850Y-100159520D01*
X205488893Y-100172132D01*
X205508599Y-100186747D01*
X205526777Y-100203223D01*
X205543253Y-100221401D01*
X205557868Y-100241107D01*
X205570480Y-100262150D01*
X205580970Y-100284329D01*
X205589235Y-100307428D01*
X205595196Y-100331227D01*
X205598796Y-100355495D01*
X205600000Y-100379999D01*
X205600000Y-101620001D01*
X205598796Y-101644505D01*
X205595196Y-101668773D01*
X205589235Y-101692572D01*
X205580970Y-101715671D01*
X205570480Y-101737850D01*
X205557868Y-101758893D01*
X205543253Y-101778599D01*
X205526777Y-101796777D01*
X205508599Y-101813253D01*
X205488893Y-101827868D01*
X205467850Y-101840480D01*
X205445671Y-101850970D01*
X205422572Y-101859235D01*
X205398773Y-101865196D01*
X205374505Y-101868796D01*
X205350001Y-101870000D01*
X203649999Y-101870000D01*
X203625495Y-101868796D01*
X203601227Y-101865196D01*
X203577428Y-101859235D01*
X203554329Y-101850970D01*
X203532150Y-101840480D01*
X203511107Y-101827868D01*
X203491401Y-101813253D01*
X203473223Y-101796777D01*
X203456747Y-101778599D01*
X203442132Y-101758893D01*
X203429520Y-101737850D01*
X203419030Y-101715671D01*
X203410765Y-101692572D01*
X203404804Y-101668773D01*
X203401204Y-101644505D01*
X203400000Y-101620001D01*
X203400000Y-100379999D01*
X203401204Y-100355495D01*
X203404804Y-100331227D01*
X203410765Y-100307428D01*
X203419030Y-100284329D01*
X203429520Y-100262150D01*
X203442132Y-100241107D01*
X203456747Y-100221401D01*
X203473223Y-100203223D01*
X203491401Y-100186747D01*
X203511107Y-100172132D01*
X203532150Y-100159520D01*
X203554329Y-100149030D01*
X203577428Y-100140765D01*
X203601227Y-100134804D01*
X203625495Y-100131204D01*
X203649999Y-100130000D01*
X205350001Y-100130000D01*
X205374505Y-100131204D01*
G37*
G04 #@! TD.AperFunction*
D12*
X178000000Y-78000000D03*
X183000000Y-78000000D03*
X130000000Y-90000000D03*
X125000000Y-90000000D03*
X132800000Y-94000000D03*
X127800000Y-94000000D03*
X144000000Y-105000000D03*
X144000000Y-100000000D03*
X144000000Y-97500000D03*
X144000000Y-92500000D03*
D17*
X137000000Y-102000000D03*
D12*
X137000000Y-94380000D03*
D17*
X140500000Y-94380000D03*
D12*
X140500000Y-102000000D03*
D17*
X111500000Y-88500000D03*
D12*
X111500000Y-96120000D03*
D17*
X106500000Y-96120000D03*
D12*
X106500000Y-88500000D03*
D18*
X117120000Y-105000000D03*
X114580000Y-105000000D03*
X112040000Y-105000000D03*
X109500000Y-105000000D03*
D12*
X102500000Y-105000000D03*
D19*
X102500000Y-102500000D03*
D20*
X204500000Y-88000000D03*
X204500000Y-93000000D03*
D21*
X174785000Y-93040000D03*
X174785000Y-90500000D03*
X174785000Y-87960000D03*
X185580000Y-93040000D03*
X185580000Y-90500000D03*
X185580000Y-87960000D03*
D13*
X98460000Y-85800000D03*
X101000000Y-85800000D03*
X98460000Y-88340000D03*
X101000000Y-88340000D03*
X98460000Y-90880000D03*
X101000000Y-90880000D03*
X98460000Y-93420000D03*
X101000000Y-93420000D03*
X98460000Y-95960000D03*
X101000000Y-95960000D03*
X98460000Y-98500000D03*
D14*
X101000000Y-98500000D03*
D17*
X123680000Y-86500000D03*
X131300000Y-78880000D03*
X123680000Y-83960000D03*
X131300000Y-81420000D03*
X123680000Y-81420000D03*
X131300000Y-83960000D03*
X123680000Y-78880000D03*
D19*
X131300000Y-86500000D03*
D17*
X134120000Y-97500000D03*
X126500000Y-105120000D03*
X134120000Y-100040000D03*
X126500000Y-102580000D03*
X134120000Y-102580000D03*
X126500000Y-100040000D03*
X134120000Y-105120000D03*
D19*
X126500000Y-97500000D03*
D17*
X189500000Y-92500000D03*
D12*
X197120000Y-92500000D03*
D17*
X189500000Y-88000000D03*
D12*
X197120000Y-88000000D03*
D17*
X135380000Y-86500000D03*
D12*
X143000000Y-86500000D03*
D17*
X135380000Y-78500000D03*
D12*
X143000000Y-78500000D03*
D17*
X114880000Y-93500000D03*
D12*
X122500000Y-93500000D03*
D17*
X114880000Y-97000000D03*
D12*
X122500000Y-97000000D03*
D22*
X168000000Y-83500000D03*
X150000000Y-83500000D03*
X137500000Y-89000000D03*
X145500000Y-89000000D03*
X147500000Y-97000000D03*
X158000000Y-97000000D03*
X164500000Y-91500000D03*
X171000000Y-91500000D03*
X159000540Y-89000978D03*
X171000000Y-89000000D03*
D23*
X101000000Y-98500000D02*
X98460000Y-98500000D01*
X106500000Y-96120000D02*
X111500000Y-96120000D01*
X120000000Y-86368630D02*
X120000000Y-85620000D01*
X120000000Y-85620000D02*
X117460000Y-85620000D01*
X117460000Y-87540000D02*
X117460000Y-85620000D01*
X116000000Y-89000000D02*
X117460000Y-87540000D01*
X112040000Y-104078640D02*
X112040000Y-105000000D01*
X116848401Y-99270239D02*
X112040000Y-104078640D01*
X116848401Y-89848401D02*
X116848401Y-99270239D01*
X116000000Y-89000000D02*
X116848401Y-89848401D01*
X101000000Y-101000000D02*
X102500000Y-102500000D01*
X101000000Y-98500000D02*
X101000000Y-101000000D01*
X114237005Y-99270239D02*
X116848401Y-99270239D01*
X111500000Y-96533234D02*
X114237005Y-99270239D01*
X111500000Y-96120000D02*
X111500000Y-96533234D01*
X104120000Y-98500000D02*
X106500000Y-96120000D01*
X101000000Y-98500000D02*
X104120000Y-98500000D01*
X140500000Y-100868630D02*
X140500000Y-102000000D01*
X140500000Y-99868630D02*
X140500000Y-100868630D01*
X142868630Y-97500000D02*
X140500000Y-99868630D01*
X144000000Y-97500000D02*
X142868630Y-97500000D01*
X135251370Y-100040000D02*
X134120000Y-100040000D01*
X135259771Y-100031599D02*
X135251370Y-100040000D01*
X140500000Y-102000000D02*
X139071196Y-102000000D01*
X137944833Y-100031599D02*
X135259771Y-100031599D01*
X138968401Y-101055167D02*
X137944833Y-100031599D01*
X138968401Y-101897205D02*
X138968401Y-101055167D01*
X139071196Y-102000000D02*
X138968401Y-101897205D01*
X152760000Y-96082000D02*
X152760000Y-94120000D01*
X146612571Y-98981201D02*
X149860799Y-98981201D01*
X145131370Y-97500000D02*
X146612571Y-98981201D01*
X149860799Y-98981201D02*
X152760000Y-96082000D01*
X144000000Y-97500000D02*
X145131370Y-97500000D01*
X134120000Y-102580000D02*
X134460000Y-102580000D01*
X134540000Y-103000000D02*
X134120000Y-102580000D01*
X143000000Y-100000000D02*
X144000000Y-100000000D01*
X142468401Y-100531599D02*
X143000000Y-100000000D01*
X142468401Y-102944833D02*
X142468401Y-100531599D01*
X141444833Y-103968401D02*
X142468401Y-102944833D01*
X138848401Y-103968401D02*
X141444833Y-103968401D01*
X137000000Y-102120000D02*
X138848401Y-103968401D01*
X134580000Y-102120000D02*
X137000000Y-102120000D01*
X134120000Y-102580000D02*
X134580000Y-102120000D01*
X165460000Y-96082000D02*
X165460000Y-94120000D01*
X162573599Y-98968401D02*
X165460000Y-96082000D01*
X160618365Y-98968401D02*
X162573599Y-98968401D01*
X158786767Y-100799999D02*
X160618365Y-98968401D01*
X144799999Y-100799999D02*
X158786767Y-100799999D01*
X144000000Y-100000000D02*
X144799999Y-100799999D01*
X102202081Y-90880000D02*
X101000000Y-90880000D01*
X103924270Y-92602189D02*
X102202081Y-90880000D01*
X113982189Y-92602189D02*
X103924270Y-92602189D01*
X114880000Y-93500000D02*
X113982189Y-92602189D01*
X186120000Y-92500000D02*
X185580000Y-93040000D01*
X189500000Y-92500000D02*
X186120000Y-92500000D01*
X188880000Y-87960000D02*
X188920000Y-88000000D01*
X189460000Y-87960000D02*
X189500000Y-88000000D01*
X185580000Y-87960000D02*
X189460000Y-87960000D01*
X102202081Y-93420000D02*
X101000000Y-93420000D01*
X102933680Y-94151599D02*
X102202081Y-93420000D01*
X112444833Y-94151599D02*
X102933680Y-94151599D01*
X114080001Y-96200001D02*
X114080001Y-95786767D01*
X114080001Y-95786767D02*
X112444833Y-94151599D01*
X114880000Y-97000000D02*
X114080001Y-96200001D01*
X98460000Y-84597919D02*
X98460000Y-85800000D01*
X102107329Y-80950590D02*
X98460000Y-84597919D01*
X107533162Y-80950590D02*
X102107329Y-80950590D01*
X109268410Y-78231590D02*
X109268410Y-79215342D01*
X109500000Y-78000000D02*
X109268410Y-78231590D01*
X109268410Y-79215342D02*
X107533162Y-80950590D01*
X109840000Y-78000000D02*
X109500000Y-78000000D01*
X125368630Y-105120000D02*
X126500000Y-105120000D01*
X122500000Y-102251370D02*
X125368630Y-105120000D01*
X122500000Y-97000000D02*
X122500000Y-102251370D01*
X126500000Y-97500000D02*
X122500000Y-93500000D01*
X165460000Y-86500000D02*
X165460000Y-81960000D01*
X162000000Y-78500000D02*
X143000000Y-78500000D01*
X165460000Y-81960000D02*
X162000000Y-78500000D01*
X168000000Y-86500000D02*
X168000000Y-94120000D01*
X107706410Y-75631590D02*
X107300000Y-76038000D01*
X150220000Y-86500000D02*
X150220000Y-94120000D01*
X168000000Y-86500000D02*
X168000000Y-83500000D01*
X150000000Y-86280000D02*
X150220000Y-86500000D01*
X150000000Y-83500000D02*
X150000000Y-86280000D01*
X107300000Y-76038000D02*
X107300000Y-78000000D01*
X107838000Y-75500000D02*
X107300000Y-76038000D01*
X137500000Y-77706766D02*
X137500000Y-89000000D01*
X135293234Y-75500000D02*
X137500000Y-77706766D01*
X107838000Y-75500000D02*
X135293234Y-75500000D01*
X147720000Y-89000000D02*
X150220000Y-86500000D01*
X145500000Y-89000000D02*
X147720000Y-89000000D01*
X197120000Y-88000000D02*
X204500000Y-88000000D01*
X202797919Y-78460000D02*
X204000000Y-78460000D01*
X202736878Y-78460000D02*
X202797919Y-78460000D01*
X201981599Y-79215279D02*
X202736878Y-78460000D01*
X201981599Y-85481599D02*
X201981599Y-79215279D01*
X204500000Y-88000000D02*
X201981599Y-85481599D01*
X197620000Y-93000000D02*
X197120000Y-92500000D01*
X204500000Y-93000000D02*
X197620000Y-93000000D01*
X205612000Y-81000000D02*
X204000000Y-81000000D01*
X206643401Y-82031401D02*
X205612000Y-81000000D01*
X206643401Y-90856599D02*
X206643401Y-82031401D01*
X204500000Y-93000000D02*
X206643401Y-90856599D01*
X135000000Y-78880000D02*
X135380000Y-78500000D01*
X131300000Y-78880000D02*
X135000000Y-78880000D01*
X135380000Y-81011370D02*
X132431370Y-83960000D01*
X132431370Y-83960000D02*
X131300000Y-83960000D01*
X135380000Y-78500000D02*
X135380000Y-81011370D01*
X135380000Y-86500000D02*
X131300000Y-86500000D01*
X129331599Y-82257031D02*
X130168630Y-81420000D01*
X129331599Y-86093599D02*
X129331599Y-82257031D01*
X129738000Y-86500000D02*
X129331599Y-86093599D01*
X130168630Y-81420000D02*
X131300000Y-81420000D01*
X131300000Y-86500000D02*
X129738000Y-86500000D01*
X101180000Y-85620000D02*
X101000000Y-85800000D01*
X104760000Y-85620000D02*
X101180000Y-85620000D01*
X109268410Y-86191590D02*
X109840000Y-85620000D01*
X109268410Y-88644824D02*
X109268410Y-86191590D01*
X107444833Y-90468401D02*
X109268410Y-88644824D01*
X105555167Y-90468401D02*
X107444833Y-90468401D01*
X103426766Y-88340000D02*
X105555167Y-90468401D01*
X101000000Y-88340000D02*
X103426766Y-88340000D01*
X137120000Y-94380000D02*
X137000000Y-94500000D01*
X140500000Y-94380000D02*
X137120000Y-94380000D01*
X137000000Y-94620000D02*
X134120000Y-97500000D01*
X137000000Y-94500000D02*
X137000000Y-94620000D01*
X133000000Y-96380000D02*
X134120000Y-97500000D01*
X133000000Y-94000000D02*
X133000000Y-96380000D01*
X123680000Y-88680000D02*
X125000000Y-90000000D01*
X123680000Y-86500000D02*
X123680000Y-88680000D01*
X125799999Y-90799999D02*
X125000000Y-90000000D01*
X127031599Y-92031599D02*
X125799999Y-90799999D01*
X130831599Y-92031599D02*
X127031599Y-92031599D01*
X132800000Y-94000000D02*
X130831599Y-92031599D01*
X117120000Y-105000000D02*
X120000000Y-102120000D01*
X123868630Y-90000000D02*
X125000000Y-90000000D01*
X123086766Y-90000000D02*
X123868630Y-90000000D01*
X120000000Y-93086766D02*
X123086766Y-90000000D01*
X120000000Y-102120000D02*
X120000000Y-93086766D01*
X157840000Y-94120000D02*
X160380000Y-94120000D01*
X141299999Y-95179999D02*
X144233235Y-95179999D01*
X140500000Y-94380000D02*
X141299999Y-95179999D01*
X158000000Y-93960000D02*
X157840000Y-94120000D01*
X160500000Y-94240000D02*
X160380000Y-94120000D01*
X160500000Y-97000000D02*
X160500000Y-94240000D01*
X145679999Y-95179999D02*
X147500000Y-97000000D01*
X144233235Y-95179999D02*
X145679999Y-95179999D01*
X158000000Y-97000000D02*
X160500000Y-97000000D01*
X152760000Y-83327822D02*
X152760000Y-84538000D01*
X150950977Y-81518799D02*
X152760000Y-83327822D01*
X147981201Y-81518799D02*
X150950977Y-81518799D01*
X152760000Y-84538000D02*
X152760000Y-86500000D01*
X143000000Y-86500000D02*
X147981201Y-81518799D01*
X162920000Y-94120000D02*
X162920000Y-91420000D01*
X162920000Y-91420000D02*
X162920000Y-86500000D01*
X164420000Y-91420000D02*
X164500000Y-91500000D01*
X162920000Y-91420000D02*
X164420000Y-91420000D01*
X172540000Y-93040000D02*
X174785000Y-93040000D01*
X171000000Y-91500000D02*
X172540000Y-93040000D01*
X155300000Y-94120000D02*
X155300000Y-89200000D01*
X155300000Y-89200000D02*
X155300000Y-86500000D01*
X158801518Y-89200000D02*
X159000540Y-89000978D01*
X155300000Y-89200000D02*
X158801518Y-89200000D01*
X172040000Y-87960000D02*
X174785000Y-87960000D01*
X171000000Y-89000000D02*
X172040000Y-87960000D01*
X107300000Y-87700000D02*
X106500000Y-88500000D01*
X107300000Y-85620000D02*
X107300000Y-87700000D01*
X123100000Y-82000000D02*
X123680000Y-81420000D01*
X121754948Y-82000000D02*
X123100000Y-82000000D01*
X121457128Y-81702180D02*
X121754948Y-82000000D01*
X109255820Y-81702180D02*
X121457128Y-81702180D01*
X107300000Y-83658000D02*
X109255820Y-81702180D01*
X107300000Y-85620000D02*
X107300000Y-83658000D01*
X112380000Y-87620000D02*
X111500000Y-88500000D01*
X112380000Y-85620000D02*
X112380000Y-87620000D01*
X112380000Y-83658000D02*
X112380000Y-85620000D01*
X112786410Y-83251590D02*
X112380000Y-83658000D01*
X120815342Y-83251590D02*
X112786410Y-83251590D01*
X121523752Y-83960000D02*
X120815342Y-83251590D01*
X123680000Y-83960000D02*
X121523752Y-83960000D01*
D24*
G36*
X106420479Y-75067589D02*
G01*
X106370558Y-75108558D01*
X106207092Y-75307743D01*
X106085626Y-75534991D01*
X106056323Y-75631590D01*
X106010827Y-75781568D01*
X105985571Y-76038000D01*
X105991900Y-76102261D01*
X105991900Y-76471482D01*
X105857021Y-76635832D01*
X105696648Y-76935870D01*
X105597890Y-77261429D01*
X105572900Y-77515159D01*
X105572900Y-78484840D01*
X105597890Y-78738570D01*
X105696648Y-79064129D01*
X105857021Y-79364167D01*
X106072847Y-79627153D01*
X106091535Y-79642490D01*
X102171586Y-79642490D01*
X102107328Y-79636161D01*
X102043070Y-79642490D01*
X102043069Y-79642490D01*
X101850897Y-79661417D01*
X101604319Y-79736216D01*
X101377071Y-79857682D01*
X101177887Y-80021148D01*
X101136918Y-80071069D01*
X97580479Y-83627508D01*
X97530558Y-83668477D01*
X97367092Y-83867662D01*
X97245626Y-84094910D01*
X97234950Y-84130105D01*
X97170827Y-84341487D01*
X97145571Y-84597919D01*
X97145868Y-84600933D01*
X97079636Y-84667165D01*
X96885154Y-84958227D01*
X96751193Y-85281639D01*
X96682900Y-85624971D01*
X96682900Y-85975029D01*
X96751193Y-86318361D01*
X96885154Y-86641773D01*
X97079636Y-86932835D01*
X97216801Y-87070000D01*
X97079636Y-87207165D01*
X96885154Y-87498227D01*
X96751193Y-87821639D01*
X96682900Y-88164971D01*
X96682900Y-88515029D01*
X96751193Y-88858361D01*
X96885154Y-89181773D01*
X97079636Y-89472835D01*
X97216801Y-89610000D01*
X97079636Y-89747165D01*
X96885154Y-90038227D01*
X96751193Y-90361639D01*
X96682900Y-90704971D01*
X96682900Y-91055029D01*
X96751193Y-91398361D01*
X96885154Y-91721773D01*
X97079636Y-92012835D01*
X97216801Y-92150000D01*
X97079636Y-92287165D01*
X96885154Y-92578227D01*
X96751193Y-92901639D01*
X96682900Y-93244971D01*
X96682900Y-93595029D01*
X96751193Y-93938361D01*
X96885154Y-94261773D01*
X97079636Y-94552835D01*
X97327165Y-94800364D01*
X97618227Y-94994846D01*
X97941639Y-95128807D01*
X98284971Y-95197100D01*
X98635029Y-95197100D01*
X98978361Y-95128807D01*
X99301773Y-94994846D01*
X99592835Y-94800364D01*
X99730000Y-94663199D01*
X99867165Y-94800364D01*
X100158227Y-94994846D01*
X100481639Y-95128807D01*
X100824971Y-95197100D01*
X101175029Y-95197100D01*
X101518361Y-95128807D01*
X101841773Y-94994846D01*
X101892860Y-94960710D01*
X101963264Y-95031115D01*
X102004238Y-95081041D01*
X102203422Y-95244507D01*
X102430670Y-95365973D01*
X102677248Y-95440772D01*
X102869420Y-95459699D01*
X102869421Y-95459699D01*
X102933679Y-95466028D01*
X102997937Y-95459699D01*
X104904106Y-95459699D01*
X104839271Y-95616223D01*
X104772900Y-95949895D01*
X104772900Y-95997168D01*
X103578168Y-97191900D01*
X102656367Y-97191900D01*
X102624585Y-97132439D01*
X102508730Y-96991270D01*
X102367561Y-96875415D01*
X102206502Y-96789328D01*
X102031743Y-96736315D01*
X101850000Y-96718415D01*
X100150000Y-96718415D01*
X99968257Y-96736315D01*
X99793498Y-96789328D01*
X99632439Y-96875415D01*
X99491270Y-96991270D01*
X99459202Y-97030345D01*
X99301773Y-96925154D01*
X98978361Y-96791193D01*
X98635029Y-96722900D01*
X98284971Y-96722900D01*
X97941639Y-96791193D01*
X97618227Y-96925154D01*
X97327165Y-97119636D01*
X97079636Y-97367165D01*
X96885154Y-97658227D01*
X96751193Y-97981639D01*
X96682900Y-98324971D01*
X96682900Y-98675029D01*
X96751193Y-99018361D01*
X96885154Y-99341773D01*
X97079636Y-99632835D01*
X97327165Y-99880364D01*
X97618227Y-100074846D01*
X97941639Y-100208807D01*
X98284971Y-100277100D01*
X98635029Y-100277100D01*
X98978361Y-100208807D01*
X99301773Y-100074846D01*
X99459202Y-99969655D01*
X99491270Y-100008730D01*
X99632439Y-100124585D01*
X99691901Y-100156368D01*
X99691901Y-100935730D01*
X99685571Y-101000000D01*
X99710827Y-101256432D01*
X99752618Y-101394195D01*
X99785627Y-101503010D01*
X99907093Y-101730258D01*
X100070559Y-101929442D01*
X100120475Y-101970407D01*
X100768415Y-102618347D01*
X100768415Y-103300000D01*
X100786315Y-103481743D01*
X100839328Y-103656502D01*
X100925415Y-103817561D01*
X101041270Y-103958730D01*
X101182439Y-104074585D01*
X101343498Y-104160672D01*
X101518257Y-104213685D01*
X101700000Y-104231585D01*
X103300000Y-104231585D01*
X103481743Y-104213685D01*
X103656502Y-104160672D01*
X103817561Y-104074585D01*
X103958730Y-103958730D01*
X104074585Y-103817561D01*
X104160672Y-103656502D01*
X104213685Y-103481743D01*
X104231585Y-103300000D01*
X104231585Y-101700000D01*
X104213685Y-101518257D01*
X104160672Y-101343498D01*
X104074585Y-101182439D01*
X103958730Y-101041270D01*
X103817561Y-100925415D01*
X103656502Y-100839328D01*
X103481743Y-100786315D01*
X103300000Y-100768415D01*
X102618347Y-100768415D01*
X102308100Y-100458168D01*
X102308100Y-100156367D01*
X102367561Y-100124585D01*
X102508730Y-100008730D01*
X102624585Y-99867561D01*
X102656367Y-99808100D01*
X104055740Y-99808100D01*
X104120000Y-99814429D01*
X104184260Y-99808100D01*
X104252887Y-99801341D01*
X104376432Y-99789173D01*
X104623010Y-99714374D01*
X104850258Y-99592908D01*
X105049442Y-99429442D01*
X105090411Y-99379521D01*
X106622832Y-97847100D01*
X106670105Y-97847100D01*
X107003777Y-97780729D01*
X107318089Y-97650536D01*
X107600962Y-97461526D01*
X107634388Y-97428100D01*
X110365612Y-97428100D01*
X110399038Y-97461526D01*
X110681911Y-97650536D01*
X110827799Y-97710965D01*
X113266598Y-100149765D01*
X113307563Y-100199681D01*
X113426132Y-100296988D01*
X113506747Y-100363147D01*
X113733994Y-100484613D01*
X113772434Y-100496274D01*
X111160479Y-103108229D01*
X111110558Y-103149198D01*
X110947092Y-103348383D01*
X110825626Y-103575631D01*
X110784268Y-103711969D01*
X110750827Y-103822208D01*
X110725571Y-104078640D01*
X110729617Y-104119722D01*
X110641063Y-104252253D01*
X110522065Y-104539539D01*
X110461400Y-104844521D01*
X110461400Y-105155479D01*
X110522065Y-105460461D01*
X110641063Y-105747747D01*
X110813821Y-106006299D01*
X111033701Y-106226179D01*
X111292253Y-106398937D01*
X111579539Y-106517935D01*
X111884521Y-106578600D01*
X112195479Y-106578600D01*
X112500461Y-106517935D01*
X112787747Y-106398937D01*
X113046299Y-106226179D01*
X113266179Y-106006299D01*
X113438937Y-105747747D01*
X113557935Y-105460461D01*
X113618600Y-105155479D01*
X113618600Y-104844521D01*
X113557935Y-104539539D01*
X113520180Y-104448392D01*
X117727929Y-100240644D01*
X117777843Y-100199681D01*
X117941309Y-100000497D01*
X118062775Y-99773249D01*
X118119690Y-99585625D01*
X118137574Y-99526672D01*
X118162830Y-99270239D01*
X118156501Y-99205979D01*
X118156501Y-89912658D01*
X118162830Y-89848400D01*
X118156501Y-89784141D01*
X118137574Y-89591969D01*
X118062775Y-89345391D01*
X117941309Y-89118143D01*
X117846867Y-89003065D01*
X118339527Y-88510406D01*
X118389442Y-88469442D01*
X118552908Y-88270258D01*
X118611483Y-88160672D01*
X118674374Y-88043011D01*
X118749173Y-87796433D01*
X118774429Y-87540000D01*
X118768100Y-87475740D01*
X118768100Y-87241369D01*
X118772847Y-87247153D01*
X119035832Y-87462979D01*
X119335870Y-87623352D01*
X119661429Y-87722110D01*
X120000000Y-87755456D01*
X120338570Y-87722110D01*
X120664129Y-87623352D01*
X120964167Y-87462979D01*
X121227153Y-87247153D01*
X121442979Y-86984168D01*
X121603352Y-86684130D01*
X121702110Y-86358571D01*
X121727100Y-86104841D01*
X121727100Y-85268100D01*
X122469412Y-85268100D01*
X122338474Y-85399038D01*
X122149464Y-85681911D01*
X122019271Y-85996223D01*
X121952900Y-86329895D01*
X121952900Y-86670105D01*
X122019271Y-87003777D01*
X122149464Y-87318089D01*
X122338474Y-87600962D01*
X122371901Y-87634389D01*
X122371901Y-88615730D01*
X122365571Y-88680000D01*
X122386365Y-88891133D01*
X122356508Y-88907092D01*
X122157324Y-89070558D01*
X122116355Y-89120479D01*
X119120475Y-92116359D01*
X119070559Y-92157324D01*
X119029595Y-92207239D01*
X118907093Y-92356508D01*
X118785627Y-92583756D01*
X118710827Y-92830334D01*
X118685571Y-93086766D01*
X118691901Y-93151036D01*
X118691900Y-101578167D01*
X116819901Y-103450167D01*
X116659539Y-103482065D01*
X116372253Y-103601063D01*
X116113701Y-103773821D01*
X115893821Y-103993701D01*
X115721063Y-104252253D01*
X115602065Y-104539539D01*
X115541400Y-104844521D01*
X115541400Y-105155479D01*
X115602065Y-105460461D01*
X115721063Y-105747747D01*
X115893821Y-106006299D01*
X116113701Y-106226179D01*
X116372253Y-106398937D01*
X116659539Y-106517935D01*
X116964521Y-106578600D01*
X117275479Y-106578600D01*
X117580461Y-106517935D01*
X117867747Y-106398937D01*
X118126299Y-106226179D01*
X118346179Y-106006299D01*
X118518937Y-105747747D01*
X118637935Y-105460461D01*
X118669833Y-105300099D01*
X120879527Y-103090406D01*
X120929442Y-103049442D01*
X121092908Y-102850258D01*
X121214374Y-102623010D01*
X121230075Y-102571252D01*
X121265612Y-102688401D01*
X121285627Y-102754380D01*
X121407093Y-102981628D01*
X121570559Y-103180812D01*
X121620475Y-103221777D01*
X124398223Y-105999526D01*
X124439188Y-106049442D01*
X124638372Y-106212908D01*
X124865620Y-106334374D01*
X125112198Y-106409173D01*
X125304370Y-106428100D01*
X125304371Y-106428100D01*
X125368629Y-106434429D01*
X125371644Y-106434132D01*
X125399038Y-106461526D01*
X125681911Y-106650536D01*
X125996223Y-106780729D01*
X126329895Y-106847100D01*
X126670105Y-106847100D01*
X127003777Y-106780729D01*
X127318089Y-106650536D01*
X127600962Y-106461526D01*
X127841526Y-106220962D01*
X128030536Y-105938089D01*
X128160729Y-105623777D01*
X128227100Y-105290105D01*
X128227100Y-104949895D01*
X128160729Y-104616223D01*
X128030536Y-104301911D01*
X127841526Y-104019038D01*
X127600962Y-103778474D01*
X127318089Y-103589464D01*
X127003777Y-103459271D01*
X126670105Y-103392900D01*
X126329895Y-103392900D01*
X125996223Y-103459271D01*
X125686236Y-103587673D01*
X123808100Y-101709538D01*
X123808100Y-98134388D01*
X123841526Y-98100962D01*
X124030536Y-97818089D01*
X124160729Y-97503777D01*
X124227100Y-97170105D01*
X124227100Y-97077032D01*
X124768415Y-97618347D01*
X124768415Y-98300000D01*
X124786315Y-98481743D01*
X124839328Y-98656502D01*
X124925415Y-98817561D01*
X125041270Y-98958730D01*
X125182439Y-99074585D01*
X125343498Y-99160672D01*
X125518257Y-99213685D01*
X125700000Y-99231585D01*
X127300000Y-99231585D01*
X127481743Y-99213685D01*
X127656502Y-99160672D01*
X127817561Y-99074585D01*
X127958730Y-98958730D01*
X128074585Y-98817561D01*
X128160672Y-98656502D01*
X128213685Y-98481743D01*
X128231585Y-98300000D01*
X128231585Y-96700000D01*
X128213685Y-96518257D01*
X128160672Y-96343498D01*
X128074585Y-96182439D01*
X127958730Y-96041270D01*
X127817561Y-95925415D01*
X127656502Y-95839328D01*
X127481743Y-95786315D01*
X127300000Y-95768415D01*
X126618347Y-95768415D01*
X124227100Y-93377168D01*
X124227100Y-93329895D01*
X124160729Y-92996223D01*
X124030536Y-92681911D01*
X123841526Y-92399038D01*
X123600962Y-92158474D01*
X123318089Y-91969464D01*
X123069997Y-91866701D01*
X123628598Y-91308100D01*
X123865612Y-91308100D01*
X123899038Y-91341526D01*
X124181911Y-91530536D01*
X124496223Y-91660729D01*
X124829895Y-91727100D01*
X124877168Y-91727100D01*
X126061188Y-92911120D01*
X126102157Y-92961041D01*
X126301341Y-93124507D01*
X126528589Y-93245973D01*
X126775167Y-93320772D01*
X126967339Y-93339699D01*
X126967340Y-93339699D01*
X127031598Y-93346028D01*
X127095856Y-93339699D01*
X130289767Y-93339699D01*
X131072900Y-94122832D01*
X131072900Y-94170105D01*
X131139271Y-94503777D01*
X131269464Y-94818089D01*
X131458474Y-95100962D01*
X131691901Y-95334389D01*
X131691901Y-96315730D01*
X131685571Y-96380000D01*
X131710827Y-96636432D01*
X131775692Y-96850258D01*
X131785627Y-96883010D01*
X131907093Y-97110258D01*
X132070559Y-97309442D01*
X132120475Y-97350407D01*
X132392900Y-97622832D01*
X132392900Y-97670105D01*
X132459271Y-98003777D01*
X132589464Y-98318089D01*
X132778474Y-98600962D01*
X132947512Y-98770000D01*
X132778474Y-98939038D01*
X132589464Y-99221911D01*
X132459271Y-99536223D01*
X132392900Y-99869895D01*
X132392900Y-100210105D01*
X132459271Y-100543777D01*
X132589464Y-100858089D01*
X132778474Y-101140962D01*
X132947512Y-101310000D01*
X132778474Y-101479038D01*
X132589464Y-101761911D01*
X132459271Y-102076223D01*
X132392900Y-102409895D01*
X132392900Y-102750105D01*
X132459271Y-103083777D01*
X132589464Y-103398089D01*
X132778474Y-103680962D01*
X133019038Y-103921526D01*
X133301911Y-104110536D01*
X133616223Y-104240729D01*
X133949895Y-104307100D01*
X134290105Y-104307100D01*
X134348219Y-104295541D01*
X134540000Y-104314429D01*
X134796432Y-104289173D01*
X135043010Y-104214374D01*
X135270258Y-104092907D01*
X135469441Y-103929441D01*
X135632907Y-103730258D01*
X135754374Y-103503010D01*
X135777098Y-103428100D01*
X136028605Y-103428100D01*
X136181911Y-103530536D01*
X136496223Y-103660729D01*
X136739109Y-103709042D01*
X137877994Y-104847927D01*
X137918959Y-104897843D01*
X138118143Y-105061309D01*
X138227945Y-105119999D01*
X138345390Y-105182775D01*
X138591968Y-105257574D01*
X138848401Y-105282830D01*
X138912661Y-105276501D01*
X141380573Y-105276501D01*
X141444833Y-105282830D01*
X141509093Y-105276501D01*
X141701265Y-105257574D01*
X141947843Y-105182775D01*
X142175091Y-105061309D01*
X142374275Y-104897843D01*
X142415244Y-104847922D01*
X143347928Y-103915239D01*
X143397843Y-103874275D01*
X143561309Y-103675091D01*
X143673207Y-103465744D01*
X143682775Y-103447844D01*
X143757574Y-103201266D01*
X143782830Y-102944833D01*
X143776501Y-102880573D01*
X143776501Y-101716479D01*
X143829895Y-101727100D01*
X143868636Y-101727100D01*
X143870557Y-101729441D01*
X144069741Y-101892907D01*
X144296989Y-102014373D01*
X144543567Y-102089172D01*
X144735739Y-102108099D01*
X144735740Y-102108099D01*
X144799998Y-102114428D01*
X144864256Y-102108099D01*
X158722507Y-102108099D01*
X158786767Y-102114428D01*
X158851027Y-102108099D01*
X159043199Y-102089172D01*
X159289777Y-102014373D01*
X159517025Y-101892907D01*
X159716209Y-101729441D01*
X159757178Y-101679520D01*
X161160198Y-100276501D01*
X162509339Y-100276501D01*
X162573599Y-100282830D01*
X162637859Y-100276501D01*
X162700069Y-100270374D01*
X162830031Y-100257574D01*
X162885841Y-100240644D01*
X163076609Y-100182775D01*
X163303857Y-100061309D01*
X163503041Y-99897843D01*
X163544010Y-99847922D01*
X166339527Y-97052406D01*
X166389442Y-97011442D01*
X166552908Y-96812258D01*
X166674374Y-96585010D01*
X166749173Y-96338432D01*
X166768100Y-96146260D01*
X166768100Y-96146259D01*
X166774429Y-96082001D01*
X166768100Y-96017743D01*
X166768100Y-95741369D01*
X166772847Y-95747153D01*
X167035832Y-95962979D01*
X167335870Y-96123352D01*
X167661429Y-96222110D01*
X168000000Y-96255456D01*
X168338570Y-96222110D01*
X168664129Y-96123352D01*
X168964167Y-95962979D01*
X169227153Y-95747153D01*
X169442979Y-95484168D01*
X169603352Y-95184130D01*
X169702110Y-94858571D01*
X169727100Y-94604841D01*
X169727100Y-93635160D01*
X169702110Y-93381429D01*
X169603352Y-93055870D01*
X169442979Y-92755832D01*
X169308100Y-92591481D01*
X169308100Y-91912679D01*
X169326963Y-92007510D01*
X169458120Y-92324152D01*
X169648531Y-92609122D01*
X169890878Y-92851469D01*
X170175848Y-93041880D01*
X170492490Y-93173037D01*
X170828635Y-93239900D01*
X170889967Y-93239900D01*
X171569593Y-93919526D01*
X171610558Y-93969442D01*
X171809742Y-94132908D01*
X172036990Y-94254374D01*
X172185839Y-94299527D01*
X172283567Y-94329173D01*
X172350784Y-94335793D01*
X172489439Y-94449585D01*
X172650498Y-94535672D01*
X172825257Y-94588685D01*
X173007000Y-94606585D01*
X176563000Y-94606585D01*
X176744743Y-94588685D01*
X176919502Y-94535672D01*
X177080561Y-94449585D01*
X177221730Y-94333730D01*
X177337585Y-94192561D01*
X177423672Y-94031502D01*
X177476685Y-93856743D01*
X177494585Y-93675000D01*
X177494585Y-92405000D01*
X177476685Y-92223257D01*
X177423672Y-92048498D01*
X177337585Y-91887439D01*
X177241205Y-91770000D01*
X177337585Y-91652561D01*
X177423672Y-91491502D01*
X177476685Y-91316743D01*
X177494585Y-91135000D01*
X177494585Y-89865000D01*
X177476685Y-89683257D01*
X177423672Y-89508498D01*
X177337585Y-89347439D01*
X177241205Y-89230000D01*
X177337585Y-89112561D01*
X177423672Y-88951502D01*
X177476685Y-88776743D01*
X177494585Y-88595000D01*
X177494585Y-87325000D01*
X177476685Y-87143257D01*
X177423672Y-86968498D01*
X177337585Y-86807439D01*
X177221730Y-86666270D01*
X177080561Y-86550415D01*
X176919502Y-86464328D01*
X176744743Y-86411315D01*
X176563000Y-86393415D01*
X173007000Y-86393415D01*
X172825257Y-86411315D01*
X172650498Y-86464328D01*
X172489439Y-86550415D01*
X172365780Y-86651900D01*
X172104257Y-86651900D01*
X172039999Y-86645571D01*
X171975741Y-86651900D01*
X171975740Y-86651900D01*
X171783568Y-86670827D01*
X171536990Y-86745626D01*
X171309742Y-86867092D01*
X171110558Y-87030558D01*
X171069589Y-87080479D01*
X170889968Y-87260100D01*
X170828635Y-87260100D01*
X170492490Y-87326963D01*
X170175848Y-87458120D01*
X169890878Y-87648531D01*
X169719805Y-87819604D01*
X169731585Y-87700000D01*
X169731585Y-85300000D01*
X169713685Y-85118257D01*
X169660672Y-84943498D01*
X169574585Y-84782439D01*
X169458730Y-84641270D01*
X169375583Y-84573033D01*
X169541880Y-84324152D01*
X169673037Y-84007510D01*
X169739900Y-83671365D01*
X169739900Y-83328635D01*
X169673037Y-82992490D01*
X169541880Y-82675848D01*
X169351469Y-82390878D01*
X169109122Y-82148531D01*
X168824152Y-81958120D01*
X168507510Y-81826963D01*
X168171365Y-81760100D01*
X167828635Y-81760100D01*
X167492490Y-81826963D01*
X167175848Y-81958120D01*
X166890878Y-82148531D01*
X166768100Y-82271309D01*
X166768100Y-82024260D01*
X166774429Y-81960000D01*
X166749173Y-81703567D01*
X166714754Y-81590105D01*
X166674374Y-81456990D01*
X166552908Y-81229742D01*
X166389442Y-81030558D01*
X166339526Y-80989593D01*
X162970411Y-77620479D01*
X162929442Y-77570558D01*
X162730258Y-77407092D01*
X162503010Y-77285626D01*
X162256432Y-77210827D01*
X162064260Y-77191900D01*
X162000000Y-77185571D01*
X161935740Y-77191900D01*
X144134388Y-77191900D01*
X144100962Y-77158474D01*
X143818089Y-76969464D01*
X143503777Y-76839271D01*
X143170105Y-76772900D01*
X142829895Y-76772900D01*
X142496223Y-76839271D01*
X142181911Y-76969464D01*
X141899038Y-77158474D01*
X141658474Y-77399038D01*
X141469464Y-77681911D01*
X141339271Y-77996223D01*
X141272900Y-78329895D01*
X141272900Y-78670105D01*
X141339271Y-79003777D01*
X141469464Y-79318089D01*
X141658474Y-79600962D01*
X141899038Y-79841526D01*
X142181911Y-80030536D01*
X142496223Y-80160729D01*
X142829895Y-80227100D01*
X143170105Y-80227100D01*
X143503777Y-80160729D01*
X143818089Y-80030536D01*
X144100962Y-79841526D01*
X144134388Y-79808100D01*
X161458168Y-79808100D01*
X164151901Y-82501834D01*
X164151900Y-84878632D01*
X164147153Y-84872847D01*
X163884168Y-84657021D01*
X163584130Y-84496648D01*
X163258571Y-84397890D01*
X162920000Y-84364544D01*
X162581430Y-84397890D01*
X162255871Y-84496648D01*
X161955833Y-84657021D01*
X161692848Y-84872847D01*
X161477021Y-85135832D01*
X161316648Y-85435870D01*
X161217890Y-85761429D01*
X161192900Y-86015159D01*
X161192900Y-86984840D01*
X161217890Y-87238570D01*
X161316648Y-87564129D01*
X161477021Y-87864167D01*
X161611901Y-88028519D01*
X161611900Y-91355739D01*
X161605571Y-91420000D01*
X161611901Y-91484270D01*
X161611901Y-92498632D01*
X161607153Y-92492847D01*
X161344168Y-92277021D01*
X161044130Y-92116648D01*
X160718571Y-92017890D01*
X160380000Y-91984544D01*
X160041430Y-92017890D01*
X159715871Y-92116648D01*
X159415833Y-92277021D01*
X159152848Y-92492847D01*
X159110000Y-92545057D01*
X159067153Y-92492847D01*
X158804168Y-92277021D01*
X158504130Y-92116648D01*
X158178571Y-92017890D01*
X157840000Y-91984544D01*
X157501430Y-92017890D01*
X157175871Y-92116648D01*
X156875833Y-92277021D01*
X156612848Y-92492847D01*
X156608100Y-92498632D01*
X156608100Y-90508100D01*
X158124369Y-90508100D01*
X158176388Y-90542858D01*
X158493030Y-90674015D01*
X158829175Y-90740878D01*
X159171905Y-90740878D01*
X159508050Y-90674015D01*
X159824692Y-90542858D01*
X160109662Y-90352447D01*
X160352009Y-90110100D01*
X160542420Y-89825130D01*
X160673577Y-89508488D01*
X160740440Y-89172343D01*
X160740440Y-88829613D01*
X160673577Y-88493468D01*
X160542420Y-88176826D01*
X160352009Y-87891856D01*
X160109662Y-87649509D01*
X159824692Y-87459098D01*
X159508050Y-87327941D01*
X159171905Y-87261078D01*
X158829175Y-87261078D01*
X158493030Y-87327941D01*
X158176388Y-87459098D01*
X157891418Y-87649509D01*
X157649071Y-87891856D01*
X157649042Y-87891900D01*
X156720220Y-87891900D01*
X156742979Y-87864168D01*
X156903352Y-87564130D01*
X157002110Y-87238571D01*
X157027100Y-86984841D01*
X157027100Y-86015160D01*
X157002110Y-85761429D01*
X156903352Y-85435870D01*
X156742979Y-85135832D01*
X156527153Y-84872847D01*
X156264168Y-84657021D01*
X155964130Y-84496648D01*
X155638571Y-84397890D01*
X155300000Y-84364544D01*
X154961430Y-84397890D01*
X154635871Y-84496648D01*
X154335833Y-84657021D01*
X154072848Y-84872847D01*
X154068100Y-84878632D01*
X154068100Y-83392082D01*
X154074429Y-83327822D01*
X154049173Y-83071389D01*
X154005598Y-82927743D01*
X153974374Y-82824812D01*
X153852908Y-82597564D01*
X153689442Y-82398380D01*
X153639527Y-82357416D01*
X151921388Y-80639278D01*
X151880419Y-80589357D01*
X151681235Y-80425891D01*
X151453987Y-80304425D01*
X151207409Y-80229626D01*
X151015237Y-80210699D01*
X150950977Y-80204370D01*
X150886717Y-80210699D01*
X148045461Y-80210699D01*
X147981200Y-80204370D01*
X147724768Y-80229626D01*
X147649969Y-80252316D01*
X147478191Y-80304425D01*
X147250943Y-80425891D01*
X147051759Y-80589357D01*
X147010794Y-80639273D01*
X142877168Y-84772900D01*
X142829895Y-84772900D01*
X142496223Y-84839271D01*
X142181911Y-84969464D01*
X141899038Y-85158474D01*
X141658474Y-85399038D01*
X141469464Y-85681911D01*
X141339271Y-85996223D01*
X141272900Y-86329895D01*
X141272900Y-86670105D01*
X141339271Y-87003777D01*
X141469464Y-87318089D01*
X141658474Y-87600962D01*
X141899038Y-87841526D01*
X142181911Y-88030536D01*
X142496223Y-88160729D01*
X142829895Y-88227100D01*
X143170105Y-88227100D01*
X143503777Y-88160729D01*
X143818089Y-88030536D01*
X144100962Y-87841526D01*
X144341526Y-87600962D01*
X144530536Y-87318089D01*
X144660729Y-87003777D01*
X144727100Y-86670105D01*
X144727100Y-86622832D01*
X148319395Y-83030538D01*
X148260100Y-83328635D01*
X148260100Y-83671365D01*
X148326963Y-84007510D01*
X148458120Y-84324152D01*
X148648531Y-84609122D01*
X148691900Y-84652491D01*
X148691901Y-85295082D01*
X148616648Y-85435870D01*
X148517890Y-85761429D01*
X148492900Y-86015159D01*
X148492900Y-86377167D01*
X147178168Y-87691900D01*
X146652491Y-87691900D01*
X146609122Y-87648531D01*
X146324152Y-87458120D01*
X146007510Y-87326963D01*
X145671365Y-87260100D01*
X145328635Y-87260100D01*
X144992490Y-87326963D01*
X144675848Y-87458120D01*
X144390878Y-87648531D01*
X144148531Y-87890878D01*
X143958120Y-88175848D01*
X143826963Y-88492490D01*
X143760100Y-88828635D01*
X143760100Y-89171365D01*
X143826963Y-89507510D01*
X143958120Y-89824152D01*
X144148531Y-90109122D01*
X144390878Y-90351469D01*
X144675848Y-90541880D01*
X144992490Y-90673037D01*
X145328635Y-90739900D01*
X145671365Y-90739900D01*
X146007510Y-90673037D01*
X146324152Y-90541880D01*
X146609122Y-90351469D01*
X146652491Y-90308100D01*
X147655740Y-90308100D01*
X147720000Y-90314429D01*
X147784260Y-90308100D01*
X147938520Y-90292907D01*
X147976432Y-90289173D01*
X148223010Y-90214374D01*
X148450258Y-90092908D01*
X148649442Y-89929442D01*
X148690411Y-89879521D01*
X148911900Y-89658032D01*
X148911901Y-92591481D01*
X148777021Y-92755832D01*
X148616648Y-93055870D01*
X148517890Y-93381429D01*
X148492900Y-93635159D01*
X148492900Y-94604840D01*
X148517890Y-94858570D01*
X148616648Y-95184129D01*
X148777021Y-95484167D01*
X148992847Y-95747153D01*
X149255832Y-95962979D01*
X149555870Y-96123352D01*
X149881429Y-96222110D01*
X150220000Y-96255456D01*
X150558570Y-96222110D01*
X150862005Y-96130063D01*
X149318967Y-97673101D01*
X149104447Y-97673101D01*
X149173037Y-97507510D01*
X149239900Y-97171365D01*
X149239900Y-96828635D01*
X149173037Y-96492490D01*
X149041880Y-96175848D01*
X148851469Y-95890878D01*
X148609122Y-95648531D01*
X148324152Y-95458120D01*
X148007510Y-95326963D01*
X147671365Y-95260100D01*
X147610032Y-95260100D01*
X146650410Y-94300478D01*
X146609441Y-94250557D01*
X146410257Y-94087091D01*
X146183009Y-93965625D01*
X145936431Y-93890826D01*
X145744259Y-93871899D01*
X145679999Y-93865570D01*
X145615739Y-93871899D01*
X142158938Y-93871899D01*
X142030536Y-93561911D01*
X141841526Y-93279038D01*
X141600962Y-93038474D01*
X141318089Y-92849464D01*
X141003777Y-92719271D01*
X140670105Y-92652900D01*
X140329895Y-92652900D01*
X139996223Y-92719271D01*
X139681911Y-92849464D01*
X139399038Y-93038474D01*
X139365612Y-93071900D01*
X138134388Y-93071900D01*
X138100962Y-93038474D01*
X137818089Y-92849464D01*
X137503777Y-92719271D01*
X137170105Y-92652900D01*
X136829895Y-92652900D01*
X136496223Y-92719271D01*
X136181911Y-92849464D01*
X135899038Y-93038474D01*
X135658474Y-93279038D01*
X135469464Y-93561911D01*
X135339271Y-93876223D01*
X135272900Y-94209895D01*
X135272900Y-94497167D01*
X134308100Y-95461968D01*
X134308100Y-94851667D01*
X134330536Y-94818089D01*
X134460729Y-94503777D01*
X134527100Y-94170105D01*
X134527100Y-93829895D01*
X134460729Y-93496223D01*
X134330536Y-93181911D01*
X134141526Y-92899038D01*
X133900962Y-92658474D01*
X133618089Y-92469464D01*
X133303777Y-92339271D01*
X132970105Y-92272900D01*
X132922832Y-92272900D01*
X131802010Y-91152078D01*
X131761041Y-91102157D01*
X131561857Y-90938691D01*
X131334609Y-90817225D01*
X131088031Y-90742426D01*
X131062384Y-90739900D01*
X130831599Y-90717170D01*
X130767339Y-90723499D01*
X127573431Y-90723499D01*
X126727100Y-89877168D01*
X126727100Y-89829895D01*
X126660729Y-89496223D01*
X126530536Y-89181911D01*
X126341526Y-88899038D01*
X126100962Y-88658474D01*
X125818089Y-88469464D01*
X125503777Y-88339271D01*
X125170105Y-88272900D01*
X125122832Y-88272900D01*
X124988100Y-88138168D01*
X124988100Y-87634388D01*
X125021526Y-87600962D01*
X125210536Y-87318089D01*
X125340729Y-87003777D01*
X125407100Y-86670105D01*
X125407100Y-86329895D01*
X125340729Y-85996223D01*
X125210536Y-85681911D01*
X125021526Y-85399038D01*
X124852488Y-85230000D01*
X125021526Y-85060962D01*
X125210536Y-84778089D01*
X125340729Y-84463777D01*
X125407100Y-84130105D01*
X125407100Y-83789895D01*
X125340729Y-83456223D01*
X125210536Y-83141911D01*
X125021526Y-82859038D01*
X124852488Y-82690000D01*
X125021526Y-82520962D01*
X125210536Y-82238089D01*
X125340729Y-81923777D01*
X125407100Y-81590105D01*
X125407100Y-81249895D01*
X125340729Y-80916223D01*
X125210536Y-80601911D01*
X125021526Y-80319038D01*
X124780962Y-80078474D01*
X124498089Y-79889464D01*
X124183777Y-79759271D01*
X123850105Y-79692900D01*
X123509895Y-79692900D01*
X123176223Y-79759271D01*
X122861911Y-79889464D01*
X122579038Y-80078474D01*
X122338474Y-80319038D01*
X122155819Y-80592399D01*
X121960138Y-80487806D01*
X121713560Y-80413007D01*
X121521388Y-80394080D01*
X121457128Y-80387751D01*
X121392868Y-80394080D01*
X109939604Y-80394080D01*
X110147931Y-80185753D01*
X110197852Y-80144784D01*
X110250874Y-80080177D01*
X110504129Y-80003352D01*
X110804167Y-79842979D01*
X111067153Y-79627153D01*
X111110000Y-79574944D01*
X111152847Y-79627153D01*
X111415832Y-79842979D01*
X111715870Y-80003352D01*
X112041429Y-80102110D01*
X112380000Y-80135456D01*
X112718570Y-80102110D01*
X113044129Y-80003352D01*
X113344167Y-79842979D01*
X113607153Y-79627153D01*
X113822979Y-79364168D01*
X113983352Y-79064130D01*
X114082110Y-78738571D01*
X114107100Y-78484841D01*
X114107100Y-77515160D01*
X114082110Y-77261429D01*
X113983352Y-76935870D01*
X113915058Y-76808100D01*
X115924942Y-76808100D01*
X115856648Y-76935870D01*
X115757890Y-77261429D01*
X115732900Y-77515159D01*
X115732900Y-78484840D01*
X115757890Y-78738570D01*
X115856648Y-79064129D01*
X116017021Y-79364167D01*
X116232847Y-79627153D01*
X116495832Y-79842979D01*
X116795870Y-80003352D01*
X117121429Y-80102110D01*
X117460000Y-80135456D01*
X117798570Y-80102110D01*
X118124129Y-80003352D01*
X118424167Y-79842979D01*
X118687153Y-79627153D01*
X118902979Y-79364168D01*
X119063352Y-79064130D01*
X119162110Y-78738571D01*
X119187100Y-78484841D01*
X119187100Y-77515160D01*
X119162110Y-77261429D01*
X119063352Y-76935870D01*
X118995058Y-76808100D01*
X134751402Y-76808100D01*
X134810003Y-76866701D01*
X134561911Y-76969464D01*
X134279038Y-77158474D01*
X134038474Y-77399038D01*
X133922971Y-77571900D01*
X132434388Y-77571900D01*
X132400962Y-77538474D01*
X132118089Y-77349464D01*
X131803777Y-77219271D01*
X131470105Y-77152900D01*
X131129895Y-77152900D01*
X130796223Y-77219271D01*
X130481911Y-77349464D01*
X130199038Y-77538474D01*
X129958474Y-77779038D01*
X129769464Y-78061911D01*
X129639271Y-78376223D01*
X129572900Y-78709895D01*
X129572900Y-79050105D01*
X129639271Y-79383777D01*
X129769464Y-79698089D01*
X129958474Y-79980962D01*
X130090753Y-80113241D01*
X129912198Y-80130827D01*
X129665619Y-80205626D01*
X129524395Y-80281112D01*
X129438372Y-80327092D01*
X129239188Y-80490558D01*
X129198219Y-80540479D01*
X128452074Y-81286624D01*
X128402158Y-81327589D01*
X128298743Y-81453601D01*
X128238692Y-81526773D01*
X128117226Y-81754021D01*
X128042426Y-82000599D01*
X128017170Y-82257031D01*
X128023500Y-82321301D01*
X128023499Y-86029338D01*
X128017170Y-86093599D01*
X128042426Y-86350031D01*
X128045017Y-86358571D01*
X128117225Y-86596608D01*
X128238691Y-86823856D01*
X128402157Y-87023041D01*
X128452078Y-87064010D01*
X128767589Y-87379521D01*
X128808558Y-87429442D01*
X129007742Y-87592908D01*
X129182933Y-87686549D01*
X129234990Y-87714374D01*
X129481567Y-87789173D01*
X129722949Y-87812947D01*
X129725415Y-87817561D01*
X129841270Y-87958730D01*
X129982439Y-88074585D01*
X130143498Y-88160672D01*
X130318257Y-88213685D01*
X130500000Y-88231585D01*
X132100000Y-88231585D01*
X132281743Y-88213685D01*
X132456502Y-88160672D01*
X132617561Y-88074585D01*
X132758730Y-87958730D01*
X132874585Y-87817561D01*
X132879642Y-87808100D01*
X134245612Y-87808100D01*
X134279038Y-87841526D01*
X134561911Y-88030536D01*
X134876223Y-88160729D01*
X135209895Y-88227100D01*
X135550105Y-88227100D01*
X135883777Y-88160729D01*
X136000538Y-88112365D01*
X135958120Y-88175848D01*
X135826963Y-88492490D01*
X135760100Y-88828635D01*
X135760100Y-89171365D01*
X135826963Y-89507510D01*
X135958120Y-89824152D01*
X136148531Y-90109122D01*
X136390878Y-90351469D01*
X136675848Y-90541880D01*
X136992490Y-90673037D01*
X137328635Y-90739900D01*
X137671365Y-90739900D01*
X138007510Y-90673037D01*
X138324152Y-90541880D01*
X138609122Y-90351469D01*
X138851469Y-90109122D01*
X139041880Y-89824152D01*
X139173037Y-89507510D01*
X139239900Y-89171365D01*
X139239900Y-88828635D01*
X139173037Y-88492490D01*
X139041880Y-88175848D01*
X138851469Y-87890878D01*
X138808100Y-87847509D01*
X138808100Y-77771023D01*
X138814429Y-77706765D01*
X138801014Y-77570559D01*
X138789173Y-77450334D01*
X138714374Y-77203756D01*
X138592908Y-76976508D01*
X138429442Y-76777324D01*
X138379522Y-76736356D01*
X136357666Y-74714500D01*
X179873000Y-74714500D01*
X179873000Y-109785500D01*
X95714500Y-109785500D01*
X95714500Y-74714500D01*
X106773568Y-74714500D01*
X106420479Y-75067589D01*
G37*
X106420479Y-75067589D02*
X106370558Y-75108558D01*
X106207092Y-75307743D01*
X106085626Y-75534991D01*
X106056323Y-75631590D01*
X106010827Y-75781568D01*
X105985571Y-76038000D01*
X105991900Y-76102261D01*
X105991900Y-76471482D01*
X105857021Y-76635832D01*
X105696648Y-76935870D01*
X105597890Y-77261429D01*
X105572900Y-77515159D01*
X105572900Y-78484840D01*
X105597890Y-78738570D01*
X105696648Y-79064129D01*
X105857021Y-79364167D01*
X106072847Y-79627153D01*
X106091535Y-79642490D01*
X102171586Y-79642490D01*
X102107328Y-79636161D01*
X102043070Y-79642490D01*
X102043069Y-79642490D01*
X101850897Y-79661417D01*
X101604319Y-79736216D01*
X101377071Y-79857682D01*
X101177887Y-80021148D01*
X101136918Y-80071069D01*
X97580479Y-83627508D01*
X97530558Y-83668477D01*
X97367092Y-83867662D01*
X97245626Y-84094910D01*
X97234950Y-84130105D01*
X97170827Y-84341487D01*
X97145571Y-84597919D01*
X97145868Y-84600933D01*
X97079636Y-84667165D01*
X96885154Y-84958227D01*
X96751193Y-85281639D01*
X96682900Y-85624971D01*
X96682900Y-85975029D01*
X96751193Y-86318361D01*
X96885154Y-86641773D01*
X97079636Y-86932835D01*
X97216801Y-87070000D01*
X97079636Y-87207165D01*
X96885154Y-87498227D01*
X96751193Y-87821639D01*
X96682900Y-88164971D01*
X96682900Y-88515029D01*
X96751193Y-88858361D01*
X96885154Y-89181773D01*
X97079636Y-89472835D01*
X97216801Y-89610000D01*
X97079636Y-89747165D01*
X96885154Y-90038227D01*
X96751193Y-90361639D01*
X96682900Y-90704971D01*
X96682900Y-91055029D01*
X96751193Y-91398361D01*
X96885154Y-91721773D01*
X97079636Y-92012835D01*
X97216801Y-92150000D01*
X97079636Y-92287165D01*
X96885154Y-92578227D01*
X96751193Y-92901639D01*
X96682900Y-93244971D01*
X96682900Y-93595029D01*
X96751193Y-93938361D01*
X96885154Y-94261773D01*
X97079636Y-94552835D01*
X97327165Y-94800364D01*
X97618227Y-94994846D01*
X97941639Y-95128807D01*
X98284971Y-95197100D01*
X98635029Y-95197100D01*
X98978361Y-95128807D01*
X99301773Y-94994846D01*
X99592835Y-94800364D01*
X99730000Y-94663199D01*
X99867165Y-94800364D01*
X100158227Y-94994846D01*
X100481639Y-95128807D01*
X100824971Y-95197100D01*
X101175029Y-95197100D01*
X101518361Y-95128807D01*
X101841773Y-94994846D01*
X101892860Y-94960710D01*
X101963264Y-95031115D01*
X102004238Y-95081041D01*
X102203422Y-95244507D01*
X102430670Y-95365973D01*
X102677248Y-95440772D01*
X102869420Y-95459699D01*
X102869421Y-95459699D01*
X102933679Y-95466028D01*
X102997937Y-95459699D01*
X104904106Y-95459699D01*
X104839271Y-95616223D01*
X104772900Y-95949895D01*
X104772900Y-95997168D01*
X103578168Y-97191900D01*
X102656367Y-97191900D01*
X102624585Y-97132439D01*
X102508730Y-96991270D01*
X102367561Y-96875415D01*
X102206502Y-96789328D01*
X102031743Y-96736315D01*
X101850000Y-96718415D01*
X100150000Y-96718415D01*
X99968257Y-96736315D01*
X99793498Y-96789328D01*
X99632439Y-96875415D01*
X99491270Y-96991270D01*
X99459202Y-97030345D01*
X99301773Y-96925154D01*
X98978361Y-96791193D01*
X98635029Y-96722900D01*
X98284971Y-96722900D01*
X97941639Y-96791193D01*
X97618227Y-96925154D01*
X97327165Y-97119636D01*
X97079636Y-97367165D01*
X96885154Y-97658227D01*
X96751193Y-97981639D01*
X96682900Y-98324971D01*
X96682900Y-98675029D01*
X96751193Y-99018361D01*
X96885154Y-99341773D01*
X97079636Y-99632835D01*
X97327165Y-99880364D01*
X97618227Y-100074846D01*
X97941639Y-100208807D01*
X98284971Y-100277100D01*
X98635029Y-100277100D01*
X98978361Y-100208807D01*
X99301773Y-100074846D01*
X99459202Y-99969655D01*
X99491270Y-100008730D01*
X99632439Y-100124585D01*
X99691901Y-100156368D01*
X99691901Y-100935730D01*
X99685571Y-101000000D01*
X99710827Y-101256432D01*
X99752618Y-101394195D01*
X99785627Y-101503010D01*
X99907093Y-101730258D01*
X100070559Y-101929442D01*
X100120475Y-101970407D01*
X100768415Y-102618347D01*
X100768415Y-103300000D01*
X100786315Y-103481743D01*
X100839328Y-103656502D01*
X100925415Y-103817561D01*
X101041270Y-103958730D01*
X101182439Y-104074585D01*
X101343498Y-104160672D01*
X101518257Y-104213685D01*
X101700000Y-104231585D01*
X103300000Y-104231585D01*
X103481743Y-104213685D01*
X103656502Y-104160672D01*
X103817561Y-104074585D01*
X103958730Y-103958730D01*
X104074585Y-103817561D01*
X104160672Y-103656502D01*
X104213685Y-103481743D01*
X104231585Y-103300000D01*
X104231585Y-101700000D01*
X104213685Y-101518257D01*
X104160672Y-101343498D01*
X104074585Y-101182439D01*
X103958730Y-101041270D01*
X103817561Y-100925415D01*
X103656502Y-100839328D01*
X103481743Y-100786315D01*
X103300000Y-100768415D01*
X102618347Y-100768415D01*
X102308100Y-100458168D01*
X102308100Y-100156367D01*
X102367561Y-100124585D01*
X102508730Y-100008730D01*
X102624585Y-99867561D01*
X102656367Y-99808100D01*
X104055740Y-99808100D01*
X104120000Y-99814429D01*
X104184260Y-99808100D01*
X104252887Y-99801341D01*
X104376432Y-99789173D01*
X104623010Y-99714374D01*
X104850258Y-99592908D01*
X105049442Y-99429442D01*
X105090411Y-99379521D01*
X106622832Y-97847100D01*
X106670105Y-97847100D01*
X107003777Y-97780729D01*
X107318089Y-97650536D01*
X107600962Y-97461526D01*
X107634388Y-97428100D01*
X110365612Y-97428100D01*
X110399038Y-97461526D01*
X110681911Y-97650536D01*
X110827799Y-97710965D01*
X113266598Y-100149765D01*
X113307563Y-100199681D01*
X113426132Y-100296988D01*
X113506747Y-100363147D01*
X113733994Y-100484613D01*
X113772434Y-100496274D01*
X111160479Y-103108229D01*
X111110558Y-103149198D01*
X110947092Y-103348383D01*
X110825626Y-103575631D01*
X110784268Y-103711969D01*
X110750827Y-103822208D01*
X110725571Y-104078640D01*
X110729617Y-104119722D01*
X110641063Y-104252253D01*
X110522065Y-104539539D01*
X110461400Y-104844521D01*
X110461400Y-105155479D01*
X110522065Y-105460461D01*
X110641063Y-105747747D01*
X110813821Y-106006299D01*
X111033701Y-106226179D01*
X111292253Y-106398937D01*
X111579539Y-106517935D01*
X111884521Y-106578600D01*
X112195479Y-106578600D01*
X112500461Y-106517935D01*
X112787747Y-106398937D01*
X113046299Y-106226179D01*
X113266179Y-106006299D01*
X113438937Y-105747747D01*
X113557935Y-105460461D01*
X113618600Y-105155479D01*
X113618600Y-104844521D01*
X113557935Y-104539539D01*
X113520180Y-104448392D01*
X117727929Y-100240644D01*
X117777843Y-100199681D01*
X117941309Y-100000497D01*
X118062775Y-99773249D01*
X118119690Y-99585625D01*
X118137574Y-99526672D01*
X118162830Y-99270239D01*
X118156501Y-99205979D01*
X118156501Y-89912658D01*
X118162830Y-89848400D01*
X118156501Y-89784141D01*
X118137574Y-89591969D01*
X118062775Y-89345391D01*
X117941309Y-89118143D01*
X117846867Y-89003065D01*
X118339527Y-88510406D01*
X118389442Y-88469442D01*
X118552908Y-88270258D01*
X118611483Y-88160672D01*
X118674374Y-88043011D01*
X118749173Y-87796433D01*
X118774429Y-87540000D01*
X118768100Y-87475740D01*
X118768100Y-87241369D01*
X118772847Y-87247153D01*
X119035832Y-87462979D01*
X119335870Y-87623352D01*
X119661429Y-87722110D01*
X120000000Y-87755456D01*
X120338570Y-87722110D01*
X120664129Y-87623352D01*
X120964167Y-87462979D01*
X121227153Y-87247153D01*
X121442979Y-86984168D01*
X121603352Y-86684130D01*
X121702110Y-86358571D01*
X121727100Y-86104841D01*
X121727100Y-85268100D01*
X122469412Y-85268100D01*
X122338474Y-85399038D01*
X122149464Y-85681911D01*
X122019271Y-85996223D01*
X121952900Y-86329895D01*
X121952900Y-86670105D01*
X122019271Y-87003777D01*
X122149464Y-87318089D01*
X122338474Y-87600962D01*
X122371901Y-87634389D01*
X122371901Y-88615730D01*
X122365571Y-88680000D01*
X122386365Y-88891133D01*
X122356508Y-88907092D01*
X122157324Y-89070558D01*
X122116355Y-89120479D01*
X119120475Y-92116359D01*
X119070559Y-92157324D01*
X119029595Y-92207239D01*
X118907093Y-92356508D01*
X118785627Y-92583756D01*
X118710827Y-92830334D01*
X118685571Y-93086766D01*
X118691901Y-93151036D01*
X118691900Y-101578167D01*
X116819901Y-103450167D01*
X116659539Y-103482065D01*
X116372253Y-103601063D01*
X116113701Y-103773821D01*
X115893821Y-103993701D01*
X115721063Y-104252253D01*
X115602065Y-104539539D01*
X115541400Y-104844521D01*
X115541400Y-105155479D01*
X115602065Y-105460461D01*
X115721063Y-105747747D01*
X115893821Y-106006299D01*
X116113701Y-106226179D01*
X116372253Y-106398937D01*
X116659539Y-106517935D01*
X116964521Y-106578600D01*
X117275479Y-106578600D01*
X117580461Y-106517935D01*
X117867747Y-106398937D01*
X118126299Y-106226179D01*
X118346179Y-106006299D01*
X118518937Y-105747747D01*
X118637935Y-105460461D01*
X118669833Y-105300099D01*
X120879527Y-103090406D01*
X120929442Y-103049442D01*
X121092908Y-102850258D01*
X121214374Y-102623010D01*
X121230075Y-102571252D01*
X121265612Y-102688401D01*
X121285627Y-102754380D01*
X121407093Y-102981628D01*
X121570559Y-103180812D01*
X121620475Y-103221777D01*
X124398223Y-105999526D01*
X124439188Y-106049442D01*
X124638372Y-106212908D01*
X124865620Y-106334374D01*
X125112198Y-106409173D01*
X125304370Y-106428100D01*
X125304371Y-106428100D01*
X125368629Y-106434429D01*
X125371644Y-106434132D01*
X125399038Y-106461526D01*
X125681911Y-106650536D01*
X125996223Y-106780729D01*
X126329895Y-106847100D01*
X126670105Y-106847100D01*
X127003777Y-106780729D01*
X127318089Y-106650536D01*
X127600962Y-106461526D01*
X127841526Y-106220962D01*
X128030536Y-105938089D01*
X128160729Y-105623777D01*
X128227100Y-105290105D01*
X128227100Y-104949895D01*
X128160729Y-104616223D01*
X128030536Y-104301911D01*
X127841526Y-104019038D01*
X127600962Y-103778474D01*
X127318089Y-103589464D01*
X127003777Y-103459271D01*
X126670105Y-103392900D01*
X126329895Y-103392900D01*
X125996223Y-103459271D01*
X125686236Y-103587673D01*
X123808100Y-101709538D01*
X123808100Y-98134388D01*
X123841526Y-98100962D01*
X124030536Y-97818089D01*
X124160729Y-97503777D01*
X124227100Y-97170105D01*
X124227100Y-97077032D01*
X124768415Y-97618347D01*
X124768415Y-98300000D01*
X124786315Y-98481743D01*
X124839328Y-98656502D01*
X124925415Y-98817561D01*
X125041270Y-98958730D01*
X125182439Y-99074585D01*
X125343498Y-99160672D01*
X125518257Y-99213685D01*
X125700000Y-99231585D01*
X127300000Y-99231585D01*
X127481743Y-99213685D01*
X127656502Y-99160672D01*
X127817561Y-99074585D01*
X127958730Y-98958730D01*
X128074585Y-98817561D01*
X128160672Y-98656502D01*
X128213685Y-98481743D01*
X128231585Y-98300000D01*
X128231585Y-96700000D01*
X128213685Y-96518257D01*
X128160672Y-96343498D01*
X128074585Y-96182439D01*
X127958730Y-96041270D01*
X127817561Y-95925415D01*
X127656502Y-95839328D01*
X127481743Y-95786315D01*
X127300000Y-95768415D01*
X126618347Y-95768415D01*
X124227100Y-93377168D01*
X124227100Y-93329895D01*
X124160729Y-92996223D01*
X124030536Y-92681911D01*
X123841526Y-92399038D01*
X123600962Y-92158474D01*
X123318089Y-91969464D01*
X123069997Y-91866701D01*
X123628598Y-91308100D01*
X123865612Y-91308100D01*
X123899038Y-91341526D01*
X124181911Y-91530536D01*
X124496223Y-91660729D01*
X124829895Y-91727100D01*
X124877168Y-91727100D01*
X126061188Y-92911120D01*
X126102157Y-92961041D01*
X126301341Y-93124507D01*
X126528589Y-93245973D01*
X126775167Y-93320772D01*
X126967339Y-93339699D01*
X126967340Y-93339699D01*
X127031598Y-93346028D01*
X127095856Y-93339699D01*
X130289767Y-93339699D01*
X131072900Y-94122832D01*
X131072900Y-94170105D01*
X131139271Y-94503777D01*
X131269464Y-94818089D01*
X131458474Y-95100962D01*
X131691901Y-95334389D01*
X131691901Y-96315730D01*
X131685571Y-96380000D01*
X131710827Y-96636432D01*
X131775692Y-96850258D01*
X131785627Y-96883010D01*
X131907093Y-97110258D01*
X132070559Y-97309442D01*
X132120475Y-97350407D01*
X132392900Y-97622832D01*
X132392900Y-97670105D01*
X132459271Y-98003777D01*
X132589464Y-98318089D01*
X132778474Y-98600962D01*
X132947512Y-98770000D01*
X132778474Y-98939038D01*
X132589464Y-99221911D01*
X132459271Y-99536223D01*
X132392900Y-99869895D01*
X132392900Y-100210105D01*
X132459271Y-100543777D01*
X132589464Y-100858089D01*
X132778474Y-101140962D01*
X132947512Y-101310000D01*
X132778474Y-101479038D01*
X132589464Y-101761911D01*
X132459271Y-102076223D01*
X132392900Y-102409895D01*
X132392900Y-102750105D01*
X132459271Y-103083777D01*
X132589464Y-103398089D01*
X132778474Y-103680962D01*
X133019038Y-103921526D01*
X133301911Y-104110536D01*
X133616223Y-104240729D01*
X133949895Y-104307100D01*
X134290105Y-104307100D01*
X134348219Y-104295541D01*
X134540000Y-104314429D01*
X134796432Y-104289173D01*
X135043010Y-104214374D01*
X135270258Y-104092907D01*
X135469441Y-103929441D01*
X135632907Y-103730258D01*
X135754374Y-103503010D01*
X135777098Y-103428100D01*
X136028605Y-103428100D01*
X136181911Y-103530536D01*
X136496223Y-103660729D01*
X136739109Y-103709042D01*
X137877994Y-104847927D01*
X137918959Y-104897843D01*
X138118143Y-105061309D01*
X138227945Y-105119999D01*
X138345390Y-105182775D01*
X138591968Y-105257574D01*
X138848401Y-105282830D01*
X138912661Y-105276501D01*
X141380573Y-105276501D01*
X141444833Y-105282830D01*
X141509093Y-105276501D01*
X141701265Y-105257574D01*
X141947843Y-105182775D01*
X142175091Y-105061309D01*
X142374275Y-104897843D01*
X142415244Y-104847922D01*
X143347928Y-103915239D01*
X143397843Y-103874275D01*
X143561309Y-103675091D01*
X143673207Y-103465744D01*
X143682775Y-103447844D01*
X143757574Y-103201266D01*
X143782830Y-102944833D01*
X143776501Y-102880573D01*
X143776501Y-101716479D01*
X143829895Y-101727100D01*
X143868636Y-101727100D01*
X143870557Y-101729441D01*
X144069741Y-101892907D01*
X144296989Y-102014373D01*
X144543567Y-102089172D01*
X144735739Y-102108099D01*
X144735740Y-102108099D01*
X144799998Y-102114428D01*
X144864256Y-102108099D01*
X158722507Y-102108099D01*
X158786767Y-102114428D01*
X158851027Y-102108099D01*
X159043199Y-102089172D01*
X159289777Y-102014373D01*
X159517025Y-101892907D01*
X159716209Y-101729441D01*
X159757178Y-101679520D01*
X161160198Y-100276501D01*
X162509339Y-100276501D01*
X162573599Y-100282830D01*
X162637859Y-100276501D01*
X162700069Y-100270374D01*
X162830031Y-100257574D01*
X162885841Y-100240644D01*
X163076609Y-100182775D01*
X163303857Y-100061309D01*
X163503041Y-99897843D01*
X163544010Y-99847922D01*
X166339527Y-97052406D01*
X166389442Y-97011442D01*
X166552908Y-96812258D01*
X166674374Y-96585010D01*
X166749173Y-96338432D01*
X166768100Y-96146260D01*
X166768100Y-96146259D01*
X166774429Y-96082001D01*
X166768100Y-96017743D01*
X166768100Y-95741369D01*
X166772847Y-95747153D01*
X167035832Y-95962979D01*
X167335870Y-96123352D01*
X167661429Y-96222110D01*
X168000000Y-96255456D01*
X168338570Y-96222110D01*
X168664129Y-96123352D01*
X168964167Y-95962979D01*
X169227153Y-95747153D01*
X169442979Y-95484168D01*
X169603352Y-95184130D01*
X169702110Y-94858571D01*
X169727100Y-94604841D01*
X169727100Y-93635160D01*
X169702110Y-93381429D01*
X169603352Y-93055870D01*
X169442979Y-92755832D01*
X169308100Y-92591481D01*
X169308100Y-91912679D01*
X169326963Y-92007510D01*
X169458120Y-92324152D01*
X169648531Y-92609122D01*
X169890878Y-92851469D01*
X170175848Y-93041880D01*
X170492490Y-93173037D01*
X170828635Y-93239900D01*
X170889967Y-93239900D01*
X171569593Y-93919526D01*
X171610558Y-93969442D01*
X171809742Y-94132908D01*
X172036990Y-94254374D01*
X172185839Y-94299527D01*
X172283567Y-94329173D01*
X172350784Y-94335793D01*
X172489439Y-94449585D01*
X172650498Y-94535672D01*
X172825257Y-94588685D01*
X173007000Y-94606585D01*
X176563000Y-94606585D01*
X176744743Y-94588685D01*
X176919502Y-94535672D01*
X177080561Y-94449585D01*
X177221730Y-94333730D01*
X177337585Y-94192561D01*
X177423672Y-94031502D01*
X177476685Y-93856743D01*
X177494585Y-93675000D01*
X177494585Y-92405000D01*
X177476685Y-92223257D01*
X177423672Y-92048498D01*
X177337585Y-91887439D01*
X177241205Y-91770000D01*
X177337585Y-91652561D01*
X177423672Y-91491502D01*
X177476685Y-91316743D01*
X177494585Y-91135000D01*
X177494585Y-89865000D01*
X177476685Y-89683257D01*
X177423672Y-89508498D01*
X177337585Y-89347439D01*
X177241205Y-89230000D01*
X177337585Y-89112561D01*
X177423672Y-88951502D01*
X177476685Y-88776743D01*
X177494585Y-88595000D01*
X177494585Y-87325000D01*
X177476685Y-87143257D01*
X177423672Y-86968498D01*
X177337585Y-86807439D01*
X177221730Y-86666270D01*
X177080561Y-86550415D01*
X176919502Y-86464328D01*
X176744743Y-86411315D01*
X176563000Y-86393415D01*
X173007000Y-86393415D01*
X172825257Y-86411315D01*
X172650498Y-86464328D01*
X172489439Y-86550415D01*
X172365780Y-86651900D01*
X172104257Y-86651900D01*
X172039999Y-86645571D01*
X171975741Y-86651900D01*
X171975740Y-86651900D01*
X171783568Y-86670827D01*
X171536990Y-86745626D01*
X171309742Y-86867092D01*
X171110558Y-87030558D01*
X171069589Y-87080479D01*
X170889968Y-87260100D01*
X170828635Y-87260100D01*
X170492490Y-87326963D01*
X170175848Y-87458120D01*
X169890878Y-87648531D01*
X169719805Y-87819604D01*
X169731585Y-87700000D01*
X169731585Y-85300000D01*
X169713685Y-85118257D01*
X169660672Y-84943498D01*
X169574585Y-84782439D01*
X169458730Y-84641270D01*
X169375583Y-84573033D01*
X169541880Y-84324152D01*
X169673037Y-84007510D01*
X169739900Y-83671365D01*
X169739900Y-83328635D01*
X169673037Y-82992490D01*
X169541880Y-82675848D01*
X169351469Y-82390878D01*
X169109122Y-82148531D01*
X168824152Y-81958120D01*
X168507510Y-81826963D01*
X168171365Y-81760100D01*
X167828635Y-81760100D01*
X167492490Y-81826963D01*
X167175848Y-81958120D01*
X166890878Y-82148531D01*
X166768100Y-82271309D01*
X166768100Y-82024260D01*
X166774429Y-81960000D01*
X166749173Y-81703567D01*
X166714754Y-81590105D01*
X166674374Y-81456990D01*
X166552908Y-81229742D01*
X166389442Y-81030558D01*
X166339526Y-80989593D01*
X162970411Y-77620479D01*
X162929442Y-77570558D01*
X162730258Y-77407092D01*
X162503010Y-77285626D01*
X162256432Y-77210827D01*
X162064260Y-77191900D01*
X162000000Y-77185571D01*
X161935740Y-77191900D01*
X144134388Y-77191900D01*
X144100962Y-77158474D01*
X143818089Y-76969464D01*
X143503777Y-76839271D01*
X143170105Y-76772900D01*
X142829895Y-76772900D01*
X142496223Y-76839271D01*
X142181911Y-76969464D01*
X141899038Y-77158474D01*
X141658474Y-77399038D01*
X141469464Y-77681911D01*
X141339271Y-77996223D01*
X141272900Y-78329895D01*
X141272900Y-78670105D01*
X141339271Y-79003777D01*
X141469464Y-79318089D01*
X141658474Y-79600962D01*
X141899038Y-79841526D01*
X142181911Y-80030536D01*
X142496223Y-80160729D01*
X142829895Y-80227100D01*
X143170105Y-80227100D01*
X143503777Y-80160729D01*
X143818089Y-80030536D01*
X144100962Y-79841526D01*
X144134388Y-79808100D01*
X161458168Y-79808100D01*
X164151901Y-82501834D01*
X164151900Y-84878632D01*
X164147153Y-84872847D01*
X163884168Y-84657021D01*
X163584130Y-84496648D01*
X163258571Y-84397890D01*
X162920000Y-84364544D01*
X162581430Y-84397890D01*
X162255871Y-84496648D01*
X161955833Y-84657021D01*
X161692848Y-84872847D01*
X161477021Y-85135832D01*
X161316648Y-85435870D01*
X161217890Y-85761429D01*
X161192900Y-86015159D01*
X161192900Y-86984840D01*
X161217890Y-87238570D01*
X161316648Y-87564129D01*
X161477021Y-87864167D01*
X161611901Y-88028519D01*
X161611900Y-91355739D01*
X161605571Y-91420000D01*
X161611901Y-91484270D01*
X161611901Y-92498632D01*
X161607153Y-92492847D01*
X161344168Y-92277021D01*
X161044130Y-92116648D01*
X160718571Y-92017890D01*
X160380000Y-91984544D01*
X160041430Y-92017890D01*
X159715871Y-92116648D01*
X159415833Y-92277021D01*
X159152848Y-92492847D01*
X159110000Y-92545057D01*
X159067153Y-92492847D01*
X158804168Y-92277021D01*
X158504130Y-92116648D01*
X158178571Y-92017890D01*
X157840000Y-91984544D01*
X157501430Y-92017890D01*
X157175871Y-92116648D01*
X156875833Y-92277021D01*
X156612848Y-92492847D01*
X156608100Y-92498632D01*
X156608100Y-90508100D01*
X158124369Y-90508100D01*
X158176388Y-90542858D01*
X158493030Y-90674015D01*
X158829175Y-90740878D01*
X159171905Y-90740878D01*
X159508050Y-90674015D01*
X159824692Y-90542858D01*
X160109662Y-90352447D01*
X160352009Y-90110100D01*
X160542420Y-89825130D01*
X160673577Y-89508488D01*
X160740440Y-89172343D01*
X160740440Y-88829613D01*
X160673577Y-88493468D01*
X160542420Y-88176826D01*
X160352009Y-87891856D01*
X160109662Y-87649509D01*
X159824692Y-87459098D01*
X159508050Y-87327941D01*
X159171905Y-87261078D01*
X158829175Y-87261078D01*
X158493030Y-87327941D01*
X158176388Y-87459098D01*
X157891418Y-87649509D01*
X157649071Y-87891856D01*
X157649042Y-87891900D01*
X156720220Y-87891900D01*
X156742979Y-87864168D01*
X156903352Y-87564130D01*
X157002110Y-87238571D01*
X157027100Y-86984841D01*
X157027100Y-86015160D01*
X157002110Y-85761429D01*
X156903352Y-85435870D01*
X156742979Y-85135832D01*
X156527153Y-84872847D01*
X156264168Y-84657021D01*
X155964130Y-84496648D01*
X155638571Y-84397890D01*
X155300000Y-84364544D01*
X154961430Y-84397890D01*
X154635871Y-84496648D01*
X154335833Y-84657021D01*
X154072848Y-84872847D01*
X154068100Y-84878632D01*
X154068100Y-83392082D01*
X154074429Y-83327822D01*
X154049173Y-83071389D01*
X154005598Y-82927743D01*
X153974374Y-82824812D01*
X153852908Y-82597564D01*
X153689442Y-82398380D01*
X153639527Y-82357416D01*
X151921388Y-80639278D01*
X151880419Y-80589357D01*
X151681235Y-80425891D01*
X151453987Y-80304425D01*
X151207409Y-80229626D01*
X151015237Y-80210699D01*
X150950977Y-80204370D01*
X150886717Y-80210699D01*
X148045461Y-80210699D01*
X147981200Y-80204370D01*
X147724768Y-80229626D01*
X147649969Y-80252316D01*
X147478191Y-80304425D01*
X147250943Y-80425891D01*
X147051759Y-80589357D01*
X147010794Y-80639273D01*
X142877168Y-84772900D01*
X142829895Y-84772900D01*
X142496223Y-84839271D01*
X142181911Y-84969464D01*
X141899038Y-85158474D01*
X141658474Y-85399038D01*
X141469464Y-85681911D01*
X141339271Y-85996223D01*
X141272900Y-86329895D01*
X141272900Y-86670105D01*
X141339271Y-87003777D01*
X141469464Y-87318089D01*
X141658474Y-87600962D01*
X141899038Y-87841526D01*
X142181911Y-88030536D01*
X142496223Y-88160729D01*
X142829895Y-88227100D01*
X143170105Y-88227100D01*
X143503777Y-88160729D01*
X143818089Y-88030536D01*
X144100962Y-87841526D01*
X144341526Y-87600962D01*
X144530536Y-87318089D01*
X144660729Y-87003777D01*
X144727100Y-86670105D01*
X144727100Y-86622832D01*
X148319395Y-83030538D01*
X148260100Y-83328635D01*
X148260100Y-83671365D01*
X148326963Y-84007510D01*
X148458120Y-84324152D01*
X148648531Y-84609122D01*
X148691900Y-84652491D01*
X148691901Y-85295082D01*
X148616648Y-85435870D01*
X148517890Y-85761429D01*
X148492900Y-86015159D01*
X148492900Y-86377167D01*
X147178168Y-87691900D01*
X146652491Y-87691900D01*
X146609122Y-87648531D01*
X146324152Y-87458120D01*
X146007510Y-87326963D01*
X145671365Y-87260100D01*
X145328635Y-87260100D01*
X144992490Y-87326963D01*
X144675848Y-87458120D01*
X144390878Y-87648531D01*
X144148531Y-87890878D01*
X143958120Y-88175848D01*
X143826963Y-88492490D01*
X143760100Y-88828635D01*
X143760100Y-89171365D01*
X143826963Y-89507510D01*
X143958120Y-89824152D01*
X144148531Y-90109122D01*
X144390878Y-90351469D01*
X144675848Y-90541880D01*
X144992490Y-90673037D01*
X145328635Y-90739900D01*
X145671365Y-90739900D01*
X146007510Y-90673037D01*
X146324152Y-90541880D01*
X146609122Y-90351469D01*
X146652491Y-90308100D01*
X147655740Y-90308100D01*
X147720000Y-90314429D01*
X147784260Y-90308100D01*
X147938520Y-90292907D01*
X147976432Y-90289173D01*
X148223010Y-90214374D01*
X148450258Y-90092908D01*
X148649442Y-89929442D01*
X148690411Y-89879521D01*
X148911900Y-89658032D01*
X148911901Y-92591481D01*
X148777021Y-92755832D01*
X148616648Y-93055870D01*
X148517890Y-93381429D01*
X148492900Y-93635159D01*
X148492900Y-94604840D01*
X148517890Y-94858570D01*
X148616648Y-95184129D01*
X148777021Y-95484167D01*
X148992847Y-95747153D01*
X149255832Y-95962979D01*
X149555870Y-96123352D01*
X149881429Y-96222110D01*
X150220000Y-96255456D01*
X150558570Y-96222110D01*
X150862005Y-96130063D01*
X149318967Y-97673101D01*
X149104447Y-97673101D01*
X149173037Y-97507510D01*
X149239900Y-97171365D01*
X149239900Y-96828635D01*
X149173037Y-96492490D01*
X149041880Y-96175848D01*
X148851469Y-95890878D01*
X148609122Y-95648531D01*
X148324152Y-95458120D01*
X148007510Y-95326963D01*
X147671365Y-95260100D01*
X147610032Y-95260100D01*
X146650410Y-94300478D01*
X146609441Y-94250557D01*
X146410257Y-94087091D01*
X146183009Y-93965625D01*
X145936431Y-93890826D01*
X145744259Y-93871899D01*
X145679999Y-93865570D01*
X145615739Y-93871899D01*
X142158938Y-93871899D01*
X142030536Y-93561911D01*
X141841526Y-93279038D01*
X141600962Y-93038474D01*
X141318089Y-92849464D01*
X141003777Y-92719271D01*
X140670105Y-92652900D01*
X140329895Y-92652900D01*
X139996223Y-92719271D01*
X139681911Y-92849464D01*
X139399038Y-93038474D01*
X139365612Y-93071900D01*
X138134388Y-93071900D01*
X138100962Y-93038474D01*
X137818089Y-92849464D01*
X137503777Y-92719271D01*
X137170105Y-92652900D01*
X136829895Y-92652900D01*
X136496223Y-92719271D01*
X136181911Y-92849464D01*
X135899038Y-93038474D01*
X135658474Y-93279038D01*
X135469464Y-93561911D01*
X135339271Y-93876223D01*
X135272900Y-94209895D01*
X135272900Y-94497167D01*
X134308100Y-95461968D01*
X134308100Y-94851667D01*
X134330536Y-94818089D01*
X134460729Y-94503777D01*
X134527100Y-94170105D01*
X134527100Y-93829895D01*
X134460729Y-93496223D01*
X134330536Y-93181911D01*
X134141526Y-92899038D01*
X133900962Y-92658474D01*
X133618089Y-92469464D01*
X133303777Y-92339271D01*
X132970105Y-92272900D01*
X132922832Y-92272900D01*
X131802010Y-91152078D01*
X131761041Y-91102157D01*
X131561857Y-90938691D01*
X131334609Y-90817225D01*
X131088031Y-90742426D01*
X131062384Y-90739900D01*
X130831599Y-90717170D01*
X130767339Y-90723499D01*
X127573431Y-90723499D01*
X126727100Y-89877168D01*
X126727100Y-89829895D01*
X126660729Y-89496223D01*
X126530536Y-89181911D01*
X126341526Y-88899038D01*
X126100962Y-88658474D01*
X125818089Y-88469464D01*
X125503777Y-88339271D01*
X125170105Y-88272900D01*
X125122832Y-88272900D01*
X124988100Y-88138168D01*
X124988100Y-87634388D01*
X125021526Y-87600962D01*
X125210536Y-87318089D01*
X125340729Y-87003777D01*
X125407100Y-86670105D01*
X125407100Y-86329895D01*
X125340729Y-85996223D01*
X125210536Y-85681911D01*
X125021526Y-85399038D01*
X124852488Y-85230000D01*
X125021526Y-85060962D01*
X125210536Y-84778089D01*
X125340729Y-84463777D01*
X125407100Y-84130105D01*
X125407100Y-83789895D01*
X125340729Y-83456223D01*
X125210536Y-83141911D01*
X125021526Y-82859038D01*
X124852488Y-82690000D01*
X125021526Y-82520962D01*
X125210536Y-82238089D01*
X125340729Y-81923777D01*
X125407100Y-81590105D01*
X125407100Y-81249895D01*
X125340729Y-80916223D01*
X125210536Y-80601911D01*
X125021526Y-80319038D01*
X124780962Y-80078474D01*
X124498089Y-79889464D01*
X124183777Y-79759271D01*
X123850105Y-79692900D01*
X123509895Y-79692900D01*
X123176223Y-79759271D01*
X122861911Y-79889464D01*
X122579038Y-80078474D01*
X122338474Y-80319038D01*
X122155819Y-80592399D01*
X121960138Y-80487806D01*
X121713560Y-80413007D01*
X121521388Y-80394080D01*
X121457128Y-80387751D01*
X121392868Y-80394080D01*
X109939604Y-80394080D01*
X110147931Y-80185753D01*
X110197852Y-80144784D01*
X110250874Y-80080177D01*
X110504129Y-80003352D01*
X110804167Y-79842979D01*
X111067153Y-79627153D01*
X111110000Y-79574944D01*
X111152847Y-79627153D01*
X111415832Y-79842979D01*
X111715870Y-80003352D01*
X112041429Y-80102110D01*
X112380000Y-80135456D01*
X112718570Y-80102110D01*
X113044129Y-80003352D01*
X113344167Y-79842979D01*
X113607153Y-79627153D01*
X113822979Y-79364168D01*
X113983352Y-79064130D01*
X114082110Y-78738571D01*
X114107100Y-78484841D01*
X114107100Y-77515160D01*
X114082110Y-77261429D01*
X113983352Y-76935870D01*
X113915058Y-76808100D01*
X115924942Y-76808100D01*
X115856648Y-76935870D01*
X115757890Y-77261429D01*
X115732900Y-77515159D01*
X115732900Y-78484840D01*
X115757890Y-78738570D01*
X115856648Y-79064129D01*
X116017021Y-79364167D01*
X116232847Y-79627153D01*
X116495832Y-79842979D01*
X116795870Y-80003352D01*
X117121429Y-80102110D01*
X117460000Y-80135456D01*
X117798570Y-80102110D01*
X118124129Y-80003352D01*
X118424167Y-79842979D01*
X118687153Y-79627153D01*
X118902979Y-79364168D01*
X119063352Y-79064130D01*
X119162110Y-78738571D01*
X119187100Y-78484841D01*
X119187100Y-77515160D01*
X119162110Y-77261429D01*
X119063352Y-76935870D01*
X118995058Y-76808100D01*
X134751402Y-76808100D01*
X134810003Y-76866701D01*
X134561911Y-76969464D01*
X134279038Y-77158474D01*
X134038474Y-77399038D01*
X133922971Y-77571900D01*
X132434388Y-77571900D01*
X132400962Y-77538474D01*
X132118089Y-77349464D01*
X131803777Y-77219271D01*
X131470105Y-77152900D01*
X131129895Y-77152900D01*
X130796223Y-77219271D01*
X130481911Y-77349464D01*
X130199038Y-77538474D01*
X129958474Y-77779038D01*
X129769464Y-78061911D01*
X129639271Y-78376223D01*
X129572900Y-78709895D01*
X129572900Y-79050105D01*
X129639271Y-79383777D01*
X129769464Y-79698089D01*
X129958474Y-79980962D01*
X130090753Y-80113241D01*
X129912198Y-80130827D01*
X129665619Y-80205626D01*
X129524395Y-80281112D01*
X129438372Y-80327092D01*
X129239188Y-80490558D01*
X129198219Y-80540479D01*
X128452074Y-81286624D01*
X128402158Y-81327589D01*
X128298743Y-81453601D01*
X128238692Y-81526773D01*
X128117226Y-81754021D01*
X128042426Y-82000599D01*
X128017170Y-82257031D01*
X128023500Y-82321301D01*
X128023499Y-86029338D01*
X128017170Y-86093599D01*
X128042426Y-86350031D01*
X128045017Y-86358571D01*
X128117225Y-86596608D01*
X128238691Y-86823856D01*
X128402157Y-87023041D01*
X128452078Y-87064010D01*
X128767589Y-87379521D01*
X128808558Y-87429442D01*
X129007742Y-87592908D01*
X129182933Y-87686549D01*
X129234990Y-87714374D01*
X129481567Y-87789173D01*
X129722949Y-87812947D01*
X129725415Y-87817561D01*
X129841270Y-87958730D01*
X129982439Y-88074585D01*
X130143498Y-88160672D01*
X130318257Y-88213685D01*
X130500000Y-88231585D01*
X132100000Y-88231585D01*
X132281743Y-88213685D01*
X132456502Y-88160672D01*
X132617561Y-88074585D01*
X132758730Y-87958730D01*
X132874585Y-87817561D01*
X132879642Y-87808100D01*
X134245612Y-87808100D01*
X134279038Y-87841526D01*
X134561911Y-88030536D01*
X134876223Y-88160729D01*
X135209895Y-88227100D01*
X135550105Y-88227100D01*
X135883777Y-88160729D01*
X136000538Y-88112365D01*
X135958120Y-88175848D01*
X135826963Y-88492490D01*
X135760100Y-88828635D01*
X135760100Y-89171365D01*
X135826963Y-89507510D01*
X135958120Y-89824152D01*
X136148531Y-90109122D01*
X136390878Y-90351469D01*
X136675848Y-90541880D01*
X136992490Y-90673037D01*
X137328635Y-90739900D01*
X137671365Y-90739900D01*
X138007510Y-90673037D01*
X138324152Y-90541880D01*
X138609122Y-90351469D01*
X138851469Y-90109122D01*
X139041880Y-89824152D01*
X139173037Y-89507510D01*
X139239900Y-89171365D01*
X139239900Y-88828635D01*
X139173037Y-88492490D01*
X139041880Y-88175848D01*
X138851469Y-87890878D01*
X138808100Y-87847509D01*
X138808100Y-77771023D01*
X138814429Y-77706765D01*
X138801014Y-77570559D01*
X138789173Y-77450334D01*
X138714374Y-77203756D01*
X138592908Y-76976508D01*
X138429442Y-76777324D01*
X138379522Y-76736356D01*
X136357666Y-74714500D01*
X179873000Y-74714500D01*
X179873000Y-109785500D01*
X95714500Y-109785500D01*
X95714500Y-74714500D01*
X106773568Y-74714500D01*
X106420479Y-75067589D01*
G36*
X209285500Y-109785500D02*
G01*
X181627000Y-109785500D01*
X181627000Y-105300348D01*
X191972900Y-105300348D01*
X191972900Y-105699652D01*
X192050801Y-106091283D01*
X192203608Y-106460192D01*
X192425449Y-106792201D01*
X192707799Y-107074551D01*
X193039808Y-107296392D01*
X193408717Y-107449199D01*
X193800348Y-107527100D01*
X194199652Y-107527100D01*
X194591283Y-107449199D01*
X194960192Y-107296392D01*
X195292201Y-107074551D01*
X195574551Y-106792201D01*
X195796392Y-106460192D01*
X195949199Y-106091283D01*
X196027100Y-105699652D01*
X196027100Y-105300348D01*
X195949199Y-104908717D01*
X195796392Y-104539808D01*
X195574551Y-104207799D01*
X195292201Y-103925449D01*
X194960192Y-103703608D01*
X194591283Y-103550801D01*
X194199652Y-103472900D01*
X193800348Y-103472900D01*
X193408717Y-103550801D01*
X193039808Y-103703608D01*
X192707799Y-103925449D01*
X192425449Y-104207799D01*
X192203608Y-104539808D01*
X192050801Y-104908717D01*
X191972900Y-105300348D01*
X181627000Y-105300348D01*
X181627000Y-87325000D01*
X182870415Y-87325000D01*
X182870415Y-88595000D01*
X182888315Y-88776743D01*
X182941328Y-88951502D01*
X183027415Y-89112561D01*
X183123795Y-89230000D01*
X183027415Y-89347439D01*
X182941328Y-89508498D01*
X182888315Y-89683257D01*
X182870415Y-89865000D01*
X182870415Y-91135000D01*
X182888315Y-91316743D01*
X182941328Y-91491502D01*
X183027415Y-91652561D01*
X183123795Y-91770000D01*
X183027415Y-91887439D01*
X182941328Y-92048498D01*
X182888315Y-92223257D01*
X182870415Y-92405000D01*
X182870415Y-93675000D01*
X182888315Y-93856743D01*
X182941328Y-94031502D01*
X183027415Y-94192561D01*
X183143270Y-94333730D01*
X183284439Y-94449585D01*
X183445498Y-94535672D01*
X183620257Y-94588685D01*
X183802000Y-94606585D01*
X187358000Y-94606585D01*
X187539743Y-94588685D01*
X187714502Y-94535672D01*
X187875561Y-94449585D01*
X188016730Y-94333730D01*
X188132585Y-94192561D01*
X188218672Y-94031502D01*
X188271685Y-93856743D01*
X188276476Y-93808100D01*
X188365612Y-93808100D01*
X188399038Y-93841526D01*
X188681911Y-94030536D01*
X188996223Y-94160729D01*
X189329895Y-94227100D01*
X189670105Y-94227100D01*
X190003777Y-94160729D01*
X190318089Y-94030536D01*
X190600962Y-93841526D01*
X190841526Y-93600962D01*
X191030536Y-93318089D01*
X191160729Y-93003777D01*
X191227100Y-92670105D01*
X191227100Y-92329895D01*
X191160729Y-91996223D01*
X191030536Y-91681911D01*
X190841526Y-91399038D01*
X190600962Y-91158474D01*
X190318089Y-90969464D01*
X190003777Y-90839271D01*
X189670105Y-90772900D01*
X189329895Y-90772900D01*
X188996223Y-90839271D01*
X188681911Y-90969464D01*
X188399038Y-91158474D01*
X188365612Y-91191900D01*
X188283981Y-91191900D01*
X188289585Y-91135000D01*
X188289585Y-89865000D01*
X188271685Y-89683257D01*
X188218672Y-89508498D01*
X188132585Y-89347439D01*
X188067473Y-89268100D01*
X188325612Y-89268100D01*
X188399038Y-89341526D01*
X188681911Y-89530536D01*
X188996223Y-89660729D01*
X189329895Y-89727100D01*
X189670105Y-89727100D01*
X190003777Y-89660729D01*
X190318089Y-89530536D01*
X190600962Y-89341526D01*
X190841526Y-89100962D01*
X191030536Y-88818089D01*
X191160729Y-88503777D01*
X191227100Y-88170105D01*
X191227100Y-87829895D01*
X195392900Y-87829895D01*
X195392900Y-88170105D01*
X195459271Y-88503777D01*
X195589464Y-88818089D01*
X195778474Y-89100962D01*
X196019038Y-89341526D01*
X196301911Y-89530536D01*
X196616223Y-89660729D01*
X196949895Y-89727100D01*
X197290105Y-89727100D01*
X197623777Y-89660729D01*
X197938089Y-89530536D01*
X198220962Y-89341526D01*
X198254388Y-89308100D01*
X203118125Y-89308100D01*
X203287482Y-89477457D01*
X203599018Y-89685619D01*
X203945178Y-89829003D01*
X204312660Y-89902100D01*
X204687340Y-89902100D01*
X205054822Y-89829003D01*
X205335301Y-89712825D01*
X205335301Y-90314766D01*
X204552168Y-91097900D01*
X204312660Y-91097900D01*
X203945178Y-91170997D01*
X203599018Y-91314381D01*
X203287482Y-91522543D01*
X203118125Y-91691900D01*
X198654674Y-91691900D01*
X198650536Y-91681911D01*
X198461526Y-91399038D01*
X198220962Y-91158474D01*
X197938089Y-90969464D01*
X197623777Y-90839271D01*
X197290105Y-90772900D01*
X196949895Y-90772900D01*
X196616223Y-90839271D01*
X196301911Y-90969464D01*
X196019038Y-91158474D01*
X195778474Y-91399038D01*
X195589464Y-91681911D01*
X195459271Y-91996223D01*
X195392900Y-92329895D01*
X195392900Y-92670105D01*
X195459271Y-93003777D01*
X195589464Y-93318089D01*
X195778474Y-93600962D01*
X196019038Y-93841526D01*
X196301911Y-94030536D01*
X196616223Y-94160729D01*
X196949895Y-94227100D01*
X197158942Y-94227100D01*
X197363567Y-94289173D01*
X197620000Y-94314429D01*
X197684260Y-94308100D01*
X203118125Y-94308100D01*
X203287482Y-94477457D01*
X203599018Y-94685619D01*
X203945178Y-94829003D01*
X204312660Y-94902100D01*
X204687340Y-94902100D01*
X205054822Y-94829003D01*
X205400982Y-94685619D01*
X205712518Y-94477457D01*
X205977457Y-94212518D01*
X206185619Y-93900982D01*
X206329003Y-93554822D01*
X206402100Y-93187340D01*
X206402100Y-92947832D01*
X207522928Y-91827005D01*
X207572843Y-91786041D01*
X207736309Y-91586857D01*
X207815465Y-91438766D01*
X207857775Y-91359610D01*
X207932574Y-91113032D01*
X207957830Y-90856599D01*
X207951501Y-90792339D01*
X207951501Y-82095658D01*
X207957830Y-82031400D01*
X207947788Y-81929442D01*
X207932574Y-81774969D01*
X207857775Y-81528391D01*
X207736309Y-81301143D01*
X207572843Y-81101959D01*
X207522922Y-81060990D01*
X206582411Y-80120479D01*
X206541442Y-80070558D01*
X206342258Y-79907092D01*
X206115010Y-79785626D01*
X205868432Y-79710827D01*
X205676260Y-79691900D01*
X205655262Y-79689832D01*
X205624585Y-79632439D01*
X205508730Y-79491270D01*
X205469655Y-79459202D01*
X205574846Y-79301773D01*
X205708807Y-78978361D01*
X205777100Y-78635029D01*
X205777100Y-78284971D01*
X205708807Y-77941639D01*
X205574846Y-77618227D01*
X205380364Y-77327165D01*
X205132835Y-77079636D01*
X204841773Y-76885154D01*
X204518361Y-76751193D01*
X204175029Y-76682900D01*
X203824971Y-76682900D01*
X203481639Y-76751193D01*
X203158227Y-76885154D01*
X202867165Y-77079636D01*
X202795460Y-77151341D01*
X202736878Y-77145571D01*
X202480445Y-77170827D01*
X202233867Y-77245626D01*
X202112401Y-77310551D01*
X202006620Y-77367092D01*
X201807436Y-77530558D01*
X201766467Y-77580479D01*
X201102074Y-78244872D01*
X201052158Y-78285837D01*
X201011194Y-78335752D01*
X200888692Y-78485021D01*
X200767226Y-78712269D01*
X200692426Y-78958847D01*
X200667170Y-79215279D01*
X200673500Y-79279549D01*
X200673499Y-85417338D01*
X200667170Y-85481599D01*
X200673499Y-85545858D01*
X200692426Y-85738030D01*
X200767225Y-85984608D01*
X200888691Y-86211856D01*
X201052157Y-86411041D01*
X201102078Y-86452010D01*
X201341968Y-86691900D01*
X198254388Y-86691900D01*
X198220962Y-86658474D01*
X197938089Y-86469464D01*
X197623777Y-86339271D01*
X197290105Y-86272900D01*
X196949895Y-86272900D01*
X196616223Y-86339271D01*
X196301911Y-86469464D01*
X196019038Y-86658474D01*
X195778474Y-86899038D01*
X195589464Y-87181911D01*
X195459271Y-87496223D01*
X195392900Y-87829895D01*
X191227100Y-87829895D01*
X191160729Y-87496223D01*
X191030536Y-87181911D01*
X190841526Y-86899038D01*
X190600962Y-86658474D01*
X190318089Y-86469464D01*
X190003777Y-86339271D01*
X189670105Y-86272900D01*
X189329895Y-86272900D01*
X188996223Y-86339271D01*
X188681911Y-86469464D01*
X188408877Y-86651900D01*
X187999220Y-86651900D01*
X187875561Y-86550415D01*
X187714502Y-86464328D01*
X187539743Y-86411315D01*
X187358000Y-86393415D01*
X183802000Y-86393415D01*
X183620257Y-86411315D01*
X183445498Y-86464328D01*
X183284439Y-86550415D01*
X183143270Y-86666270D01*
X183027415Y-86807439D01*
X182941328Y-86968498D01*
X182888315Y-87143257D01*
X182870415Y-87325000D01*
X181627000Y-87325000D01*
X181627000Y-76800348D01*
X191972900Y-76800348D01*
X191972900Y-77199652D01*
X192050801Y-77591283D01*
X192203608Y-77960192D01*
X192425449Y-78292201D01*
X192707799Y-78574551D01*
X193039808Y-78796392D01*
X193408717Y-78949199D01*
X193800348Y-79027100D01*
X194199652Y-79027100D01*
X194591283Y-78949199D01*
X194960192Y-78796392D01*
X195292201Y-78574551D01*
X195574551Y-78292201D01*
X195796392Y-77960192D01*
X195949199Y-77591283D01*
X196027100Y-77199652D01*
X196027100Y-76800348D01*
X195949199Y-76408717D01*
X195796392Y-76039808D01*
X195574551Y-75707799D01*
X195292201Y-75425449D01*
X194960192Y-75203608D01*
X194591283Y-75050801D01*
X194199652Y-74972900D01*
X193800348Y-74972900D01*
X193408717Y-75050801D01*
X193039808Y-75203608D01*
X192707799Y-75425449D01*
X192425449Y-75707799D01*
X192203608Y-76039808D01*
X192050801Y-76408717D01*
X191972900Y-76800348D01*
X181627000Y-76800348D01*
X181627000Y-74714500D01*
X209285501Y-74714500D01*
X209285500Y-109785500D01*
G37*
X209285500Y-109785500D02*
X181627000Y-109785500D01*
X181627000Y-105300348D01*
X191972900Y-105300348D01*
X191972900Y-105699652D01*
X192050801Y-106091283D01*
X192203608Y-106460192D01*
X192425449Y-106792201D01*
X192707799Y-107074551D01*
X193039808Y-107296392D01*
X193408717Y-107449199D01*
X193800348Y-107527100D01*
X194199652Y-107527100D01*
X194591283Y-107449199D01*
X194960192Y-107296392D01*
X195292201Y-107074551D01*
X195574551Y-106792201D01*
X195796392Y-106460192D01*
X195949199Y-106091283D01*
X196027100Y-105699652D01*
X196027100Y-105300348D01*
X195949199Y-104908717D01*
X195796392Y-104539808D01*
X195574551Y-104207799D01*
X195292201Y-103925449D01*
X194960192Y-103703608D01*
X194591283Y-103550801D01*
X194199652Y-103472900D01*
X193800348Y-103472900D01*
X193408717Y-103550801D01*
X193039808Y-103703608D01*
X192707799Y-103925449D01*
X192425449Y-104207799D01*
X192203608Y-104539808D01*
X192050801Y-104908717D01*
X191972900Y-105300348D01*
X181627000Y-105300348D01*
X181627000Y-87325000D01*
X182870415Y-87325000D01*
X182870415Y-88595000D01*
X182888315Y-88776743D01*
X182941328Y-88951502D01*
X183027415Y-89112561D01*
X183123795Y-89230000D01*
X183027415Y-89347439D01*
X182941328Y-89508498D01*
X182888315Y-89683257D01*
X182870415Y-89865000D01*
X182870415Y-91135000D01*
X182888315Y-91316743D01*
X182941328Y-91491502D01*
X183027415Y-91652561D01*
X183123795Y-91770000D01*
X183027415Y-91887439D01*
X182941328Y-92048498D01*
X182888315Y-92223257D01*
X182870415Y-92405000D01*
X182870415Y-93675000D01*
X182888315Y-93856743D01*
X182941328Y-94031502D01*
X183027415Y-94192561D01*
X183143270Y-94333730D01*
X183284439Y-94449585D01*
X183445498Y-94535672D01*
X183620257Y-94588685D01*
X183802000Y-94606585D01*
X187358000Y-94606585D01*
X187539743Y-94588685D01*
X187714502Y-94535672D01*
X187875561Y-94449585D01*
X188016730Y-94333730D01*
X188132585Y-94192561D01*
X188218672Y-94031502D01*
X188271685Y-93856743D01*
X188276476Y-93808100D01*
X188365612Y-93808100D01*
X188399038Y-93841526D01*
X188681911Y-94030536D01*
X188996223Y-94160729D01*
X189329895Y-94227100D01*
X189670105Y-94227100D01*
X190003777Y-94160729D01*
X190318089Y-94030536D01*
X190600962Y-93841526D01*
X190841526Y-93600962D01*
X191030536Y-93318089D01*
X191160729Y-93003777D01*
X191227100Y-92670105D01*
X191227100Y-92329895D01*
X191160729Y-91996223D01*
X191030536Y-91681911D01*
X190841526Y-91399038D01*
X190600962Y-91158474D01*
X190318089Y-90969464D01*
X190003777Y-90839271D01*
X189670105Y-90772900D01*
X189329895Y-90772900D01*
X188996223Y-90839271D01*
X188681911Y-90969464D01*
X188399038Y-91158474D01*
X188365612Y-91191900D01*
X188283981Y-91191900D01*
X188289585Y-91135000D01*
X188289585Y-89865000D01*
X188271685Y-89683257D01*
X188218672Y-89508498D01*
X188132585Y-89347439D01*
X188067473Y-89268100D01*
X188325612Y-89268100D01*
X188399038Y-89341526D01*
X188681911Y-89530536D01*
X188996223Y-89660729D01*
X189329895Y-89727100D01*
X189670105Y-89727100D01*
X190003777Y-89660729D01*
X190318089Y-89530536D01*
X190600962Y-89341526D01*
X190841526Y-89100962D01*
X191030536Y-88818089D01*
X191160729Y-88503777D01*
X191227100Y-88170105D01*
X191227100Y-87829895D01*
X195392900Y-87829895D01*
X195392900Y-88170105D01*
X195459271Y-88503777D01*
X195589464Y-88818089D01*
X195778474Y-89100962D01*
X196019038Y-89341526D01*
X196301911Y-89530536D01*
X196616223Y-89660729D01*
X196949895Y-89727100D01*
X197290105Y-89727100D01*
X197623777Y-89660729D01*
X197938089Y-89530536D01*
X198220962Y-89341526D01*
X198254388Y-89308100D01*
X203118125Y-89308100D01*
X203287482Y-89477457D01*
X203599018Y-89685619D01*
X203945178Y-89829003D01*
X204312660Y-89902100D01*
X204687340Y-89902100D01*
X205054822Y-89829003D01*
X205335301Y-89712825D01*
X205335301Y-90314766D01*
X204552168Y-91097900D01*
X204312660Y-91097900D01*
X203945178Y-91170997D01*
X203599018Y-91314381D01*
X203287482Y-91522543D01*
X203118125Y-91691900D01*
X198654674Y-91691900D01*
X198650536Y-91681911D01*
X198461526Y-91399038D01*
X198220962Y-91158474D01*
X197938089Y-90969464D01*
X197623777Y-90839271D01*
X197290105Y-90772900D01*
X196949895Y-90772900D01*
X196616223Y-90839271D01*
X196301911Y-90969464D01*
X196019038Y-91158474D01*
X195778474Y-91399038D01*
X195589464Y-91681911D01*
X195459271Y-91996223D01*
X195392900Y-92329895D01*
X195392900Y-92670105D01*
X195459271Y-93003777D01*
X195589464Y-93318089D01*
X195778474Y-93600962D01*
X196019038Y-93841526D01*
X196301911Y-94030536D01*
X196616223Y-94160729D01*
X196949895Y-94227100D01*
X197158942Y-94227100D01*
X197363567Y-94289173D01*
X197620000Y-94314429D01*
X197684260Y-94308100D01*
X203118125Y-94308100D01*
X203287482Y-94477457D01*
X203599018Y-94685619D01*
X203945178Y-94829003D01*
X204312660Y-94902100D01*
X204687340Y-94902100D01*
X205054822Y-94829003D01*
X205400982Y-94685619D01*
X205712518Y-94477457D01*
X205977457Y-94212518D01*
X206185619Y-93900982D01*
X206329003Y-93554822D01*
X206402100Y-93187340D01*
X206402100Y-92947832D01*
X207522928Y-91827005D01*
X207572843Y-91786041D01*
X207736309Y-91586857D01*
X207815465Y-91438766D01*
X207857775Y-91359610D01*
X207932574Y-91113032D01*
X207957830Y-90856599D01*
X207951501Y-90792339D01*
X207951501Y-82095658D01*
X207957830Y-82031400D01*
X207947788Y-81929442D01*
X207932574Y-81774969D01*
X207857775Y-81528391D01*
X207736309Y-81301143D01*
X207572843Y-81101959D01*
X207522922Y-81060990D01*
X206582411Y-80120479D01*
X206541442Y-80070558D01*
X206342258Y-79907092D01*
X206115010Y-79785626D01*
X205868432Y-79710827D01*
X205676260Y-79691900D01*
X205655262Y-79689832D01*
X205624585Y-79632439D01*
X205508730Y-79491270D01*
X205469655Y-79459202D01*
X205574846Y-79301773D01*
X205708807Y-78978361D01*
X205777100Y-78635029D01*
X205777100Y-78284971D01*
X205708807Y-77941639D01*
X205574846Y-77618227D01*
X205380364Y-77327165D01*
X205132835Y-77079636D01*
X204841773Y-76885154D01*
X204518361Y-76751193D01*
X204175029Y-76682900D01*
X203824971Y-76682900D01*
X203481639Y-76751193D01*
X203158227Y-76885154D01*
X202867165Y-77079636D01*
X202795460Y-77151341D01*
X202736878Y-77145571D01*
X202480445Y-77170827D01*
X202233867Y-77245626D01*
X202112401Y-77310551D01*
X202006620Y-77367092D01*
X201807436Y-77530558D01*
X201766467Y-77580479D01*
X201102074Y-78244872D01*
X201052158Y-78285837D01*
X201011194Y-78335752D01*
X200888692Y-78485021D01*
X200767226Y-78712269D01*
X200692426Y-78958847D01*
X200667170Y-79215279D01*
X200673500Y-79279549D01*
X200673499Y-85417338D01*
X200667170Y-85481599D01*
X200673499Y-85545858D01*
X200692426Y-85738030D01*
X200767225Y-85984608D01*
X200888691Y-86211856D01*
X201052157Y-86411041D01*
X201102078Y-86452010D01*
X201341968Y-86691900D01*
X198254388Y-86691900D01*
X198220962Y-86658474D01*
X197938089Y-86469464D01*
X197623777Y-86339271D01*
X197290105Y-86272900D01*
X196949895Y-86272900D01*
X196616223Y-86339271D01*
X196301911Y-86469464D01*
X196019038Y-86658474D01*
X195778474Y-86899038D01*
X195589464Y-87181911D01*
X195459271Y-87496223D01*
X195392900Y-87829895D01*
X191227100Y-87829895D01*
X191160729Y-87496223D01*
X191030536Y-87181911D01*
X190841526Y-86899038D01*
X190600962Y-86658474D01*
X190318089Y-86469464D01*
X190003777Y-86339271D01*
X189670105Y-86272900D01*
X189329895Y-86272900D01*
X188996223Y-86339271D01*
X188681911Y-86469464D01*
X188408877Y-86651900D01*
X187999220Y-86651900D01*
X187875561Y-86550415D01*
X187714502Y-86464328D01*
X187539743Y-86411315D01*
X187358000Y-86393415D01*
X183802000Y-86393415D01*
X183620257Y-86411315D01*
X183445498Y-86464328D01*
X183284439Y-86550415D01*
X183143270Y-86666270D01*
X183027415Y-86807439D01*
X182941328Y-86968498D01*
X182888315Y-87143257D01*
X182870415Y-87325000D01*
X181627000Y-87325000D01*
X181627000Y-76800348D01*
X191972900Y-76800348D01*
X191972900Y-77199652D01*
X192050801Y-77591283D01*
X192203608Y-77960192D01*
X192425449Y-78292201D01*
X192707799Y-78574551D01*
X193039808Y-78796392D01*
X193408717Y-78949199D01*
X193800348Y-79027100D01*
X194199652Y-79027100D01*
X194591283Y-78949199D01*
X194960192Y-78796392D01*
X195292201Y-78574551D01*
X195574551Y-78292201D01*
X195796392Y-77960192D01*
X195949199Y-77591283D01*
X196027100Y-77199652D01*
X196027100Y-76800348D01*
X195949199Y-76408717D01*
X195796392Y-76039808D01*
X195574551Y-75707799D01*
X195292201Y-75425449D01*
X194960192Y-75203608D01*
X194591283Y-75050801D01*
X194199652Y-74972900D01*
X193800348Y-74972900D01*
X193408717Y-75050801D01*
X193039808Y-75203608D01*
X192707799Y-75425449D01*
X192425449Y-75707799D01*
X192203608Y-76039808D01*
X192050801Y-76408717D01*
X191972900Y-76800348D01*
X181627000Y-76800348D01*
X181627000Y-74714500D01*
X209285501Y-74714500D01*
X209285500Y-109785500D01*
M02*
