M48
; DRILL file {KiCad 5.1.5+dfsg1-2build2} date Wed 08 Dec 2021 05:39:49 PM EST
; FORMAT={-:-/ absolute / metric / decimal}
; #@! TF.CreationDate,2021-12-08T17:39:49-05:00
; #@! TF.GenerationSoftware,Kicad,Pcbnew,5.1.5+dfsg1-2build2
FMAT,2
METRIC
T1C0.760
T2C0.787
T3C0.800
T4C1.000
T5C1.200
T6C1.300
T7C2.200
%
G90
G05
T1
X109.5Y-105.0
X112.04Y-105.0
X114.58Y-105.0
X117.12Y-105.0
T2
X137.5Y-89.0
X145.5Y-89.0
X147.5Y-97.0
X150.0Y-83.5
X158.0Y-97.0
X159.001Y-89.001
X164.5Y-91.5
X168.0Y-83.5
X171.0Y-89.0
X171.0Y-91.5
T3
X135.38Y-78.5
X143.0Y-78.5
X135.38Y-86.5
X143.0Y-86.5
X102.5Y-102.5
X102.5Y-105.0
X123.68Y-78.88
X123.68Y-81.42
X123.68Y-83.96
X123.68Y-86.5
X131.3Y-78.88
X131.3Y-81.42
X131.3Y-83.96
X131.3Y-86.5
X178.0Y-78.0
X183.0Y-78.0
X114.88Y-93.5
X122.5Y-93.5
X150.22Y-86.5
X150.22Y-94.12
X152.76Y-86.5
X152.76Y-94.12
X155.3Y-86.5
X155.3Y-94.12
X157.84Y-86.5
X157.84Y-94.12
X160.38Y-86.5
X160.38Y-94.12
X162.92Y-86.5
X162.92Y-94.12
X165.46Y-86.5
X165.46Y-94.12
X168.0Y-86.5
X168.0Y-94.12
X144.0Y-100.0
X144.0Y-105.0
X189.5Y-92.5
X197.12Y-92.5
X189.5Y-88.0
X197.12Y-88.0
X104.76Y-78.0
X104.76Y-85.62
X107.3Y-78.0
X107.3Y-85.62
X109.84Y-78.0
X109.84Y-85.62
X112.38Y-78.0
X112.38Y-85.62
X114.92Y-78.0
X114.92Y-85.62
X117.46Y-78.0
X117.46Y-85.62
X120.0Y-78.0
X120.0Y-85.62
X144.0Y-92.5
X144.0Y-97.5
X127.8Y-94.0
X132.8Y-94.0
X116.0Y-89.0
X121.0Y-89.0
X160.5Y-97.0
X160.5Y-102.0
X111.5Y-88.5
X111.5Y-96.12
X106.5Y-88.5
X106.5Y-96.12
X137.0Y-94.38
X137.0Y-102.0
X140.5Y-94.38
X140.5Y-102.0
X126.5Y-97.5
X126.5Y-100.04
X126.5Y-102.58
X126.5Y-105.12
X134.12Y-97.5
X134.12Y-100.04
X134.12Y-102.58
X134.12Y-105.12
X114.88Y-97.0
X122.5Y-97.0
X125.0Y-90.0
X130.0Y-90.0
T4
X204.0Y-78.46
X204.0Y-81.0
X98.46Y-85.8
X98.46Y-88.34
X98.46Y-90.88
X98.46Y-93.42
X98.46Y-95.96
X98.46Y-98.5
X101.0Y-85.8
X101.0Y-88.34
X101.0Y-90.88
X101.0Y-93.42
X101.0Y-95.96
X101.0Y-98.5
T5
X204.5Y-101.0
X204.5Y-103.54
T6
X204.5Y-88.0
X204.5Y-93.0
T7
X194.0Y-77.0
X194.0Y-105.5
T0
M30
