M48
; DRILL file {KiCad 5.1.5+dfsg1-2build2} date Tue 03 Aug 2021 02:14:30 PM EDT
; FORMAT={-:-/ absolute / metric / decimal}
; #@! TF.CreationDate,2021-08-03T14:14:30-04:00
; #@! TF.GenerationSoftware,Kicad,Pcbnew,5.1.5+dfsg1-2build2
FMAT,2
METRIC
T1C0.760
T2C0.800
T3C1.000
T4C1.200
T5C1.300
T6C2.200
%
G90
G05
T1
X109.5Y-105.0
X112.04Y-105.0
X114.58Y-105.0
X117.12Y-105.0
T2
X126.5Y-97.5
X126.5Y-100.04
X126.5Y-102.58
X126.5Y-105.12
X134.12Y-97.5
X134.12Y-100.04
X134.12Y-102.58
X134.12Y-105.12
X162.5Y-83.0
X170.12Y-83.0
X150.5Y-79.0
X155.5Y-79.0
X144.0Y-100.0
X144.0Y-105.0
X104.76Y-78.0
X104.76Y-85.62
X107.3Y-78.0
X107.3Y-85.62
X109.84Y-78.0
X109.84Y-85.62
X112.38Y-78.0
X112.38Y-85.62
X114.92Y-78.0
X114.92Y-85.62
X117.46Y-78.0
X117.46Y-85.62
X120.0Y-78.0
X120.0Y-85.62
X144.0Y-92.5
X144.0Y-97.5
X102.5Y-102.5
X102.5Y-105.0
X140.5Y-94.38
X140.5Y-102.0
X114.88Y-97.0
X122.5Y-97.0
X116.0Y-89.0
X121.0Y-89.0
X137.0Y-94.38
X137.0Y-102.0
X111.5Y-88.5
X111.5Y-96.12
X114.88Y-93.5
X122.5Y-93.5
X127.8Y-94.0
X132.8Y-94.0
X162.5Y-87.5
X170.12Y-87.5
X125.0Y-90.0
X130.0Y-90.0
X135.38Y-78.5
X143.0Y-78.5
X123.68Y-78.88
X123.68Y-81.42
X123.68Y-83.96
X123.68Y-86.5
X131.3Y-78.88
X131.3Y-81.42
X131.3Y-83.96
X131.3Y-86.5
X162.5Y-101.5
X170.12Y-101.5
X135.38Y-86.5
X143.0Y-86.5
X106.5Y-88.5
X106.5Y-96.12
X162.5Y-97.0
X170.12Y-97.0
T3
X98.46Y-85.8
X98.46Y-88.34
X98.46Y-90.88
X98.46Y-93.42
X98.46Y-95.96
X98.46Y-98.5
X101.0Y-85.8
X101.0Y-88.34
X101.0Y-90.88
X101.0Y-93.42
X101.0Y-95.96
X101.0Y-98.5
X167.5Y-90.96
X167.5Y-93.5
T4
X162.0Y-91.0
X162.0Y-93.54
T5
X177.5Y-96.5
X177.5Y-101.5
X177.5Y-83.0
X177.5Y-88.0
T6
X166.5Y-106.5
X166.5Y-78.0
T0
M30
