G04 #@! TF.GenerationSoftware,KiCad,Pcbnew,5.1.5+dfsg1-2build2*
G04 #@! TF.CreationDate,2021-06-18T08:03:47-04:00*
G04 #@! TF.ProjectId,pmod_1553,706d6f64-5f31-4353-9533-2e6b69636164,rev?*
G04 #@! TF.SameCoordinates,Original*
G04 #@! TF.FileFunction,Copper,L2,Bot*
G04 #@! TF.FilePolarity,Positive*
%FSLAX46Y46*%
G04 Gerber Fmt 4.6, Leading zero omitted, Abs format (unit mm)*
G04 Created by KiCad (PCBNEW 5.1.5+dfsg1-2build2) date 2021-06-18 08:03:47*
%MOMM*%
%LPD*%
G04 APERTURE LIST*
%ADD10R,1.700000X1.700000*%
%ADD11C,1.600000*%
%ADD12O,2.200000X2.200000*%
%ADD13R,2.200000X2.200000*%
%ADD14O,1.600000X1.600000*%
%ADD15C,1.303000*%
%ADD16R,1.600000X1.600000*%
%ADD17C,1.950000*%
%ADD18R,3.556000X1.270000*%
%ADD19O,1.700000X1.700000*%
%ADD20C,0.762000*%
%ADD21C,0.254000*%
G04 APERTURE END LIST*
D10*
X166500000Y-92000000D03*
D11*
X150500000Y-78000000D03*
X155500000Y-78000000D03*
D12*
X140270000Y-85500000D03*
D13*
X130110000Y-85500000D03*
D12*
X140270000Y-82000000D03*
D13*
X130110000Y-82000000D03*
D11*
X126000000Y-90000000D03*
X121000000Y-90000000D03*
X132800000Y-94000000D03*
X127800000Y-94000000D03*
X144000000Y-90000000D03*
X144000000Y-85000000D03*
X144000000Y-82500000D03*
X144000000Y-77500000D03*
X144000000Y-105000000D03*
X144000000Y-100000000D03*
X144000000Y-97500000D03*
X144000000Y-92500000D03*
D14*
X137000000Y-102000000D03*
D11*
X137000000Y-94380000D03*
D14*
X140500000Y-94380000D03*
D11*
X140500000Y-102000000D03*
D14*
X116500000Y-81880000D03*
D11*
X116500000Y-89500000D03*
D14*
X113000000Y-89620000D03*
D11*
X113000000Y-82000000D03*
D15*
X122120000Y-105000000D03*
X119580000Y-105000000D03*
X117040000Y-105000000D03*
X114500000Y-105000000D03*
D11*
X107500000Y-106000000D03*
D16*
X107500000Y-103500000D03*
D17*
X177500000Y-83000000D03*
X177500000Y-88000000D03*
X177500000Y-96500000D03*
X177500000Y-101500000D03*
D18*
X147785000Y-88040000D03*
X147785000Y-85500000D03*
X147785000Y-82960000D03*
X158580000Y-88040000D03*
X158580000Y-85500000D03*
X158580000Y-82960000D03*
X147785000Y-101540000D03*
X147785000Y-99000000D03*
X147785000Y-96460000D03*
X158580000Y-101540000D03*
X158580000Y-99000000D03*
X158580000Y-96460000D03*
D19*
X106960000Y-85800000D03*
X109500000Y-85800000D03*
X106960000Y-88340000D03*
X109500000Y-88340000D03*
X106960000Y-90880000D03*
X109500000Y-90880000D03*
X106960000Y-93420000D03*
X109500000Y-93420000D03*
X106960000Y-95960000D03*
X109500000Y-95960000D03*
X106960000Y-98500000D03*
D10*
X109500000Y-98500000D03*
D14*
X119680000Y-86500000D03*
X127300000Y-78880000D03*
X119680000Y-83960000D03*
X127300000Y-81420000D03*
X119680000Y-81420000D03*
X127300000Y-83960000D03*
X119680000Y-78880000D03*
D16*
X127300000Y-86500000D03*
D14*
X134120000Y-97500000D03*
X126500000Y-105120000D03*
X134120000Y-100040000D03*
X126500000Y-102580000D03*
X134120000Y-102580000D03*
X126500000Y-100040000D03*
X134120000Y-105120000D03*
D16*
X126500000Y-97500000D03*
D14*
X162500000Y-88000000D03*
D11*
X170120000Y-88000000D03*
D14*
X162500000Y-83000000D03*
D11*
X170120000Y-83000000D03*
D14*
X170120000Y-101500000D03*
D11*
X162500000Y-101500000D03*
D14*
X162500000Y-96500000D03*
D11*
X170120000Y-96500000D03*
D14*
X131380000Y-89000000D03*
D11*
X139000000Y-89000000D03*
D14*
X131380000Y-78500000D03*
D11*
X139000000Y-78500000D03*
D14*
X114880000Y-93500000D03*
D11*
X122500000Y-93500000D03*
D14*
X114880000Y-97000000D03*
D11*
X122500000Y-97000000D03*
D20*
X109000000Y-99000000D02*
X109500000Y-98500000D01*
X109500000Y-98500000D02*
X106960000Y-98500000D01*
X107500000Y-100500000D02*
X109500000Y-98500000D01*
X107500000Y-103500000D02*
X107500000Y-100500000D01*
X109062000Y-103500000D02*
X110562000Y-102000000D01*
X107500000Y-103500000D02*
X109062000Y-103500000D01*
X117040000Y-104078640D02*
X117040000Y-105000000D01*
X117040000Y-103406348D02*
X117040000Y-104078640D01*
X115633652Y-102000000D02*
X117040000Y-103406348D01*
X110562000Y-102000000D02*
X115633652Y-102000000D01*
X117299999Y-104740001D02*
X117040000Y-105000000D01*
X117299999Y-90299999D02*
X117299999Y-104740001D01*
X116500000Y-89500000D02*
X117299999Y-90299999D01*
X113120000Y-89500000D02*
X113000000Y-89620000D01*
X116500000Y-89500000D02*
X113120000Y-89500000D01*
X140500000Y-100868630D02*
X140500000Y-102000000D01*
X140500000Y-99868630D02*
X140500000Y-100868630D01*
X142868630Y-97500000D02*
X140500000Y-99868630D01*
X144000000Y-97500000D02*
X142868630Y-97500000D01*
X145040000Y-96460000D02*
X144000000Y-97500000D01*
X147785000Y-96460000D02*
X145040000Y-96460000D01*
X135251370Y-100040000D02*
X134120000Y-100040000D01*
X135259771Y-100031599D02*
X135251370Y-100040000D01*
X138531599Y-100031599D02*
X135259771Y-100031599D01*
X140500000Y-102000000D02*
X138531599Y-100031599D01*
X134120000Y-102580000D02*
X134460000Y-102580000D01*
X134540000Y-103000000D02*
X134120000Y-102580000D01*
X137799999Y-102919999D02*
X137000000Y-102120000D01*
X138848401Y-103968401D02*
X137799999Y-102919999D01*
X141444833Y-103968401D02*
X138848401Y-103968401D01*
X144000000Y-101413234D02*
X141444833Y-103968401D01*
X144000000Y-100000000D02*
X144000000Y-101413234D01*
X134580000Y-102120000D02*
X134120000Y-102580000D01*
X137000000Y-102120000D02*
X134580000Y-102120000D01*
X145540000Y-101540000D02*
X147785000Y-101540000D01*
X144000000Y-100000000D02*
X145540000Y-101540000D01*
X144460000Y-82960000D02*
X144000000Y-82500000D01*
X147785000Y-82960000D02*
X144460000Y-82960000D01*
X140000000Y-78500000D02*
X139000000Y-78500000D01*
X144000000Y-82500000D02*
X140000000Y-78500000D01*
X144000000Y-86131370D02*
X144000000Y-85000000D01*
X144000000Y-86795000D02*
X144000000Y-86131370D01*
X145245000Y-88040000D02*
X144000000Y-86795000D01*
X147785000Y-88040000D02*
X145245000Y-88040000D01*
X140000000Y-89000000D02*
X139000000Y-89000000D01*
X144000000Y-85000000D02*
X140000000Y-89000000D01*
X110702081Y-90880000D02*
X109500000Y-90880000D01*
X111692671Y-91870590D02*
X110702081Y-90880000D01*
X113250590Y-91870590D02*
X114880000Y-93500000D01*
X111692671Y-91870590D02*
X113250590Y-91870590D01*
X161880000Y-88040000D02*
X161920000Y-88000000D01*
X157850000Y-88040000D02*
X161880000Y-88040000D01*
X161880000Y-82960000D02*
X161920000Y-83000000D01*
X157850000Y-82960000D02*
X161880000Y-82960000D01*
X111300000Y-93420000D02*
X109500000Y-93420000D01*
X114880000Y-97000000D02*
X111300000Y-93420000D01*
X109500000Y-85500000D02*
X113000000Y-82000000D01*
X109500000Y-85800000D02*
X109500000Y-85500000D01*
X113799999Y-81200001D02*
X113000000Y-82000000D01*
X115088401Y-79911599D02*
X113799999Y-81200001D01*
X117444833Y-79911599D02*
X115088401Y-79911599D01*
X118953234Y-81420000D02*
X117444833Y-79911599D01*
X119680000Y-81420000D02*
X118953234Y-81420000D01*
X110040000Y-88340000D02*
X109500000Y-88340000D01*
X116500000Y-81880000D02*
X110040000Y-88340000D01*
X118580000Y-83960000D02*
X119680000Y-83960000D01*
X116500000Y-81880000D02*
X118580000Y-83960000D01*
X162000000Y-101540000D02*
X162040000Y-101500000D01*
X162460000Y-101540000D02*
X162500000Y-101500000D01*
X158580000Y-101540000D02*
X162460000Y-101540000D01*
X158120000Y-96500000D02*
X158080000Y-96460000D01*
X162340000Y-96460000D02*
X162380000Y-96500000D01*
X158580000Y-96460000D02*
X162340000Y-96460000D01*
X122500000Y-98131370D02*
X122500000Y-97000000D01*
X122500000Y-102251370D02*
X122500000Y-98131370D01*
X125368630Y-105120000D02*
X122500000Y-102251370D01*
X126500000Y-105120000D02*
X125368630Y-105120000D01*
X126500000Y-97500000D02*
X122500000Y-93500000D01*
X170000000Y-96500000D02*
X177500000Y-96500000D01*
X170120000Y-101500000D02*
X177500000Y-101500000D01*
X177500000Y-83000000D02*
X170000000Y-83000000D01*
X170000000Y-88000000D02*
X177500000Y-88000000D01*
X131031599Y-92031599D02*
X132200001Y-93200001D01*
X132200001Y-93200001D02*
X133000000Y-94000000D01*
X124618365Y-92031599D02*
X131031599Y-92031599D01*
X122586766Y-90000000D02*
X124618365Y-92031599D01*
X120500000Y-90000000D02*
X122586766Y-90000000D01*
X122120000Y-104078640D02*
X122120000Y-105000000D01*
X119700001Y-101658641D02*
X122120000Y-104078640D01*
X119700001Y-90799999D02*
X119700001Y-101658641D01*
X120500000Y-90000000D02*
X119700001Y-90799999D01*
X137120000Y-94380000D02*
X137000000Y-94500000D01*
X140500000Y-94380000D02*
X137120000Y-94380000D01*
X137000000Y-94620000D02*
X134120000Y-97500000D01*
X137000000Y-94500000D02*
X137000000Y-94620000D01*
X133000000Y-96380000D02*
X134120000Y-97500000D01*
X133000000Y-94000000D02*
X133000000Y-96380000D01*
X119680000Y-88680000D02*
X121000000Y-90000000D01*
X119680000Y-86500000D02*
X119680000Y-88680000D01*
X130110000Y-79770000D02*
X131380000Y-78500000D01*
X130110000Y-82000000D02*
X130110000Y-79770000D01*
X127680000Y-78500000D02*
X127300000Y-78880000D01*
X131380000Y-78500000D02*
X127680000Y-78500000D01*
X129110000Y-86500000D02*
X130110000Y-85500000D01*
X127300000Y-86500000D02*
X129110000Y-86500000D01*
X130110000Y-87730000D02*
X131380000Y-89000000D01*
X130110000Y-85500000D02*
X130110000Y-87730000D01*
D21*
G36*
X151873000Y-108522900D02*
G01*
X103977100Y-108522900D01*
X103977100Y-85624971D01*
X105182900Y-85624971D01*
X105182900Y-85975029D01*
X105251193Y-86318361D01*
X105385154Y-86641773D01*
X105579636Y-86932835D01*
X105716801Y-87070000D01*
X105579636Y-87207165D01*
X105385154Y-87498227D01*
X105251193Y-87821639D01*
X105182900Y-88164971D01*
X105182900Y-88515029D01*
X105251193Y-88858361D01*
X105385154Y-89181773D01*
X105579636Y-89472835D01*
X105716801Y-89610000D01*
X105579636Y-89747165D01*
X105385154Y-90038227D01*
X105251193Y-90361639D01*
X105182900Y-90704971D01*
X105182900Y-91055029D01*
X105251193Y-91398361D01*
X105385154Y-91721773D01*
X105579636Y-92012835D01*
X105716801Y-92150000D01*
X105579636Y-92287165D01*
X105385154Y-92578227D01*
X105251193Y-92901639D01*
X105182900Y-93244971D01*
X105182900Y-93595029D01*
X105251193Y-93938361D01*
X105385154Y-94261773D01*
X105579636Y-94552835D01*
X105827165Y-94800364D01*
X106118227Y-94994846D01*
X106441639Y-95128807D01*
X106784971Y-95197100D01*
X107135029Y-95197100D01*
X107478361Y-95128807D01*
X107801773Y-94994846D01*
X108092835Y-94800364D01*
X108230000Y-94663199D01*
X108367165Y-94800364D01*
X108658227Y-94994846D01*
X108981639Y-95128807D01*
X109324971Y-95197100D01*
X109675029Y-95197100D01*
X110018361Y-95128807D01*
X110341773Y-94994846D01*
X110632835Y-94800364D01*
X110705099Y-94728100D01*
X110758168Y-94728100D01*
X113152900Y-97122833D01*
X113152900Y-97170105D01*
X113219271Y-97503777D01*
X113349464Y-97818089D01*
X113538474Y-98100962D01*
X113779038Y-98341526D01*
X114061911Y-98530536D01*
X114376223Y-98660729D01*
X114709895Y-98727100D01*
X115050105Y-98727100D01*
X115383777Y-98660729D01*
X115698089Y-98530536D01*
X115980962Y-98341526D01*
X115991900Y-98330588D01*
X115991900Y-100741713D01*
X115890084Y-100710827D01*
X115697912Y-100691900D01*
X115633652Y-100685571D01*
X115569392Y-100691900D01*
X110626257Y-100691900D01*
X110561999Y-100685571D01*
X110497741Y-100691900D01*
X110497740Y-100691900D01*
X110305568Y-100710827D01*
X110058990Y-100785626D01*
X109831742Y-100907092D01*
X109632558Y-101070558D01*
X109591589Y-101120479D01*
X108808100Y-101903968D01*
X108808100Y-101041832D01*
X109568347Y-100281585D01*
X110350000Y-100281585D01*
X110531743Y-100263685D01*
X110706502Y-100210672D01*
X110867561Y-100124585D01*
X111008730Y-100008730D01*
X111124585Y-99867561D01*
X111210672Y-99706502D01*
X111263685Y-99531743D01*
X111281585Y-99350000D01*
X111281585Y-97650000D01*
X111263685Y-97468257D01*
X111210672Y-97293498D01*
X111124585Y-97132439D01*
X111008730Y-96991270D01*
X110867561Y-96875415D01*
X110706502Y-96789328D01*
X110531743Y-96736315D01*
X110350000Y-96718415D01*
X108650000Y-96718415D01*
X108468257Y-96736315D01*
X108293498Y-96789328D01*
X108132439Y-96875415D01*
X107991270Y-96991270D01*
X107959202Y-97030345D01*
X107801773Y-96925154D01*
X107478361Y-96791193D01*
X107135029Y-96722900D01*
X106784971Y-96722900D01*
X106441639Y-96791193D01*
X106118227Y-96925154D01*
X105827165Y-97119636D01*
X105579636Y-97367165D01*
X105385154Y-97658227D01*
X105251193Y-97981639D01*
X105182900Y-98324971D01*
X105182900Y-98675029D01*
X105251193Y-99018361D01*
X105385154Y-99341773D01*
X105579636Y-99632835D01*
X105827165Y-99880364D01*
X106118227Y-100074846D01*
X106245959Y-100127754D01*
X106210827Y-100243568D01*
X106185571Y-100500000D01*
X106191901Y-100564270D01*
X106191901Y-101920358D01*
X106182439Y-101925415D01*
X106041270Y-102041270D01*
X105925415Y-102182439D01*
X105839328Y-102343498D01*
X105786315Y-102518257D01*
X105768415Y-102700000D01*
X105768415Y-104300000D01*
X105786315Y-104481743D01*
X105839328Y-104656502D01*
X105925415Y-104817561D01*
X106041270Y-104958730D01*
X106182439Y-105074585D01*
X106343498Y-105160672D01*
X106518257Y-105213685D01*
X106700000Y-105231585D01*
X108300000Y-105231585D01*
X108481743Y-105213685D01*
X108656502Y-105160672D01*
X108817561Y-105074585D01*
X108958730Y-104958730D01*
X109074585Y-104817561D01*
X109077051Y-104812947D01*
X109126260Y-104808100D01*
X109318432Y-104789173D01*
X109565010Y-104714374D01*
X109792258Y-104592908D01*
X109991442Y-104429442D01*
X110032411Y-104379521D01*
X111103832Y-103308100D01*
X115091820Y-103308100D01*
X115731900Y-103948180D01*
X115731900Y-104116305D01*
X115641063Y-104252253D01*
X115522065Y-104539539D01*
X115461400Y-104844521D01*
X115461400Y-105155479D01*
X115522065Y-105460461D01*
X115641063Y-105747747D01*
X115813821Y-106006299D01*
X116033701Y-106226179D01*
X116292253Y-106398937D01*
X116579539Y-106517935D01*
X116884521Y-106578600D01*
X117195479Y-106578600D01*
X117500461Y-106517935D01*
X117787747Y-106398937D01*
X118046299Y-106226179D01*
X118266179Y-106006299D01*
X118438937Y-105747747D01*
X118557935Y-105460461D01*
X118618600Y-105155479D01*
X118618600Y-104844521D01*
X118608924Y-104795879D01*
X118614428Y-104740002D01*
X118608099Y-104675744D01*
X118608099Y-102390124D01*
X118770560Y-102588083D01*
X118820476Y-102629048D01*
X120639820Y-104448392D01*
X120602065Y-104539539D01*
X120541400Y-104844521D01*
X120541400Y-105155479D01*
X120602065Y-105460461D01*
X120721063Y-105747747D01*
X120893821Y-106006299D01*
X121113701Y-106226179D01*
X121372253Y-106398937D01*
X121659539Y-106517935D01*
X121964521Y-106578600D01*
X122275479Y-106578600D01*
X122580461Y-106517935D01*
X122867747Y-106398937D01*
X123126299Y-106226179D01*
X123346179Y-106006299D01*
X123518937Y-105747747D01*
X123637935Y-105460461D01*
X123674638Y-105275941D01*
X124398223Y-105999526D01*
X124439188Y-106049442D01*
X124638372Y-106212908D01*
X124865620Y-106334374D01*
X125112198Y-106409173D01*
X125304370Y-106428100D01*
X125304371Y-106428100D01*
X125368629Y-106434429D01*
X125371644Y-106434132D01*
X125399038Y-106461526D01*
X125681911Y-106650536D01*
X125996223Y-106780729D01*
X126329895Y-106847100D01*
X126670105Y-106847100D01*
X127003777Y-106780729D01*
X127318089Y-106650536D01*
X127600962Y-106461526D01*
X127841526Y-106220962D01*
X128030536Y-105938089D01*
X128160729Y-105623777D01*
X128227100Y-105290105D01*
X128227100Y-104949895D01*
X128160729Y-104616223D01*
X128030536Y-104301911D01*
X127841526Y-104019038D01*
X127600962Y-103778474D01*
X127318089Y-103589464D01*
X127003777Y-103459271D01*
X126670105Y-103392900D01*
X126329895Y-103392900D01*
X125996223Y-103459271D01*
X125686236Y-103587673D01*
X123808100Y-101709538D01*
X123808100Y-98134388D01*
X123841526Y-98100962D01*
X124030536Y-97818089D01*
X124160729Y-97503777D01*
X124227100Y-97170105D01*
X124227100Y-97077032D01*
X124768415Y-97618347D01*
X124768415Y-98300000D01*
X124786315Y-98481743D01*
X124839328Y-98656502D01*
X124925415Y-98817561D01*
X125041270Y-98958730D01*
X125182439Y-99074585D01*
X125343498Y-99160672D01*
X125518257Y-99213685D01*
X125700000Y-99231585D01*
X127300000Y-99231585D01*
X127481743Y-99213685D01*
X127656502Y-99160672D01*
X127817561Y-99074585D01*
X127958730Y-98958730D01*
X128074585Y-98817561D01*
X128160672Y-98656502D01*
X128213685Y-98481743D01*
X128231585Y-98300000D01*
X128231585Y-96700000D01*
X128213685Y-96518257D01*
X128160672Y-96343498D01*
X128074585Y-96182439D01*
X127958730Y-96041270D01*
X127817561Y-95925415D01*
X127656502Y-95839328D01*
X127481743Y-95786315D01*
X127300000Y-95768415D01*
X126618347Y-95768415D01*
X124227100Y-93377168D01*
X124227100Y-93329895D01*
X124216511Y-93276658D01*
X124287133Y-93298082D01*
X124361932Y-93320772D01*
X124618365Y-93346028D01*
X124682625Y-93339699D01*
X130489767Y-93339699D01*
X131072900Y-93922833D01*
X131072900Y-94170105D01*
X131139271Y-94503777D01*
X131269464Y-94818089D01*
X131458474Y-95100962D01*
X131691901Y-95334389D01*
X131691901Y-96315730D01*
X131685571Y-96380000D01*
X131710827Y-96636432D01*
X131773246Y-96842197D01*
X131785627Y-96883010D01*
X131907093Y-97110258D01*
X132070559Y-97309442D01*
X132120475Y-97350407D01*
X132392900Y-97622832D01*
X132392900Y-97670105D01*
X132459271Y-98003777D01*
X132589464Y-98318089D01*
X132778474Y-98600962D01*
X132947512Y-98770000D01*
X132778474Y-98939038D01*
X132589464Y-99221911D01*
X132459271Y-99536223D01*
X132392900Y-99869895D01*
X132392900Y-100210105D01*
X132459271Y-100543777D01*
X132589464Y-100858089D01*
X132778474Y-101140962D01*
X132947512Y-101310000D01*
X132778474Y-101479038D01*
X132589464Y-101761911D01*
X132459271Y-102076223D01*
X132392900Y-102409895D01*
X132392900Y-102750105D01*
X132459271Y-103083777D01*
X132589464Y-103398089D01*
X132778474Y-103680962D01*
X133019038Y-103921526D01*
X133301911Y-104110536D01*
X133616223Y-104240729D01*
X133949895Y-104307100D01*
X134290105Y-104307100D01*
X134348219Y-104295541D01*
X134540000Y-104314429D01*
X134796432Y-104289173D01*
X135043010Y-104214374D01*
X135270258Y-104092907D01*
X135469441Y-103929441D01*
X135632907Y-103730258D01*
X135754374Y-103503010D01*
X135777098Y-103428100D01*
X136028605Y-103428100D01*
X136181911Y-103530536D01*
X136496223Y-103660729D01*
X136739110Y-103709042D01*
X137877990Y-104847922D01*
X137918959Y-104897843D01*
X138118143Y-105061309D01*
X138345391Y-105182775D01*
X138591969Y-105257574D01*
X138784141Y-105276501D01*
X138784142Y-105276501D01*
X138848400Y-105282830D01*
X138912658Y-105276501D01*
X141380573Y-105276501D01*
X141444833Y-105282830D01*
X141509093Y-105276501D01*
X141701265Y-105257574D01*
X141947843Y-105182775D01*
X142175091Y-105061309D01*
X142374275Y-104897843D01*
X142415244Y-104847922D01*
X144711162Y-102552005D01*
X144809742Y-102632908D01*
X145036990Y-102754374D01*
X145152676Y-102789467D01*
X145283567Y-102829173D01*
X145350784Y-102835793D01*
X145489439Y-102949585D01*
X145650498Y-103035672D01*
X145825257Y-103088685D01*
X146007000Y-103106585D01*
X149563000Y-103106585D01*
X149744743Y-103088685D01*
X149919502Y-103035672D01*
X150080561Y-102949585D01*
X150221730Y-102833730D01*
X150337585Y-102692561D01*
X150423672Y-102531502D01*
X150476685Y-102356743D01*
X150494585Y-102175000D01*
X150494585Y-100905000D01*
X150476685Y-100723257D01*
X150423672Y-100548498D01*
X150337585Y-100387439D01*
X150241205Y-100270000D01*
X150337585Y-100152561D01*
X150423672Y-99991502D01*
X150476685Y-99816743D01*
X150494585Y-99635000D01*
X150494585Y-98365000D01*
X150476685Y-98183257D01*
X150423672Y-98008498D01*
X150337585Y-97847439D01*
X150241205Y-97730000D01*
X150337585Y-97612561D01*
X150423672Y-97451502D01*
X150476685Y-97276743D01*
X150494585Y-97095000D01*
X150494585Y-95825000D01*
X150476685Y-95643257D01*
X150423672Y-95468498D01*
X150337585Y-95307439D01*
X150221730Y-95166270D01*
X150080561Y-95050415D01*
X149919502Y-94964328D01*
X149744743Y-94911315D01*
X149563000Y-94893415D01*
X146007000Y-94893415D01*
X145825257Y-94911315D01*
X145650498Y-94964328D01*
X145489439Y-95050415D01*
X145365780Y-95151900D01*
X145104257Y-95151900D01*
X145039999Y-95145571D01*
X144975741Y-95151900D01*
X144975740Y-95151900D01*
X144783568Y-95170827D01*
X144536990Y-95245626D01*
X144309742Y-95367092D01*
X144110558Y-95530558D01*
X144069589Y-95580479D01*
X143877168Y-95772900D01*
X143829895Y-95772900D01*
X143496223Y-95839271D01*
X143181911Y-95969464D01*
X142899038Y-96158474D01*
X142871644Y-96185868D01*
X142868630Y-96185571D01*
X142612197Y-96210827D01*
X142365619Y-96285626D01*
X142189058Y-96380000D01*
X142138372Y-96407092D01*
X141939188Y-96570558D01*
X141898225Y-96620472D01*
X139620479Y-98898219D01*
X139570558Y-98939188D01*
X139446564Y-99090276D01*
X139261857Y-98938691D01*
X139034609Y-98817225D01*
X138788031Y-98742426D01*
X138595859Y-98723499D01*
X138531599Y-98717170D01*
X138467339Y-98723499D01*
X135338989Y-98723499D01*
X135461526Y-98600962D01*
X135650536Y-98318089D01*
X135780729Y-98003777D01*
X135847100Y-97670105D01*
X135847100Y-97622832D01*
X137410687Y-96059246D01*
X137503777Y-96040729D01*
X137818089Y-95910536D01*
X138100962Y-95721526D01*
X138134388Y-95688100D01*
X139365612Y-95688100D01*
X139399038Y-95721526D01*
X139681911Y-95910536D01*
X139996223Y-96040729D01*
X140329895Y-96107100D01*
X140670105Y-96107100D01*
X141003777Y-96040729D01*
X141318089Y-95910536D01*
X141600962Y-95721526D01*
X141841526Y-95480962D01*
X142030536Y-95198089D01*
X142160729Y-94883777D01*
X142227100Y-94550105D01*
X142227100Y-94209895D01*
X142160729Y-93876223D01*
X142030536Y-93561911D01*
X141841526Y-93279038D01*
X141600962Y-93038474D01*
X141318089Y-92849464D01*
X141003777Y-92719271D01*
X140670105Y-92652900D01*
X140329895Y-92652900D01*
X139996223Y-92719271D01*
X139681911Y-92849464D01*
X139399038Y-93038474D01*
X139365612Y-93071900D01*
X138134388Y-93071900D01*
X138100962Y-93038474D01*
X137818089Y-92849464D01*
X137503777Y-92719271D01*
X137170105Y-92652900D01*
X136829895Y-92652900D01*
X136496223Y-92719271D01*
X136181911Y-92849464D01*
X135899038Y-93038474D01*
X135658474Y-93279038D01*
X135469464Y-93561911D01*
X135339271Y-93876223D01*
X135272900Y-94209895D01*
X135272900Y-94497167D01*
X134308100Y-95461968D01*
X134308100Y-94851667D01*
X134330536Y-94818089D01*
X134460729Y-94503777D01*
X134527100Y-94170105D01*
X134527100Y-93829895D01*
X134460729Y-93496223D01*
X134330536Y-93181911D01*
X134141526Y-92899038D01*
X133900962Y-92658474D01*
X133618089Y-92469464D01*
X133303777Y-92339271D01*
X133160755Y-92310822D01*
X132002010Y-91152078D01*
X131961041Y-91102157D01*
X131761857Y-90938691D01*
X131534609Y-90817225D01*
X131288031Y-90742426D01*
X131220136Y-90735739D01*
X131031599Y-90717170D01*
X130967339Y-90723499D01*
X125160198Y-90723499D01*
X123557177Y-89120479D01*
X123516208Y-89070558D01*
X123317024Y-88907092D01*
X123089776Y-88785626D01*
X122843198Y-88710827D01*
X122651026Y-88691900D01*
X122586766Y-88685571D01*
X122522506Y-88691900D01*
X122134388Y-88691900D01*
X122100962Y-88658474D01*
X121818089Y-88469464D01*
X121503777Y-88339271D01*
X121170105Y-88272900D01*
X121122832Y-88272900D01*
X120988100Y-88138168D01*
X120988100Y-87634388D01*
X121021526Y-87600962D01*
X121210536Y-87318089D01*
X121340729Y-87003777D01*
X121407100Y-86670105D01*
X121407100Y-86329895D01*
X121340729Y-85996223D01*
X121218029Y-85700000D01*
X125568415Y-85700000D01*
X125568415Y-87300000D01*
X125586315Y-87481743D01*
X125639328Y-87656502D01*
X125725415Y-87817561D01*
X125841270Y-87958730D01*
X125982439Y-88074585D01*
X126143498Y-88160672D01*
X126318257Y-88213685D01*
X126500000Y-88231585D01*
X128100000Y-88231585D01*
X128281743Y-88213685D01*
X128456502Y-88160672D01*
X128617561Y-88074585D01*
X128758730Y-87958730D01*
X128811737Y-87894141D01*
X128820827Y-87986432D01*
X128874987Y-88164971D01*
X128895627Y-88233010D01*
X129017093Y-88460258D01*
X129180559Y-88659442D01*
X129230475Y-88700407D01*
X129652900Y-89122832D01*
X129652900Y-89170105D01*
X129719271Y-89503777D01*
X129849464Y-89818089D01*
X130038474Y-90100962D01*
X130279038Y-90341526D01*
X130561911Y-90530536D01*
X130876223Y-90660729D01*
X131209895Y-90727100D01*
X131550105Y-90727100D01*
X131883777Y-90660729D01*
X132198089Y-90530536D01*
X132480962Y-90341526D01*
X132721526Y-90100962D01*
X132910536Y-89818089D01*
X133040729Y-89503777D01*
X133107100Y-89170105D01*
X133107100Y-88829895D01*
X133040729Y-88496223D01*
X132910536Y-88181911D01*
X132721526Y-87899038D01*
X132480962Y-87658474D01*
X132198089Y-87469464D01*
X131883777Y-87339271D01*
X131792672Y-87321149D01*
X131868730Y-87258730D01*
X131984585Y-87117561D01*
X132070672Y-86956502D01*
X132123685Y-86781743D01*
X132141585Y-86600000D01*
X132141585Y-84400000D01*
X132123685Y-84218257D01*
X132070672Y-84043498D01*
X131984585Y-83882439D01*
X131875895Y-83750000D01*
X131984585Y-83617561D01*
X132070672Y-83456502D01*
X132123685Y-83281743D01*
X132141585Y-83100000D01*
X132141585Y-80900000D01*
X132123685Y-80718257D01*
X132070672Y-80543498D01*
X131984585Y-80382439D01*
X131868730Y-80241270D01*
X131792672Y-80178851D01*
X131883777Y-80160729D01*
X132198089Y-80030536D01*
X132480962Y-79841526D01*
X132721526Y-79600962D01*
X132910536Y-79318089D01*
X133040729Y-79003777D01*
X133107100Y-78670105D01*
X133107100Y-78329895D01*
X137272900Y-78329895D01*
X137272900Y-78670105D01*
X137339271Y-79003777D01*
X137469464Y-79318089D01*
X137658474Y-79600962D01*
X137899038Y-79841526D01*
X138181911Y-80030536D01*
X138496223Y-80160729D01*
X138829895Y-80227100D01*
X139170105Y-80227100D01*
X139503777Y-80160729D01*
X139720873Y-80070805D01*
X142272900Y-82622832D01*
X142272900Y-82670105D01*
X142339271Y-83003777D01*
X142469464Y-83318089D01*
X142658474Y-83600962D01*
X142807512Y-83750000D01*
X142658474Y-83899038D01*
X142469464Y-84181911D01*
X142339271Y-84496223D01*
X142272900Y-84829895D01*
X142272900Y-84877168D01*
X139720873Y-87429195D01*
X139503777Y-87339271D01*
X139170105Y-87272900D01*
X138829895Y-87272900D01*
X138496223Y-87339271D01*
X138181911Y-87469464D01*
X137899038Y-87658474D01*
X137658474Y-87899038D01*
X137469464Y-88181911D01*
X137339271Y-88496223D01*
X137272900Y-88829895D01*
X137272900Y-89170105D01*
X137339271Y-89503777D01*
X137469464Y-89818089D01*
X137658474Y-90100962D01*
X137899038Y-90341526D01*
X138181911Y-90530536D01*
X138496223Y-90660729D01*
X138829895Y-90727100D01*
X139170105Y-90727100D01*
X139503777Y-90660729D01*
X139818089Y-90530536D01*
X140100962Y-90341526D01*
X140142049Y-90300439D01*
X140177064Y-90296990D01*
X140256432Y-90289173D01*
X140256435Y-90289172D01*
X140503010Y-90214374D01*
X140730258Y-90092908D01*
X140929442Y-89929442D01*
X140970411Y-89879521D01*
X143100729Y-87749203D01*
X143120479Y-87765411D01*
X144274593Y-88919526D01*
X144315558Y-88969442D01*
X144514742Y-89132908D01*
X144741990Y-89254374D01*
X144909388Y-89305154D01*
X144988567Y-89329173D01*
X145245000Y-89354429D01*
X145309260Y-89348100D01*
X145365780Y-89348100D01*
X145489439Y-89449585D01*
X145650498Y-89535672D01*
X145825257Y-89588685D01*
X146007000Y-89606585D01*
X149563000Y-89606585D01*
X149744743Y-89588685D01*
X149919502Y-89535672D01*
X150080561Y-89449585D01*
X150221730Y-89333730D01*
X150337585Y-89192561D01*
X150423672Y-89031502D01*
X150476685Y-88856743D01*
X150494585Y-88675000D01*
X150494585Y-87405000D01*
X150476685Y-87223257D01*
X150423672Y-87048498D01*
X150337585Y-86887439D01*
X150241205Y-86770000D01*
X150337585Y-86652561D01*
X150423672Y-86491502D01*
X150476685Y-86316743D01*
X150494585Y-86135000D01*
X150494585Y-84865000D01*
X150476685Y-84683257D01*
X150423672Y-84508498D01*
X150337585Y-84347439D01*
X150241205Y-84230000D01*
X150337585Y-84112561D01*
X150423672Y-83951502D01*
X150476685Y-83776743D01*
X150494585Y-83595000D01*
X150494585Y-82325000D01*
X150476685Y-82143257D01*
X150423672Y-81968498D01*
X150337585Y-81807439D01*
X150221730Y-81666270D01*
X150080561Y-81550415D01*
X149919502Y-81464328D01*
X149744743Y-81411315D01*
X149563000Y-81393415D01*
X146007000Y-81393415D01*
X145825257Y-81411315D01*
X145650498Y-81464328D01*
X145489439Y-81550415D01*
X145459236Y-81575202D01*
X145341526Y-81399038D01*
X145100962Y-81158474D01*
X144818089Y-80969464D01*
X144503777Y-80839271D01*
X144170105Y-80772900D01*
X144122832Y-80772900D01*
X140970411Y-77620479D01*
X140929442Y-77570558D01*
X140730258Y-77407092D01*
X140503010Y-77285626D01*
X140256432Y-77210827D01*
X140142049Y-77199561D01*
X140100962Y-77158474D01*
X139818089Y-76969464D01*
X139503777Y-76839271D01*
X139170105Y-76772900D01*
X138829895Y-76772900D01*
X138496223Y-76839271D01*
X138181911Y-76969464D01*
X137899038Y-77158474D01*
X137658474Y-77399038D01*
X137469464Y-77681911D01*
X137339271Y-77996223D01*
X137272900Y-78329895D01*
X133107100Y-78329895D01*
X133040729Y-77996223D01*
X132910536Y-77681911D01*
X132721526Y-77399038D01*
X132480962Y-77158474D01*
X132198089Y-76969464D01*
X131883777Y-76839271D01*
X131550105Y-76772900D01*
X131209895Y-76772900D01*
X130876223Y-76839271D01*
X130561911Y-76969464D01*
X130279038Y-77158474D01*
X130245612Y-77191900D01*
X127744257Y-77191900D01*
X127679999Y-77185571D01*
X127649471Y-77188578D01*
X127470105Y-77152900D01*
X127129895Y-77152900D01*
X126796223Y-77219271D01*
X126481911Y-77349464D01*
X126199038Y-77538474D01*
X125958474Y-77779038D01*
X125769464Y-78061911D01*
X125639271Y-78376223D01*
X125572900Y-78709895D01*
X125572900Y-79050105D01*
X125639271Y-79383777D01*
X125769464Y-79698089D01*
X125958474Y-79980962D01*
X126199038Y-80221526D01*
X126481911Y-80410536D01*
X126796223Y-80540729D01*
X127129895Y-80607100D01*
X127470105Y-80607100D01*
X127803777Y-80540729D01*
X128118089Y-80410536D01*
X128326813Y-80271071D01*
X128235415Y-80382439D01*
X128149328Y-80543498D01*
X128096315Y-80718257D01*
X128078415Y-80900000D01*
X128078415Y-83100000D01*
X128096315Y-83281743D01*
X128149328Y-83456502D01*
X128235415Y-83617561D01*
X128344105Y-83750000D01*
X128235415Y-83882439D01*
X128149328Y-84043498D01*
X128096315Y-84218257D01*
X128078415Y-84400000D01*
X128078415Y-84768415D01*
X126500000Y-84768415D01*
X126318257Y-84786315D01*
X126143498Y-84839328D01*
X125982439Y-84925415D01*
X125841270Y-85041270D01*
X125725415Y-85182439D01*
X125639328Y-85343498D01*
X125586315Y-85518257D01*
X125568415Y-85700000D01*
X121218029Y-85700000D01*
X121210536Y-85681911D01*
X121021526Y-85399038D01*
X120852488Y-85230000D01*
X121021526Y-85060962D01*
X121210536Y-84778089D01*
X121340729Y-84463777D01*
X121407100Y-84130105D01*
X121407100Y-83789895D01*
X121340729Y-83456223D01*
X121210536Y-83141911D01*
X121021526Y-82859038D01*
X120852488Y-82690000D01*
X121021526Y-82520962D01*
X121210536Y-82238089D01*
X121340729Y-81923777D01*
X121407100Y-81590105D01*
X121407100Y-81249895D01*
X121340729Y-80916223D01*
X121210536Y-80601911D01*
X121021526Y-80319038D01*
X120780962Y-80078474D01*
X120498089Y-79889464D01*
X120183777Y-79759271D01*
X119850105Y-79692900D01*
X119509895Y-79692900D01*
X119176223Y-79759271D01*
X119152333Y-79769167D01*
X118415244Y-79032078D01*
X118374275Y-78982157D01*
X118175091Y-78818691D01*
X117947843Y-78697225D01*
X117701265Y-78622426D01*
X117509093Y-78603499D01*
X117444833Y-78597170D01*
X117380573Y-78603499D01*
X115152661Y-78603499D01*
X115088401Y-78597170D01*
X114831969Y-78622426D01*
X114585390Y-78697225D01*
X114474620Y-78756433D01*
X114358143Y-78818691D01*
X114158959Y-78982157D01*
X114117994Y-79032073D01*
X112920471Y-80229597D01*
X112877168Y-80272900D01*
X112829895Y-80272900D01*
X112496223Y-80339271D01*
X112181911Y-80469464D01*
X111899038Y-80658474D01*
X111658474Y-80899038D01*
X111469464Y-81181911D01*
X111339271Y-81496223D01*
X111272900Y-81829895D01*
X111272900Y-81877167D01*
X109078053Y-84072015D01*
X108981639Y-84091193D01*
X108658227Y-84225154D01*
X108367165Y-84419636D01*
X108230000Y-84556801D01*
X108092835Y-84419636D01*
X107801773Y-84225154D01*
X107478361Y-84091193D01*
X107135029Y-84022900D01*
X106784971Y-84022900D01*
X106441639Y-84091193D01*
X106118227Y-84225154D01*
X105827165Y-84419636D01*
X105579636Y-84667165D01*
X105385154Y-84958227D01*
X105251193Y-85281639D01*
X105182900Y-85624971D01*
X103977100Y-85624971D01*
X103977100Y-75977100D01*
X151873000Y-75977100D01*
X151873000Y-108522900D01*
G37*
X151873000Y-108522900D02*
X103977100Y-108522900D01*
X103977100Y-85624971D01*
X105182900Y-85624971D01*
X105182900Y-85975029D01*
X105251193Y-86318361D01*
X105385154Y-86641773D01*
X105579636Y-86932835D01*
X105716801Y-87070000D01*
X105579636Y-87207165D01*
X105385154Y-87498227D01*
X105251193Y-87821639D01*
X105182900Y-88164971D01*
X105182900Y-88515029D01*
X105251193Y-88858361D01*
X105385154Y-89181773D01*
X105579636Y-89472835D01*
X105716801Y-89610000D01*
X105579636Y-89747165D01*
X105385154Y-90038227D01*
X105251193Y-90361639D01*
X105182900Y-90704971D01*
X105182900Y-91055029D01*
X105251193Y-91398361D01*
X105385154Y-91721773D01*
X105579636Y-92012835D01*
X105716801Y-92150000D01*
X105579636Y-92287165D01*
X105385154Y-92578227D01*
X105251193Y-92901639D01*
X105182900Y-93244971D01*
X105182900Y-93595029D01*
X105251193Y-93938361D01*
X105385154Y-94261773D01*
X105579636Y-94552835D01*
X105827165Y-94800364D01*
X106118227Y-94994846D01*
X106441639Y-95128807D01*
X106784971Y-95197100D01*
X107135029Y-95197100D01*
X107478361Y-95128807D01*
X107801773Y-94994846D01*
X108092835Y-94800364D01*
X108230000Y-94663199D01*
X108367165Y-94800364D01*
X108658227Y-94994846D01*
X108981639Y-95128807D01*
X109324971Y-95197100D01*
X109675029Y-95197100D01*
X110018361Y-95128807D01*
X110341773Y-94994846D01*
X110632835Y-94800364D01*
X110705099Y-94728100D01*
X110758168Y-94728100D01*
X113152900Y-97122833D01*
X113152900Y-97170105D01*
X113219271Y-97503777D01*
X113349464Y-97818089D01*
X113538474Y-98100962D01*
X113779038Y-98341526D01*
X114061911Y-98530536D01*
X114376223Y-98660729D01*
X114709895Y-98727100D01*
X115050105Y-98727100D01*
X115383777Y-98660729D01*
X115698089Y-98530536D01*
X115980962Y-98341526D01*
X115991900Y-98330588D01*
X115991900Y-100741713D01*
X115890084Y-100710827D01*
X115697912Y-100691900D01*
X115633652Y-100685571D01*
X115569392Y-100691900D01*
X110626257Y-100691900D01*
X110561999Y-100685571D01*
X110497741Y-100691900D01*
X110497740Y-100691900D01*
X110305568Y-100710827D01*
X110058990Y-100785626D01*
X109831742Y-100907092D01*
X109632558Y-101070558D01*
X109591589Y-101120479D01*
X108808100Y-101903968D01*
X108808100Y-101041832D01*
X109568347Y-100281585D01*
X110350000Y-100281585D01*
X110531743Y-100263685D01*
X110706502Y-100210672D01*
X110867561Y-100124585D01*
X111008730Y-100008730D01*
X111124585Y-99867561D01*
X111210672Y-99706502D01*
X111263685Y-99531743D01*
X111281585Y-99350000D01*
X111281585Y-97650000D01*
X111263685Y-97468257D01*
X111210672Y-97293498D01*
X111124585Y-97132439D01*
X111008730Y-96991270D01*
X110867561Y-96875415D01*
X110706502Y-96789328D01*
X110531743Y-96736315D01*
X110350000Y-96718415D01*
X108650000Y-96718415D01*
X108468257Y-96736315D01*
X108293498Y-96789328D01*
X108132439Y-96875415D01*
X107991270Y-96991270D01*
X107959202Y-97030345D01*
X107801773Y-96925154D01*
X107478361Y-96791193D01*
X107135029Y-96722900D01*
X106784971Y-96722900D01*
X106441639Y-96791193D01*
X106118227Y-96925154D01*
X105827165Y-97119636D01*
X105579636Y-97367165D01*
X105385154Y-97658227D01*
X105251193Y-97981639D01*
X105182900Y-98324971D01*
X105182900Y-98675029D01*
X105251193Y-99018361D01*
X105385154Y-99341773D01*
X105579636Y-99632835D01*
X105827165Y-99880364D01*
X106118227Y-100074846D01*
X106245959Y-100127754D01*
X106210827Y-100243568D01*
X106185571Y-100500000D01*
X106191901Y-100564270D01*
X106191901Y-101920358D01*
X106182439Y-101925415D01*
X106041270Y-102041270D01*
X105925415Y-102182439D01*
X105839328Y-102343498D01*
X105786315Y-102518257D01*
X105768415Y-102700000D01*
X105768415Y-104300000D01*
X105786315Y-104481743D01*
X105839328Y-104656502D01*
X105925415Y-104817561D01*
X106041270Y-104958730D01*
X106182439Y-105074585D01*
X106343498Y-105160672D01*
X106518257Y-105213685D01*
X106700000Y-105231585D01*
X108300000Y-105231585D01*
X108481743Y-105213685D01*
X108656502Y-105160672D01*
X108817561Y-105074585D01*
X108958730Y-104958730D01*
X109074585Y-104817561D01*
X109077051Y-104812947D01*
X109126260Y-104808100D01*
X109318432Y-104789173D01*
X109565010Y-104714374D01*
X109792258Y-104592908D01*
X109991442Y-104429442D01*
X110032411Y-104379521D01*
X111103832Y-103308100D01*
X115091820Y-103308100D01*
X115731900Y-103948180D01*
X115731900Y-104116305D01*
X115641063Y-104252253D01*
X115522065Y-104539539D01*
X115461400Y-104844521D01*
X115461400Y-105155479D01*
X115522065Y-105460461D01*
X115641063Y-105747747D01*
X115813821Y-106006299D01*
X116033701Y-106226179D01*
X116292253Y-106398937D01*
X116579539Y-106517935D01*
X116884521Y-106578600D01*
X117195479Y-106578600D01*
X117500461Y-106517935D01*
X117787747Y-106398937D01*
X118046299Y-106226179D01*
X118266179Y-106006299D01*
X118438937Y-105747747D01*
X118557935Y-105460461D01*
X118618600Y-105155479D01*
X118618600Y-104844521D01*
X118608924Y-104795879D01*
X118614428Y-104740002D01*
X118608099Y-104675744D01*
X118608099Y-102390124D01*
X118770560Y-102588083D01*
X118820476Y-102629048D01*
X120639820Y-104448392D01*
X120602065Y-104539539D01*
X120541400Y-104844521D01*
X120541400Y-105155479D01*
X120602065Y-105460461D01*
X120721063Y-105747747D01*
X120893821Y-106006299D01*
X121113701Y-106226179D01*
X121372253Y-106398937D01*
X121659539Y-106517935D01*
X121964521Y-106578600D01*
X122275479Y-106578600D01*
X122580461Y-106517935D01*
X122867747Y-106398937D01*
X123126299Y-106226179D01*
X123346179Y-106006299D01*
X123518937Y-105747747D01*
X123637935Y-105460461D01*
X123674638Y-105275941D01*
X124398223Y-105999526D01*
X124439188Y-106049442D01*
X124638372Y-106212908D01*
X124865620Y-106334374D01*
X125112198Y-106409173D01*
X125304370Y-106428100D01*
X125304371Y-106428100D01*
X125368629Y-106434429D01*
X125371644Y-106434132D01*
X125399038Y-106461526D01*
X125681911Y-106650536D01*
X125996223Y-106780729D01*
X126329895Y-106847100D01*
X126670105Y-106847100D01*
X127003777Y-106780729D01*
X127318089Y-106650536D01*
X127600962Y-106461526D01*
X127841526Y-106220962D01*
X128030536Y-105938089D01*
X128160729Y-105623777D01*
X128227100Y-105290105D01*
X128227100Y-104949895D01*
X128160729Y-104616223D01*
X128030536Y-104301911D01*
X127841526Y-104019038D01*
X127600962Y-103778474D01*
X127318089Y-103589464D01*
X127003777Y-103459271D01*
X126670105Y-103392900D01*
X126329895Y-103392900D01*
X125996223Y-103459271D01*
X125686236Y-103587673D01*
X123808100Y-101709538D01*
X123808100Y-98134388D01*
X123841526Y-98100962D01*
X124030536Y-97818089D01*
X124160729Y-97503777D01*
X124227100Y-97170105D01*
X124227100Y-97077032D01*
X124768415Y-97618347D01*
X124768415Y-98300000D01*
X124786315Y-98481743D01*
X124839328Y-98656502D01*
X124925415Y-98817561D01*
X125041270Y-98958730D01*
X125182439Y-99074585D01*
X125343498Y-99160672D01*
X125518257Y-99213685D01*
X125700000Y-99231585D01*
X127300000Y-99231585D01*
X127481743Y-99213685D01*
X127656502Y-99160672D01*
X127817561Y-99074585D01*
X127958730Y-98958730D01*
X128074585Y-98817561D01*
X128160672Y-98656502D01*
X128213685Y-98481743D01*
X128231585Y-98300000D01*
X128231585Y-96700000D01*
X128213685Y-96518257D01*
X128160672Y-96343498D01*
X128074585Y-96182439D01*
X127958730Y-96041270D01*
X127817561Y-95925415D01*
X127656502Y-95839328D01*
X127481743Y-95786315D01*
X127300000Y-95768415D01*
X126618347Y-95768415D01*
X124227100Y-93377168D01*
X124227100Y-93329895D01*
X124216511Y-93276658D01*
X124287133Y-93298082D01*
X124361932Y-93320772D01*
X124618365Y-93346028D01*
X124682625Y-93339699D01*
X130489767Y-93339699D01*
X131072900Y-93922833D01*
X131072900Y-94170105D01*
X131139271Y-94503777D01*
X131269464Y-94818089D01*
X131458474Y-95100962D01*
X131691901Y-95334389D01*
X131691901Y-96315730D01*
X131685571Y-96380000D01*
X131710827Y-96636432D01*
X131773246Y-96842197D01*
X131785627Y-96883010D01*
X131907093Y-97110258D01*
X132070559Y-97309442D01*
X132120475Y-97350407D01*
X132392900Y-97622832D01*
X132392900Y-97670105D01*
X132459271Y-98003777D01*
X132589464Y-98318089D01*
X132778474Y-98600962D01*
X132947512Y-98770000D01*
X132778474Y-98939038D01*
X132589464Y-99221911D01*
X132459271Y-99536223D01*
X132392900Y-99869895D01*
X132392900Y-100210105D01*
X132459271Y-100543777D01*
X132589464Y-100858089D01*
X132778474Y-101140962D01*
X132947512Y-101310000D01*
X132778474Y-101479038D01*
X132589464Y-101761911D01*
X132459271Y-102076223D01*
X132392900Y-102409895D01*
X132392900Y-102750105D01*
X132459271Y-103083777D01*
X132589464Y-103398089D01*
X132778474Y-103680962D01*
X133019038Y-103921526D01*
X133301911Y-104110536D01*
X133616223Y-104240729D01*
X133949895Y-104307100D01*
X134290105Y-104307100D01*
X134348219Y-104295541D01*
X134540000Y-104314429D01*
X134796432Y-104289173D01*
X135043010Y-104214374D01*
X135270258Y-104092907D01*
X135469441Y-103929441D01*
X135632907Y-103730258D01*
X135754374Y-103503010D01*
X135777098Y-103428100D01*
X136028605Y-103428100D01*
X136181911Y-103530536D01*
X136496223Y-103660729D01*
X136739110Y-103709042D01*
X137877990Y-104847922D01*
X137918959Y-104897843D01*
X138118143Y-105061309D01*
X138345391Y-105182775D01*
X138591969Y-105257574D01*
X138784141Y-105276501D01*
X138784142Y-105276501D01*
X138848400Y-105282830D01*
X138912658Y-105276501D01*
X141380573Y-105276501D01*
X141444833Y-105282830D01*
X141509093Y-105276501D01*
X141701265Y-105257574D01*
X141947843Y-105182775D01*
X142175091Y-105061309D01*
X142374275Y-104897843D01*
X142415244Y-104847922D01*
X144711162Y-102552005D01*
X144809742Y-102632908D01*
X145036990Y-102754374D01*
X145152676Y-102789467D01*
X145283567Y-102829173D01*
X145350784Y-102835793D01*
X145489439Y-102949585D01*
X145650498Y-103035672D01*
X145825257Y-103088685D01*
X146007000Y-103106585D01*
X149563000Y-103106585D01*
X149744743Y-103088685D01*
X149919502Y-103035672D01*
X150080561Y-102949585D01*
X150221730Y-102833730D01*
X150337585Y-102692561D01*
X150423672Y-102531502D01*
X150476685Y-102356743D01*
X150494585Y-102175000D01*
X150494585Y-100905000D01*
X150476685Y-100723257D01*
X150423672Y-100548498D01*
X150337585Y-100387439D01*
X150241205Y-100270000D01*
X150337585Y-100152561D01*
X150423672Y-99991502D01*
X150476685Y-99816743D01*
X150494585Y-99635000D01*
X150494585Y-98365000D01*
X150476685Y-98183257D01*
X150423672Y-98008498D01*
X150337585Y-97847439D01*
X150241205Y-97730000D01*
X150337585Y-97612561D01*
X150423672Y-97451502D01*
X150476685Y-97276743D01*
X150494585Y-97095000D01*
X150494585Y-95825000D01*
X150476685Y-95643257D01*
X150423672Y-95468498D01*
X150337585Y-95307439D01*
X150221730Y-95166270D01*
X150080561Y-95050415D01*
X149919502Y-94964328D01*
X149744743Y-94911315D01*
X149563000Y-94893415D01*
X146007000Y-94893415D01*
X145825257Y-94911315D01*
X145650498Y-94964328D01*
X145489439Y-95050415D01*
X145365780Y-95151900D01*
X145104257Y-95151900D01*
X145039999Y-95145571D01*
X144975741Y-95151900D01*
X144975740Y-95151900D01*
X144783568Y-95170827D01*
X144536990Y-95245626D01*
X144309742Y-95367092D01*
X144110558Y-95530558D01*
X144069589Y-95580479D01*
X143877168Y-95772900D01*
X143829895Y-95772900D01*
X143496223Y-95839271D01*
X143181911Y-95969464D01*
X142899038Y-96158474D01*
X142871644Y-96185868D01*
X142868630Y-96185571D01*
X142612197Y-96210827D01*
X142365619Y-96285626D01*
X142189058Y-96380000D01*
X142138372Y-96407092D01*
X141939188Y-96570558D01*
X141898225Y-96620472D01*
X139620479Y-98898219D01*
X139570558Y-98939188D01*
X139446564Y-99090276D01*
X139261857Y-98938691D01*
X139034609Y-98817225D01*
X138788031Y-98742426D01*
X138595859Y-98723499D01*
X138531599Y-98717170D01*
X138467339Y-98723499D01*
X135338989Y-98723499D01*
X135461526Y-98600962D01*
X135650536Y-98318089D01*
X135780729Y-98003777D01*
X135847100Y-97670105D01*
X135847100Y-97622832D01*
X137410687Y-96059246D01*
X137503777Y-96040729D01*
X137818089Y-95910536D01*
X138100962Y-95721526D01*
X138134388Y-95688100D01*
X139365612Y-95688100D01*
X139399038Y-95721526D01*
X139681911Y-95910536D01*
X139996223Y-96040729D01*
X140329895Y-96107100D01*
X140670105Y-96107100D01*
X141003777Y-96040729D01*
X141318089Y-95910536D01*
X141600962Y-95721526D01*
X141841526Y-95480962D01*
X142030536Y-95198089D01*
X142160729Y-94883777D01*
X142227100Y-94550105D01*
X142227100Y-94209895D01*
X142160729Y-93876223D01*
X142030536Y-93561911D01*
X141841526Y-93279038D01*
X141600962Y-93038474D01*
X141318089Y-92849464D01*
X141003777Y-92719271D01*
X140670105Y-92652900D01*
X140329895Y-92652900D01*
X139996223Y-92719271D01*
X139681911Y-92849464D01*
X139399038Y-93038474D01*
X139365612Y-93071900D01*
X138134388Y-93071900D01*
X138100962Y-93038474D01*
X137818089Y-92849464D01*
X137503777Y-92719271D01*
X137170105Y-92652900D01*
X136829895Y-92652900D01*
X136496223Y-92719271D01*
X136181911Y-92849464D01*
X135899038Y-93038474D01*
X135658474Y-93279038D01*
X135469464Y-93561911D01*
X135339271Y-93876223D01*
X135272900Y-94209895D01*
X135272900Y-94497167D01*
X134308100Y-95461968D01*
X134308100Y-94851667D01*
X134330536Y-94818089D01*
X134460729Y-94503777D01*
X134527100Y-94170105D01*
X134527100Y-93829895D01*
X134460729Y-93496223D01*
X134330536Y-93181911D01*
X134141526Y-92899038D01*
X133900962Y-92658474D01*
X133618089Y-92469464D01*
X133303777Y-92339271D01*
X133160755Y-92310822D01*
X132002010Y-91152078D01*
X131961041Y-91102157D01*
X131761857Y-90938691D01*
X131534609Y-90817225D01*
X131288031Y-90742426D01*
X131220136Y-90735739D01*
X131031599Y-90717170D01*
X130967339Y-90723499D01*
X125160198Y-90723499D01*
X123557177Y-89120479D01*
X123516208Y-89070558D01*
X123317024Y-88907092D01*
X123089776Y-88785626D01*
X122843198Y-88710827D01*
X122651026Y-88691900D01*
X122586766Y-88685571D01*
X122522506Y-88691900D01*
X122134388Y-88691900D01*
X122100962Y-88658474D01*
X121818089Y-88469464D01*
X121503777Y-88339271D01*
X121170105Y-88272900D01*
X121122832Y-88272900D01*
X120988100Y-88138168D01*
X120988100Y-87634388D01*
X121021526Y-87600962D01*
X121210536Y-87318089D01*
X121340729Y-87003777D01*
X121407100Y-86670105D01*
X121407100Y-86329895D01*
X121340729Y-85996223D01*
X121218029Y-85700000D01*
X125568415Y-85700000D01*
X125568415Y-87300000D01*
X125586315Y-87481743D01*
X125639328Y-87656502D01*
X125725415Y-87817561D01*
X125841270Y-87958730D01*
X125982439Y-88074585D01*
X126143498Y-88160672D01*
X126318257Y-88213685D01*
X126500000Y-88231585D01*
X128100000Y-88231585D01*
X128281743Y-88213685D01*
X128456502Y-88160672D01*
X128617561Y-88074585D01*
X128758730Y-87958730D01*
X128811737Y-87894141D01*
X128820827Y-87986432D01*
X128874987Y-88164971D01*
X128895627Y-88233010D01*
X129017093Y-88460258D01*
X129180559Y-88659442D01*
X129230475Y-88700407D01*
X129652900Y-89122832D01*
X129652900Y-89170105D01*
X129719271Y-89503777D01*
X129849464Y-89818089D01*
X130038474Y-90100962D01*
X130279038Y-90341526D01*
X130561911Y-90530536D01*
X130876223Y-90660729D01*
X131209895Y-90727100D01*
X131550105Y-90727100D01*
X131883777Y-90660729D01*
X132198089Y-90530536D01*
X132480962Y-90341526D01*
X132721526Y-90100962D01*
X132910536Y-89818089D01*
X133040729Y-89503777D01*
X133107100Y-89170105D01*
X133107100Y-88829895D01*
X133040729Y-88496223D01*
X132910536Y-88181911D01*
X132721526Y-87899038D01*
X132480962Y-87658474D01*
X132198089Y-87469464D01*
X131883777Y-87339271D01*
X131792672Y-87321149D01*
X131868730Y-87258730D01*
X131984585Y-87117561D01*
X132070672Y-86956502D01*
X132123685Y-86781743D01*
X132141585Y-86600000D01*
X132141585Y-84400000D01*
X132123685Y-84218257D01*
X132070672Y-84043498D01*
X131984585Y-83882439D01*
X131875895Y-83750000D01*
X131984585Y-83617561D01*
X132070672Y-83456502D01*
X132123685Y-83281743D01*
X132141585Y-83100000D01*
X132141585Y-80900000D01*
X132123685Y-80718257D01*
X132070672Y-80543498D01*
X131984585Y-80382439D01*
X131868730Y-80241270D01*
X131792672Y-80178851D01*
X131883777Y-80160729D01*
X132198089Y-80030536D01*
X132480962Y-79841526D01*
X132721526Y-79600962D01*
X132910536Y-79318089D01*
X133040729Y-79003777D01*
X133107100Y-78670105D01*
X133107100Y-78329895D01*
X137272900Y-78329895D01*
X137272900Y-78670105D01*
X137339271Y-79003777D01*
X137469464Y-79318089D01*
X137658474Y-79600962D01*
X137899038Y-79841526D01*
X138181911Y-80030536D01*
X138496223Y-80160729D01*
X138829895Y-80227100D01*
X139170105Y-80227100D01*
X139503777Y-80160729D01*
X139720873Y-80070805D01*
X142272900Y-82622832D01*
X142272900Y-82670105D01*
X142339271Y-83003777D01*
X142469464Y-83318089D01*
X142658474Y-83600962D01*
X142807512Y-83750000D01*
X142658474Y-83899038D01*
X142469464Y-84181911D01*
X142339271Y-84496223D01*
X142272900Y-84829895D01*
X142272900Y-84877168D01*
X139720873Y-87429195D01*
X139503777Y-87339271D01*
X139170105Y-87272900D01*
X138829895Y-87272900D01*
X138496223Y-87339271D01*
X138181911Y-87469464D01*
X137899038Y-87658474D01*
X137658474Y-87899038D01*
X137469464Y-88181911D01*
X137339271Y-88496223D01*
X137272900Y-88829895D01*
X137272900Y-89170105D01*
X137339271Y-89503777D01*
X137469464Y-89818089D01*
X137658474Y-90100962D01*
X137899038Y-90341526D01*
X138181911Y-90530536D01*
X138496223Y-90660729D01*
X138829895Y-90727100D01*
X139170105Y-90727100D01*
X139503777Y-90660729D01*
X139818089Y-90530536D01*
X140100962Y-90341526D01*
X140142049Y-90300439D01*
X140177064Y-90296990D01*
X140256432Y-90289173D01*
X140256435Y-90289172D01*
X140503010Y-90214374D01*
X140730258Y-90092908D01*
X140929442Y-89929442D01*
X140970411Y-89879521D01*
X143100729Y-87749203D01*
X143120479Y-87765411D01*
X144274593Y-88919526D01*
X144315558Y-88969442D01*
X144514742Y-89132908D01*
X144741990Y-89254374D01*
X144909388Y-89305154D01*
X144988567Y-89329173D01*
X145245000Y-89354429D01*
X145309260Y-89348100D01*
X145365780Y-89348100D01*
X145489439Y-89449585D01*
X145650498Y-89535672D01*
X145825257Y-89588685D01*
X146007000Y-89606585D01*
X149563000Y-89606585D01*
X149744743Y-89588685D01*
X149919502Y-89535672D01*
X150080561Y-89449585D01*
X150221730Y-89333730D01*
X150337585Y-89192561D01*
X150423672Y-89031502D01*
X150476685Y-88856743D01*
X150494585Y-88675000D01*
X150494585Y-87405000D01*
X150476685Y-87223257D01*
X150423672Y-87048498D01*
X150337585Y-86887439D01*
X150241205Y-86770000D01*
X150337585Y-86652561D01*
X150423672Y-86491502D01*
X150476685Y-86316743D01*
X150494585Y-86135000D01*
X150494585Y-84865000D01*
X150476685Y-84683257D01*
X150423672Y-84508498D01*
X150337585Y-84347439D01*
X150241205Y-84230000D01*
X150337585Y-84112561D01*
X150423672Y-83951502D01*
X150476685Y-83776743D01*
X150494585Y-83595000D01*
X150494585Y-82325000D01*
X150476685Y-82143257D01*
X150423672Y-81968498D01*
X150337585Y-81807439D01*
X150221730Y-81666270D01*
X150080561Y-81550415D01*
X149919502Y-81464328D01*
X149744743Y-81411315D01*
X149563000Y-81393415D01*
X146007000Y-81393415D01*
X145825257Y-81411315D01*
X145650498Y-81464328D01*
X145489439Y-81550415D01*
X145459236Y-81575202D01*
X145341526Y-81399038D01*
X145100962Y-81158474D01*
X144818089Y-80969464D01*
X144503777Y-80839271D01*
X144170105Y-80772900D01*
X144122832Y-80772900D01*
X140970411Y-77620479D01*
X140929442Y-77570558D01*
X140730258Y-77407092D01*
X140503010Y-77285626D01*
X140256432Y-77210827D01*
X140142049Y-77199561D01*
X140100962Y-77158474D01*
X139818089Y-76969464D01*
X139503777Y-76839271D01*
X139170105Y-76772900D01*
X138829895Y-76772900D01*
X138496223Y-76839271D01*
X138181911Y-76969464D01*
X137899038Y-77158474D01*
X137658474Y-77399038D01*
X137469464Y-77681911D01*
X137339271Y-77996223D01*
X137272900Y-78329895D01*
X133107100Y-78329895D01*
X133040729Y-77996223D01*
X132910536Y-77681911D01*
X132721526Y-77399038D01*
X132480962Y-77158474D01*
X132198089Y-76969464D01*
X131883777Y-76839271D01*
X131550105Y-76772900D01*
X131209895Y-76772900D01*
X130876223Y-76839271D01*
X130561911Y-76969464D01*
X130279038Y-77158474D01*
X130245612Y-77191900D01*
X127744257Y-77191900D01*
X127679999Y-77185571D01*
X127649471Y-77188578D01*
X127470105Y-77152900D01*
X127129895Y-77152900D01*
X126796223Y-77219271D01*
X126481911Y-77349464D01*
X126199038Y-77538474D01*
X125958474Y-77779038D01*
X125769464Y-78061911D01*
X125639271Y-78376223D01*
X125572900Y-78709895D01*
X125572900Y-79050105D01*
X125639271Y-79383777D01*
X125769464Y-79698089D01*
X125958474Y-79980962D01*
X126199038Y-80221526D01*
X126481911Y-80410536D01*
X126796223Y-80540729D01*
X127129895Y-80607100D01*
X127470105Y-80607100D01*
X127803777Y-80540729D01*
X128118089Y-80410536D01*
X128326813Y-80271071D01*
X128235415Y-80382439D01*
X128149328Y-80543498D01*
X128096315Y-80718257D01*
X128078415Y-80900000D01*
X128078415Y-83100000D01*
X128096315Y-83281743D01*
X128149328Y-83456502D01*
X128235415Y-83617561D01*
X128344105Y-83750000D01*
X128235415Y-83882439D01*
X128149328Y-84043498D01*
X128096315Y-84218257D01*
X128078415Y-84400000D01*
X128078415Y-84768415D01*
X126500000Y-84768415D01*
X126318257Y-84786315D01*
X126143498Y-84839328D01*
X125982439Y-84925415D01*
X125841270Y-85041270D01*
X125725415Y-85182439D01*
X125639328Y-85343498D01*
X125586315Y-85518257D01*
X125568415Y-85700000D01*
X121218029Y-85700000D01*
X121210536Y-85681911D01*
X121021526Y-85399038D01*
X120852488Y-85230000D01*
X121021526Y-85060962D01*
X121210536Y-84778089D01*
X121340729Y-84463777D01*
X121407100Y-84130105D01*
X121407100Y-83789895D01*
X121340729Y-83456223D01*
X121210536Y-83141911D01*
X121021526Y-82859038D01*
X120852488Y-82690000D01*
X121021526Y-82520962D01*
X121210536Y-82238089D01*
X121340729Y-81923777D01*
X121407100Y-81590105D01*
X121407100Y-81249895D01*
X121340729Y-80916223D01*
X121210536Y-80601911D01*
X121021526Y-80319038D01*
X120780962Y-80078474D01*
X120498089Y-79889464D01*
X120183777Y-79759271D01*
X119850105Y-79692900D01*
X119509895Y-79692900D01*
X119176223Y-79759271D01*
X119152333Y-79769167D01*
X118415244Y-79032078D01*
X118374275Y-78982157D01*
X118175091Y-78818691D01*
X117947843Y-78697225D01*
X117701265Y-78622426D01*
X117509093Y-78603499D01*
X117444833Y-78597170D01*
X117380573Y-78603499D01*
X115152661Y-78603499D01*
X115088401Y-78597170D01*
X114831969Y-78622426D01*
X114585390Y-78697225D01*
X114474620Y-78756433D01*
X114358143Y-78818691D01*
X114158959Y-78982157D01*
X114117994Y-79032073D01*
X112920471Y-80229597D01*
X112877168Y-80272900D01*
X112829895Y-80272900D01*
X112496223Y-80339271D01*
X112181911Y-80469464D01*
X111899038Y-80658474D01*
X111658474Y-80899038D01*
X111469464Y-81181911D01*
X111339271Y-81496223D01*
X111272900Y-81829895D01*
X111272900Y-81877167D01*
X109078053Y-84072015D01*
X108981639Y-84091193D01*
X108658227Y-84225154D01*
X108367165Y-84419636D01*
X108230000Y-84556801D01*
X108092835Y-84419636D01*
X107801773Y-84225154D01*
X107478361Y-84091193D01*
X107135029Y-84022900D01*
X106784971Y-84022900D01*
X106441639Y-84091193D01*
X106118227Y-84225154D01*
X105827165Y-84419636D01*
X105579636Y-84667165D01*
X105385154Y-84958227D01*
X105251193Y-85281639D01*
X105182900Y-85624971D01*
X103977100Y-85624971D01*
X103977100Y-75977100D01*
X151873000Y-75977100D01*
X151873000Y-108522900D01*
G36*
X165908717Y-76050801D02*
G01*
X165539808Y-76203608D01*
X165207799Y-76425449D01*
X164925449Y-76707799D01*
X164703608Y-77039808D01*
X164550801Y-77408717D01*
X164472900Y-77800348D01*
X164472900Y-78199652D01*
X164550801Y-78591283D01*
X164703608Y-78960192D01*
X164925449Y-79292201D01*
X165207799Y-79574551D01*
X165539808Y-79796392D01*
X165908717Y-79949199D01*
X166300348Y-80027100D01*
X166699652Y-80027100D01*
X167091283Y-79949199D01*
X167460192Y-79796392D01*
X167792201Y-79574551D01*
X168074551Y-79292201D01*
X168296392Y-78960192D01*
X168449199Y-78591283D01*
X168527100Y-78199652D01*
X168527100Y-77800348D01*
X168449199Y-77408717D01*
X168296392Y-77039808D01*
X168074551Y-76707799D01*
X167792201Y-76425449D01*
X167460192Y-76203608D01*
X167091283Y-76050801D01*
X166720767Y-75977100D01*
X182022900Y-75977100D01*
X182022901Y-108522900D01*
X166720767Y-108522900D01*
X167091283Y-108449199D01*
X167460192Y-108296392D01*
X167792201Y-108074551D01*
X168074551Y-107792201D01*
X168296392Y-107460192D01*
X168449199Y-107091283D01*
X168527100Y-106699652D01*
X168527100Y-106300348D01*
X168449199Y-105908717D01*
X168296392Y-105539808D01*
X168074551Y-105207799D01*
X167792201Y-104925449D01*
X167460192Y-104703608D01*
X167091283Y-104550801D01*
X166699652Y-104472900D01*
X166300348Y-104472900D01*
X165908717Y-104550801D01*
X165539808Y-104703608D01*
X165207799Y-104925449D01*
X164925449Y-105207799D01*
X164703608Y-105539808D01*
X164550801Y-105908717D01*
X164472900Y-106300348D01*
X164472900Y-106699652D01*
X164550801Y-107091283D01*
X164703608Y-107460192D01*
X164925449Y-107792201D01*
X165207799Y-108074551D01*
X165539808Y-108296392D01*
X165908717Y-108449199D01*
X166279233Y-108522900D01*
X154127000Y-108522900D01*
X154127000Y-95825000D01*
X155870415Y-95825000D01*
X155870415Y-97095000D01*
X155888315Y-97276743D01*
X155941328Y-97451502D01*
X156027415Y-97612561D01*
X156123795Y-97730000D01*
X156027415Y-97847439D01*
X155941328Y-98008498D01*
X155888315Y-98183257D01*
X155870415Y-98365000D01*
X155870415Y-99635000D01*
X155888315Y-99816743D01*
X155941328Y-99991502D01*
X156027415Y-100152561D01*
X156123795Y-100270000D01*
X156027415Y-100387439D01*
X155941328Y-100548498D01*
X155888315Y-100723257D01*
X155870415Y-100905000D01*
X155870415Y-102175000D01*
X155888315Y-102356743D01*
X155941328Y-102531502D01*
X156027415Y-102692561D01*
X156143270Y-102833730D01*
X156284439Y-102949585D01*
X156445498Y-103035672D01*
X156620257Y-103088685D01*
X156802000Y-103106585D01*
X160358000Y-103106585D01*
X160539743Y-103088685D01*
X160714502Y-103035672D01*
X160875561Y-102949585D01*
X160999220Y-102848100D01*
X161408877Y-102848100D01*
X161681911Y-103030536D01*
X161996223Y-103160729D01*
X162329895Y-103227100D01*
X162670105Y-103227100D01*
X163003777Y-103160729D01*
X163318089Y-103030536D01*
X163600962Y-102841526D01*
X163841526Y-102600962D01*
X164030536Y-102318089D01*
X164160729Y-102003777D01*
X164227100Y-101670105D01*
X164227100Y-101329895D01*
X168392900Y-101329895D01*
X168392900Y-101670105D01*
X168459271Y-102003777D01*
X168589464Y-102318089D01*
X168778474Y-102600962D01*
X169019038Y-102841526D01*
X169301911Y-103030536D01*
X169616223Y-103160729D01*
X169949895Y-103227100D01*
X170290105Y-103227100D01*
X170623777Y-103160729D01*
X170938089Y-103030536D01*
X171220962Y-102841526D01*
X171254388Y-102808100D01*
X176118125Y-102808100D01*
X176287482Y-102977457D01*
X176599018Y-103185619D01*
X176945178Y-103329003D01*
X177312660Y-103402100D01*
X177687340Y-103402100D01*
X178054822Y-103329003D01*
X178400982Y-103185619D01*
X178712518Y-102977457D01*
X178977457Y-102712518D01*
X179185619Y-102400982D01*
X179329003Y-102054822D01*
X179402100Y-101687340D01*
X179402100Y-101312660D01*
X179329003Y-100945178D01*
X179185619Y-100599018D01*
X178977457Y-100287482D01*
X178712518Y-100022543D01*
X178400982Y-99814381D01*
X178054822Y-99670997D01*
X177687340Y-99597900D01*
X177312660Y-99597900D01*
X176945178Y-99670997D01*
X176599018Y-99814381D01*
X176287482Y-100022543D01*
X176118125Y-100191900D01*
X171254388Y-100191900D01*
X171220962Y-100158474D01*
X170938089Y-99969464D01*
X170623777Y-99839271D01*
X170290105Y-99772900D01*
X169949895Y-99772900D01*
X169616223Y-99839271D01*
X169301911Y-99969464D01*
X169019038Y-100158474D01*
X168778474Y-100399038D01*
X168589464Y-100681911D01*
X168459271Y-100996223D01*
X168392900Y-101329895D01*
X164227100Y-101329895D01*
X164160729Y-100996223D01*
X164030536Y-100681911D01*
X163841526Y-100399038D01*
X163600962Y-100158474D01*
X163318089Y-99969464D01*
X163003777Y-99839271D01*
X162670105Y-99772900D01*
X162329895Y-99772900D01*
X161996223Y-99839271D01*
X161681911Y-99969464D01*
X161399038Y-100158474D01*
X161325612Y-100231900D01*
X161067473Y-100231900D01*
X161132585Y-100152561D01*
X161218672Y-99991502D01*
X161271685Y-99816743D01*
X161289585Y-99635000D01*
X161289585Y-98365000D01*
X161271685Y-98183257D01*
X161218672Y-98008498D01*
X161132585Y-97847439D01*
X161067473Y-97768100D01*
X161325612Y-97768100D01*
X161399038Y-97841526D01*
X161681911Y-98030536D01*
X161996223Y-98160729D01*
X162329895Y-98227100D01*
X162670105Y-98227100D01*
X163003777Y-98160729D01*
X163318089Y-98030536D01*
X163600962Y-97841526D01*
X163841526Y-97600962D01*
X164030536Y-97318089D01*
X164160729Y-97003777D01*
X164227100Y-96670105D01*
X164227100Y-96329895D01*
X168392900Y-96329895D01*
X168392900Y-96670105D01*
X168459271Y-97003777D01*
X168589464Y-97318089D01*
X168778474Y-97600962D01*
X169019038Y-97841526D01*
X169301911Y-98030536D01*
X169616223Y-98160729D01*
X169949895Y-98227100D01*
X170290105Y-98227100D01*
X170623777Y-98160729D01*
X170938089Y-98030536D01*
X171220962Y-97841526D01*
X171254388Y-97808100D01*
X176118125Y-97808100D01*
X176287482Y-97977457D01*
X176599018Y-98185619D01*
X176945178Y-98329003D01*
X177312660Y-98402100D01*
X177687340Y-98402100D01*
X178054822Y-98329003D01*
X178400982Y-98185619D01*
X178712518Y-97977457D01*
X178977457Y-97712518D01*
X179185619Y-97400982D01*
X179329003Y-97054822D01*
X179402100Y-96687340D01*
X179402100Y-96312660D01*
X179329003Y-95945178D01*
X179185619Y-95599018D01*
X178977457Y-95287482D01*
X178712518Y-95022543D01*
X178400982Y-94814381D01*
X178054822Y-94670997D01*
X177687340Y-94597900D01*
X177312660Y-94597900D01*
X176945178Y-94670997D01*
X176599018Y-94814381D01*
X176287482Y-95022543D01*
X176118125Y-95191900D01*
X171254388Y-95191900D01*
X171220962Y-95158474D01*
X170938089Y-94969464D01*
X170623777Y-94839271D01*
X170290105Y-94772900D01*
X169949895Y-94772900D01*
X169616223Y-94839271D01*
X169301911Y-94969464D01*
X169019038Y-95158474D01*
X168778474Y-95399038D01*
X168589464Y-95681911D01*
X168459271Y-95996223D01*
X168392900Y-96329895D01*
X164227100Y-96329895D01*
X164160729Y-95996223D01*
X164030536Y-95681911D01*
X163841526Y-95399038D01*
X163600962Y-95158474D01*
X163318089Y-94969464D01*
X163003777Y-94839271D01*
X162670105Y-94772900D01*
X162329895Y-94772900D01*
X161996223Y-94839271D01*
X161681911Y-94969464D01*
X161408877Y-95151900D01*
X160999220Y-95151900D01*
X160875561Y-95050415D01*
X160714502Y-94964328D01*
X160539743Y-94911315D01*
X160358000Y-94893415D01*
X156802000Y-94893415D01*
X156620257Y-94911315D01*
X156445498Y-94964328D01*
X156284439Y-95050415D01*
X156143270Y-95166270D01*
X156027415Y-95307439D01*
X155941328Y-95468498D01*
X155888315Y-95643257D01*
X155870415Y-95825000D01*
X154127000Y-95825000D01*
X154127000Y-82325000D01*
X155870415Y-82325000D01*
X155870415Y-83595000D01*
X155888315Y-83776743D01*
X155941328Y-83951502D01*
X156027415Y-84112561D01*
X156123795Y-84230000D01*
X156027415Y-84347439D01*
X155941328Y-84508498D01*
X155888315Y-84683257D01*
X155870415Y-84865000D01*
X155870415Y-86135000D01*
X155888315Y-86316743D01*
X155941328Y-86491502D01*
X156027415Y-86652561D01*
X156123795Y-86770000D01*
X156027415Y-86887439D01*
X155941328Y-87048498D01*
X155888315Y-87223257D01*
X155870415Y-87405000D01*
X155870415Y-88675000D01*
X155888315Y-88856743D01*
X155941328Y-89031502D01*
X156027415Y-89192561D01*
X156143270Y-89333730D01*
X156284439Y-89449585D01*
X156445498Y-89535672D01*
X156620257Y-89588685D01*
X156802000Y-89606585D01*
X160358000Y-89606585D01*
X160539743Y-89588685D01*
X160714502Y-89535672D01*
X160875561Y-89449585D01*
X160999220Y-89348100D01*
X161408877Y-89348100D01*
X161681911Y-89530536D01*
X161996223Y-89660729D01*
X162329895Y-89727100D01*
X162670105Y-89727100D01*
X163003777Y-89660729D01*
X163318089Y-89530536D01*
X163600962Y-89341526D01*
X163841526Y-89100962D01*
X164030536Y-88818089D01*
X164160729Y-88503777D01*
X164227100Y-88170105D01*
X164227100Y-87829895D01*
X168392900Y-87829895D01*
X168392900Y-88170105D01*
X168459271Y-88503777D01*
X168589464Y-88818089D01*
X168778474Y-89100962D01*
X169019038Y-89341526D01*
X169301911Y-89530536D01*
X169616223Y-89660729D01*
X169949895Y-89727100D01*
X170290105Y-89727100D01*
X170623777Y-89660729D01*
X170938089Y-89530536D01*
X171220962Y-89341526D01*
X171254388Y-89308100D01*
X176118125Y-89308100D01*
X176287482Y-89477457D01*
X176599018Y-89685619D01*
X176945178Y-89829003D01*
X177312660Y-89902100D01*
X177687340Y-89902100D01*
X178054822Y-89829003D01*
X178400982Y-89685619D01*
X178712518Y-89477457D01*
X178977457Y-89212518D01*
X179185619Y-88900982D01*
X179329003Y-88554822D01*
X179402100Y-88187340D01*
X179402100Y-87812660D01*
X179329003Y-87445178D01*
X179185619Y-87099018D01*
X178977457Y-86787482D01*
X178712518Y-86522543D01*
X178400982Y-86314381D01*
X178054822Y-86170997D01*
X177687340Y-86097900D01*
X177312660Y-86097900D01*
X176945178Y-86170997D01*
X176599018Y-86314381D01*
X176287482Y-86522543D01*
X176118125Y-86691900D01*
X171254388Y-86691900D01*
X171220962Y-86658474D01*
X170938089Y-86469464D01*
X170623777Y-86339271D01*
X170290105Y-86272900D01*
X169949895Y-86272900D01*
X169616223Y-86339271D01*
X169301911Y-86469464D01*
X169019038Y-86658474D01*
X168778474Y-86899038D01*
X168589464Y-87181911D01*
X168459271Y-87496223D01*
X168392900Y-87829895D01*
X164227100Y-87829895D01*
X164160729Y-87496223D01*
X164030536Y-87181911D01*
X163841526Y-86899038D01*
X163600962Y-86658474D01*
X163318089Y-86469464D01*
X163003777Y-86339271D01*
X162670105Y-86272900D01*
X162329895Y-86272900D01*
X161996223Y-86339271D01*
X161681911Y-86469464D01*
X161399038Y-86658474D01*
X161325612Y-86731900D01*
X161067473Y-86731900D01*
X161132585Y-86652561D01*
X161218672Y-86491502D01*
X161271685Y-86316743D01*
X161289585Y-86135000D01*
X161289585Y-84865000D01*
X161271685Y-84683257D01*
X161218672Y-84508498D01*
X161132585Y-84347439D01*
X161067473Y-84268100D01*
X161325612Y-84268100D01*
X161399038Y-84341526D01*
X161681911Y-84530536D01*
X161996223Y-84660729D01*
X162329895Y-84727100D01*
X162670105Y-84727100D01*
X163003777Y-84660729D01*
X163318089Y-84530536D01*
X163600962Y-84341526D01*
X163841526Y-84100962D01*
X164030536Y-83818089D01*
X164160729Y-83503777D01*
X164227100Y-83170105D01*
X164227100Y-82829895D01*
X168392900Y-82829895D01*
X168392900Y-83170105D01*
X168459271Y-83503777D01*
X168589464Y-83818089D01*
X168778474Y-84100962D01*
X169019038Y-84341526D01*
X169301911Y-84530536D01*
X169616223Y-84660729D01*
X169949895Y-84727100D01*
X170290105Y-84727100D01*
X170623777Y-84660729D01*
X170938089Y-84530536D01*
X171220962Y-84341526D01*
X171254388Y-84308100D01*
X176118125Y-84308100D01*
X176287482Y-84477457D01*
X176599018Y-84685619D01*
X176945178Y-84829003D01*
X177312660Y-84902100D01*
X177687340Y-84902100D01*
X178054822Y-84829003D01*
X178400982Y-84685619D01*
X178712518Y-84477457D01*
X178977457Y-84212518D01*
X179185619Y-83900982D01*
X179329003Y-83554822D01*
X179402100Y-83187340D01*
X179402100Y-82812660D01*
X179329003Y-82445178D01*
X179185619Y-82099018D01*
X178977457Y-81787482D01*
X178712518Y-81522543D01*
X178400982Y-81314381D01*
X178054822Y-81170997D01*
X177687340Y-81097900D01*
X177312660Y-81097900D01*
X176945178Y-81170997D01*
X176599018Y-81314381D01*
X176287482Y-81522543D01*
X176118125Y-81691900D01*
X171254388Y-81691900D01*
X171220962Y-81658474D01*
X170938089Y-81469464D01*
X170623777Y-81339271D01*
X170290105Y-81272900D01*
X169949895Y-81272900D01*
X169616223Y-81339271D01*
X169301911Y-81469464D01*
X169019038Y-81658474D01*
X168778474Y-81899038D01*
X168589464Y-82181911D01*
X168459271Y-82496223D01*
X168392900Y-82829895D01*
X164227100Y-82829895D01*
X164160729Y-82496223D01*
X164030536Y-82181911D01*
X163841526Y-81899038D01*
X163600962Y-81658474D01*
X163318089Y-81469464D01*
X163003777Y-81339271D01*
X162670105Y-81272900D01*
X162329895Y-81272900D01*
X161996223Y-81339271D01*
X161681911Y-81469464D01*
X161408877Y-81651900D01*
X160999220Y-81651900D01*
X160875561Y-81550415D01*
X160714502Y-81464328D01*
X160539743Y-81411315D01*
X160358000Y-81393415D01*
X156802000Y-81393415D01*
X156620257Y-81411315D01*
X156445498Y-81464328D01*
X156284439Y-81550415D01*
X156143270Y-81666270D01*
X156027415Y-81807439D01*
X155941328Y-81968498D01*
X155888315Y-82143257D01*
X155870415Y-82325000D01*
X154127000Y-82325000D01*
X154127000Y-75977100D01*
X166279233Y-75977100D01*
X165908717Y-76050801D01*
G37*
X165908717Y-76050801D02*
X165539808Y-76203608D01*
X165207799Y-76425449D01*
X164925449Y-76707799D01*
X164703608Y-77039808D01*
X164550801Y-77408717D01*
X164472900Y-77800348D01*
X164472900Y-78199652D01*
X164550801Y-78591283D01*
X164703608Y-78960192D01*
X164925449Y-79292201D01*
X165207799Y-79574551D01*
X165539808Y-79796392D01*
X165908717Y-79949199D01*
X166300348Y-80027100D01*
X166699652Y-80027100D01*
X167091283Y-79949199D01*
X167460192Y-79796392D01*
X167792201Y-79574551D01*
X168074551Y-79292201D01*
X168296392Y-78960192D01*
X168449199Y-78591283D01*
X168527100Y-78199652D01*
X168527100Y-77800348D01*
X168449199Y-77408717D01*
X168296392Y-77039808D01*
X168074551Y-76707799D01*
X167792201Y-76425449D01*
X167460192Y-76203608D01*
X167091283Y-76050801D01*
X166720767Y-75977100D01*
X182022900Y-75977100D01*
X182022901Y-108522900D01*
X166720767Y-108522900D01*
X167091283Y-108449199D01*
X167460192Y-108296392D01*
X167792201Y-108074551D01*
X168074551Y-107792201D01*
X168296392Y-107460192D01*
X168449199Y-107091283D01*
X168527100Y-106699652D01*
X168527100Y-106300348D01*
X168449199Y-105908717D01*
X168296392Y-105539808D01*
X168074551Y-105207799D01*
X167792201Y-104925449D01*
X167460192Y-104703608D01*
X167091283Y-104550801D01*
X166699652Y-104472900D01*
X166300348Y-104472900D01*
X165908717Y-104550801D01*
X165539808Y-104703608D01*
X165207799Y-104925449D01*
X164925449Y-105207799D01*
X164703608Y-105539808D01*
X164550801Y-105908717D01*
X164472900Y-106300348D01*
X164472900Y-106699652D01*
X164550801Y-107091283D01*
X164703608Y-107460192D01*
X164925449Y-107792201D01*
X165207799Y-108074551D01*
X165539808Y-108296392D01*
X165908717Y-108449199D01*
X166279233Y-108522900D01*
X154127000Y-108522900D01*
X154127000Y-95825000D01*
X155870415Y-95825000D01*
X155870415Y-97095000D01*
X155888315Y-97276743D01*
X155941328Y-97451502D01*
X156027415Y-97612561D01*
X156123795Y-97730000D01*
X156027415Y-97847439D01*
X155941328Y-98008498D01*
X155888315Y-98183257D01*
X155870415Y-98365000D01*
X155870415Y-99635000D01*
X155888315Y-99816743D01*
X155941328Y-99991502D01*
X156027415Y-100152561D01*
X156123795Y-100270000D01*
X156027415Y-100387439D01*
X155941328Y-100548498D01*
X155888315Y-100723257D01*
X155870415Y-100905000D01*
X155870415Y-102175000D01*
X155888315Y-102356743D01*
X155941328Y-102531502D01*
X156027415Y-102692561D01*
X156143270Y-102833730D01*
X156284439Y-102949585D01*
X156445498Y-103035672D01*
X156620257Y-103088685D01*
X156802000Y-103106585D01*
X160358000Y-103106585D01*
X160539743Y-103088685D01*
X160714502Y-103035672D01*
X160875561Y-102949585D01*
X160999220Y-102848100D01*
X161408877Y-102848100D01*
X161681911Y-103030536D01*
X161996223Y-103160729D01*
X162329895Y-103227100D01*
X162670105Y-103227100D01*
X163003777Y-103160729D01*
X163318089Y-103030536D01*
X163600962Y-102841526D01*
X163841526Y-102600962D01*
X164030536Y-102318089D01*
X164160729Y-102003777D01*
X164227100Y-101670105D01*
X164227100Y-101329895D01*
X168392900Y-101329895D01*
X168392900Y-101670105D01*
X168459271Y-102003777D01*
X168589464Y-102318089D01*
X168778474Y-102600962D01*
X169019038Y-102841526D01*
X169301911Y-103030536D01*
X169616223Y-103160729D01*
X169949895Y-103227100D01*
X170290105Y-103227100D01*
X170623777Y-103160729D01*
X170938089Y-103030536D01*
X171220962Y-102841526D01*
X171254388Y-102808100D01*
X176118125Y-102808100D01*
X176287482Y-102977457D01*
X176599018Y-103185619D01*
X176945178Y-103329003D01*
X177312660Y-103402100D01*
X177687340Y-103402100D01*
X178054822Y-103329003D01*
X178400982Y-103185619D01*
X178712518Y-102977457D01*
X178977457Y-102712518D01*
X179185619Y-102400982D01*
X179329003Y-102054822D01*
X179402100Y-101687340D01*
X179402100Y-101312660D01*
X179329003Y-100945178D01*
X179185619Y-100599018D01*
X178977457Y-100287482D01*
X178712518Y-100022543D01*
X178400982Y-99814381D01*
X178054822Y-99670997D01*
X177687340Y-99597900D01*
X177312660Y-99597900D01*
X176945178Y-99670997D01*
X176599018Y-99814381D01*
X176287482Y-100022543D01*
X176118125Y-100191900D01*
X171254388Y-100191900D01*
X171220962Y-100158474D01*
X170938089Y-99969464D01*
X170623777Y-99839271D01*
X170290105Y-99772900D01*
X169949895Y-99772900D01*
X169616223Y-99839271D01*
X169301911Y-99969464D01*
X169019038Y-100158474D01*
X168778474Y-100399038D01*
X168589464Y-100681911D01*
X168459271Y-100996223D01*
X168392900Y-101329895D01*
X164227100Y-101329895D01*
X164160729Y-100996223D01*
X164030536Y-100681911D01*
X163841526Y-100399038D01*
X163600962Y-100158474D01*
X163318089Y-99969464D01*
X163003777Y-99839271D01*
X162670105Y-99772900D01*
X162329895Y-99772900D01*
X161996223Y-99839271D01*
X161681911Y-99969464D01*
X161399038Y-100158474D01*
X161325612Y-100231900D01*
X161067473Y-100231900D01*
X161132585Y-100152561D01*
X161218672Y-99991502D01*
X161271685Y-99816743D01*
X161289585Y-99635000D01*
X161289585Y-98365000D01*
X161271685Y-98183257D01*
X161218672Y-98008498D01*
X161132585Y-97847439D01*
X161067473Y-97768100D01*
X161325612Y-97768100D01*
X161399038Y-97841526D01*
X161681911Y-98030536D01*
X161996223Y-98160729D01*
X162329895Y-98227100D01*
X162670105Y-98227100D01*
X163003777Y-98160729D01*
X163318089Y-98030536D01*
X163600962Y-97841526D01*
X163841526Y-97600962D01*
X164030536Y-97318089D01*
X164160729Y-97003777D01*
X164227100Y-96670105D01*
X164227100Y-96329895D01*
X168392900Y-96329895D01*
X168392900Y-96670105D01*
X168459271Y-97003777D01*
X168589464Y-97318089D01*
X168778474Y-97600962D01*
X169019038Y-97841526D01*
X169301911Y-98030536D01*
X169616223Y-98160729D01*
X169949895Y-98227100D01*
X170290105Y-98227100D01*
X170623777Y-98160729D01*
X170938089Y-98030536D01*
X171220962Y-97841526D01*
X171254388Y-97808100D01*
X176118125Y-97808100D01*
X176287482Y-97977457D01*
X176599018Y-98185619D01*
X176945178Y-98329003D01*
X177312660Y-98402100D01*
X177687340Y-98402100D01*
X178054822Y-98329003D01*
X178400982Y-98185619D01*
X178712518Y-97977457D01*
X178977457Y-97712518D01*
X179185619Y-97400982D01*
X179329003Y-97054822D01*
X179402100Y-96687340D01*
X179402100Y-96312660D01*
X179329003Y-95945178D01*
X179185619Y-95599018D01*
X178977457Y-95287482D01*
X178712518Y-95022543D01*
X178400982Y-94814381D01*
X178054822Y-94670997D01*
X177687340Y-94597900D01*
X177312660Y-94597900D01*
X176945178Y-94670997D01*
X176599018Y-94814381D01*
X176287482Y-95022543D01*
X176118125Y-95191900D01*
X171254388Y-95191900D01*
X171220962Y-95158474D01*
X170938089Y-94969464D01*
X170623777Y-94839271D01*
X170290105Y-94772900D01*
X169949895Y-94772900D01*
X169616223Y-94839271D01*
X169301911Y-94969464D01*
X169019038Y-95158474D01*
X168778474Y-95399038D01*
X168589464Y-95681911D01*
X168459271Y-95996223D01*
X168392900Y-96329895D01*
X164227100Y-96329895D01*
X164160729Y-95996223D01*
X164030536Y-95681911D01*
X163841526Y-95399038D01*
X163600962Y-95158474D01*
X163318089Y-94969464D01*
X163003777Y-94839271D01*
X162670105Y-94772900D01*
X162329895Y-94772900D01*
X161996223Y-94839271D01*
X161681911Y-94969464D01*
X161408877Y-95151900D01*
X160999220Y-95151900D01*
X160875561Y-95050415D01*
X160714502Y-94964328D01*
X160539743Y-94911315D01*
X160358000Y-94893415D01*
X156802000Y-94893415D01*
X156620257Y-94911315D01*
X156445498Y-94964328D01*
X156284439Y-95050415D01*
X156143270Y-95166270D01*
X156027415Y-95307439D01*
X155941328Y-95468498D01*
X155888315Y-95643257D01*
X155870415Y-95825000D01*
X154127000Y-95825000D01*
X154127000Y-82325000D01*
X155870415Y-82325000D01*
X155870415Y-83595000D01*
X155888315Y-83776743D01*
X155941328Y-83951502D01*
X156027415Y-84112561D01*
X156123795Y-84230000D01*
X156027415Y-84347439D01*
X155941328Y-84508498D01*
X155888315Y-84683257D01*
X155870415Y-84865000D01*
X155870415Y-86135000D01*
X155888315Y-86316743D01*
X155941328Y-86491502D01*
X156027415Y-86652561D01*
X156123795Y-86770000D01*
X156027415Y-86887439D01*
X155941328Y-87048498D01*
X155888315Y-87223257D01*
X155870415Y-87405000D01*
X155870415Y-88675000D01*
X155888315Y-88856743D01*
X155941328Y-89031502D01*
X156027415Y-89192561D01*
X156143270Y-89333730D01*
X156284439Y-89449585D01*
X156445498Y-89535672D01*
X156620257Y-89588685D01*
X156802000Y-89606585D01*
X160358000Y-89606585D01*
X160539743Y-89588685D01*
X160714502Y-89535672D01*
X160875561Y-89449585D01*
X160999220Y-89348100D01*
X161408877Y-89348100D01*
X161681911Y-89530536D01*
X161996223Y-89660729D01*
X162329895Y-89727100D01*
X162670105Y-89727100D01*
X163003777Y-89660729D01*
X163318089Y-89530536D01*
X163600962Y-89341526D01*
X163841526Y-89100962D01*
X164030536Y-88818089D01*
X164160729Y-88503777D01*
X164227100Y-88170105D01*
X164227100Y-87829895D01*
X168392900Y-87829895D01*
X168392900Y-88170105D01*
X168459271Y-88503777D01*
X168589464Y-88818089D01*
X168778474Y-89100962D01*
X169019038Y-89341526D01*
X169301911Y-89530536D01*
X169616223Y-89660729D01*
X169949895Y-89727100D01*
X170290105Y-89727100D01*
X170623777Y-89660729D01*
X170938089Y-89530536D01*
X171220962Y-89341526D01*
X171254388Y-89308100D01*
X176118125Y-89308100D01*
X176287482Y-89477457D01*
X176599018Y-89685619D01*
X176945178Y-89829003D01*
X177312660Y-89902100D01*
X177687340Y-89902100D01*
X178054822Y-89829003D01*
X178400982Y-89685619D01*
X178712518Y-89477457D01*
X178977457Y-89212518D01*
X179185619Y-88900982D01*
X179329003Y-88554822D01*
X179402100Y-88187340D01*
X179402100Y-87812660D01*
X179329003Y-87445178D01*
X179185619Y-87099018D01*
X178977457Y-86787482D01*
X178712518Y-86522543D01*
X178400982Y-86314381D01*
X178054822Y-86170997D01*
X177687340Y-86097900D01*
X177312660Y-86097900D01*
X176945178Y-86170997D01*
X176599018Y-86314381D01*
X176287482Y-86522543D01*
X176118125Y-86691900D01*
X171254388Y-86691900D01*
X171220962Y-86658474D01*
X170938089Y-86469464D01*
X170623777Y-86339271D01*
X170290105Y-86272900D01*
X169949895Y-86272900D01*
X169616223Y-86339271D01*
X169301911Y-86469464D01*
X169019038Y-86658474D01*
X168778474Y-86899038D01*
X168589464Y-87181911D01*
X168459271Y-87496223D01*
X168392900Y-87829895D01*
X164227100Y-87829895D01*
X164160729Y-87496223D01*
X164030536Y-87181911D01*
X163841526Y-86899038D01*
X163600962Y-86658474D01*
X163318089Y-86469464D01*
X163003777Y-86339271D01*
X162670105Y-86272900D01*
X162329895Y-86272900D01*
X161996223Y-86339271D01*
X161681911Y-86469464D01*
X161399038Y-86658474D01*
X161325612Y-86731900D01*
X161067473Y-86731900D01*
X161132585Y-86652561D01*
X161218672Y-86491502D01*
X161271685Y-86316743D01*
X161289585Y-86135000D01*
X161289585Y-84865000D01*
X161271685Y-84683257D01*
X161218672Y-84508498D01*
X161132585Y-84347439D01*
X161067473Y-84268100D01*
X161325612Y-84268100D01*
X161399038Y-84341526D01*
X161681911Y-84530536D01*
X161996223Y-84660729D01*
X162329895Y-84727100D01*
X162670105Y-84727100D01*
X163003777Y-84660729D01*
X163318089Y-84530536D01*
X163600962Y-84341526D01*
X163841526Y-84100962D01*
X164030536Y-83818089D01*
X164160729Y-83503777D01*
X164227100Y-83170105D01*
X164227100Y-82829895D01*
X168392900Y-82829895D01*
X168392900Y-83170105D01*
X168459271Y-83503777D01*
X168589464Y-83818089D01*
X168778474Y-84100962D01*
X169019038Y-84341526D01*
X169301911Y-84530536D01*
X169616223Y-84660729D01*
X169949895Y-84727100D01*
X170290105Y-84727100D01*
X170623777Y-84660729D01*
X170938089Y-84530536D01*
X171220962Y-84341526D01*
X171254388Y-84308100D01*
X176118125Y-84308100D01*
X176287482Y-84477457D01*
X176599018Y-84685619D01*
X176945178Y-84829003D01*
X177312660Y-84902100D01*
X177687340Y-84902100D01*
X178054822Y-84829003D01*
X178400982Y-84685619D01*
X178712518Y-84477457D01*
X178977457Y-84212518D01*
X179185619Y-83900982D01*
X179329003Y-83554822D01*
X179402100Y-83187340D01*
X179402100Y-82812660D01*
X179329003Y-82445178D01*
X179185619Y-82099018D01*
X178977457Y-81787482D01*
X178712518Y-81522543D01*
X178400982Y-81314381D01*
X178054822Y-81170997D01*
X177687340Y-81097900D01*
X177312660Y-81097900D01*
X176945178Y-81170997D01*
X176599018Y-81314381D01*
X176287482Y-81522543D01*
X176118125Y-81691900D01*
X171254388Y-81691900D01*
X171220962Y-81658474D01*
X170938089Y-81469464D01*
X170623777Y-81339271D01*
X170290105Y-81272900D01*
X169949895Y-81272900D01*
X169616223Y-81339271D01*
X169301911Y-81469464D01*
X169019038Y-81658474D01*
X168778474Y-81899038D01*
X168589464Y-82181911D01*
X168459271Y-82496223D01*
X168392900Y-82829895D01*
X164227100Y-82829895D01*
X164160729Y-82496223D01*
X164030536Y-82181911D01*
X163841526Y-81899038D01*
X163600962Y-81658474D01*
X163318089Y-81469464D01*
X163003777Y-81339271D01*
X162670105Y-81272900D01*
X162329895Y-81272900D01*
X161996223Y-81339271D01*
X161681911Y-81469464D01*
X161408877Y-81651900D01*
X160999220Y-81651900D01*
X160875561Y-81550415D01*
X160714502Y-81464328D01*
X160539743Y-81411315D01*
X160358000Y-81393415D01*
X156802000Y-81393415D01*
X156620257Y-81411315D01*
X156445498Y-81464328D01*
X156284439Y-81550415D01*
X156143270Y-81666270D01*
X156027415Y-81807439D01*
X155941328Y-81968498D01*
X155888315Y-82143257D01*
X155870415Y-82325000D01*
X154127000Y-82325000D01*
X154127000Y-75977100D01*
X166279233Y-75977100D01*
X165908717Y-76050801D01*
M02*
