G04 #@! TF.GenerationSoftware,KiCad,Pcbnew,5.1.5+dfsg1-2build2*
G04 #@! TF.CreationDate,2021-08-02T08:46:37-04:00*
G04 #@! TF.ProjectId,pmod_1553,706d6f64-5f31-4353-9533-2e6b69636164,rev?*
G04 #@! TF.SameCoordinates,Original*
G04 #@! TF.FileFunction,Copper,L2,Bot*
G04 #@! TF.FilePolarity,Positive*
%FSLAX46Y46*%
G04 Gerber Fmt 4.6, Leading zero omitted, Abs format (unit mm)*
G04 Created by KiCad (PCBNEW 5.1.5+dfsg1-2build2) date 2021-08-02 08:46:37*
%MOMM*%
%LPD*%
G04 APERTURE LIST*
%ADD10C,1.600000*%
%ADD11O,1.700000X1.700000*%
%ADD12R,1.700000X1.700000*%
%ADD13O,2.200000X1.740000*%
%ADD14C,0.100000*%
%ADD15O,1.600000X1.600000*%
%ADD16C,1.303000*%
%ADD17R,1.600000X1.600000*%
%ADD18C,1.950000*%
%ADD19R,3.556000X1.270000*%
%ADD20C,0.762000*%
%ADD21C,0.254000*%
G04 APERTURE END LIST*
D10*
X120500000Y-88000000D03*
X120500000Y-83000000D03*
X113500000Y-79000000D03*
X108500000Y-79000000D03*
D11*
X167500000Y-90960000D03*
D12*
X167500000Y-93500000D03*
D13*
X162000000Y-93540000D03*
G04 #@! TA.AperFunction,ComponentPad*
D14*
G36*
X162874505Y-90131204D02*
G01*
X162898773Y-90134804D01*
X162922572Y-90140765D01*
X162945671Y-90149030D01*
X162967850Y-90159520D01*
X162988893Y-90172132D01*
X163008599Y-90186747D01*
X163026777Y-90203223D01*
X163043253Y-90221401D01*
X163057868Y-90241107D01*
X163070480Y-90262150D01*
X163080970Y-90284329D01*
X163089235Y-90307428D01*
X163095196Y-90331227D01*
X163098796Y-90355495D01*
X163100000Y-90379999D01*
X163100000Y-91620001D01*
X163098796Y-91644505D01*
X163095196Y-91668773D01*
X163089235Y-91692572D01*
X163080970Y-91715671D01*
X163070480Y-91737850D01*
X163057868Y-91758893D01*
X163043253Y-91778599D01*
X163026777Y-91796777D01*
X163008599Y-91813253D01*
X162988893Y-91827868D01*
X162967850Y-91840480D01*
X162945671Y-91850970D01*
X162922572Y-91859235D01*
X162898773Y-91865196D01*
X162874505Y-91868796D01*
X162850001Y-91870000D01*
X161149999Y-91870000D01*
X161125495Y-91868796D01*
X161101227Y-91865196D01*
X161077428Y-91859235D01*
X161054329Y-91850970D01*
X161032150Y-91840480D01*
X161011107Y-91827868D01*
X160991401Y-91813253D01*
X160973223Y-91796777D01*
X160956747Y-91778599D01*
X160942132Y-91758893D01*
X160929520Y-91737850D01*
X160919030Y-91715671D01*
X160910765Y-91692572D01*
X160904804Y-91668773D01*
X160901204Y-91644505D01*
X160900000Y-91620001D01*
X160900000Y-90379999D01*
X160901204Y-90355495D01*
X160904804Y-90331227D01*
X160910765Y-90307428D01*
X160919030Y-90284329D01*
X160929520Y-90262150D01*
X160942132Y-90241107D01*
X160956747Y-90221401D01*
X160973223Y-90203223D01*
X160991401Y-90186747D01*
X161011107Y-90172132D01*
X161032150Y-90159520D01*
X161054329Y-90149030D01*
X161077428Y-90140765D01*
X161101227Y-90134804D01*
X161125495Y-90131204D01*
X161149999Y-90130000D01*
X162850001Y-90130000D01*
X162874505Y-90131204D01*
G37*
G04 #@! TD.AperFunction*
D10*
X150500000Y-79000000D03*
X155500000Y-79000000D03*
X130000000Y-90000000D03*
X125000000Y-90000000D03*
X132800000Y-94000000D03*
X127800000Y-94000000D03*
X144000000Y-105000000D03*
X144000000Y-100000000D03*
X144000000Y-97500000D03*
X144000000Y-92500000D03*
D15*
X137000000Y-102000000D03*
D10*
X137000000Y-94380000D03*
D15*
X140500000Y-94380000D03*
D10*
X140500000Y-102000000D03*
D15*
X117000000Y-81880000D03*
D10*
X117000000Y-89500000D03*
D15*
X113500000Y-89620000D03*
D10*
X113500000Y-82000000D03*
D16*
X122120000Y-105000000D03*
X119580000Y-105000000D03*
X117040000Y-105000000D03*
X114500000Y-105000000D03*
D10*
X107500000Y-106000000D03*
D17*
X107500000Y-103500000D03*
D18*
X177500000Y-83000000D03*
X177500000Y-88000000D03*
X177500000Y-96500000D03*
X177500000Y-101500000D03*
D19*
X147785000Y-88040000D03*
X147785000Y-85500000D03*
X147785000Y-82960000D03*
X158580000Y-88040000D03*
X158580000Y-85500000D03*
X158580000Y-82960000D03*
X147785000Y-101540000D03*
X147785000Y-99000000D03*
X147785000Y-96460000D03*
X158580000Y-101540000D03*
X158580000Y-99000000D03*
X158580000Y-96460000D03*
D11*
X106960000Y-85800000D03*
X109500000Y-85800000D03*
X106960000Y-88340000D03*
X109500000Y-88340000D03*
X106960000Y-90880000D03*
X109500000Y-90880000D03*
X106960000Y-93420000D03*
X109500000Y-93420000D03*
X106960000Y-95960000D03*
X109500000Y-95960000D03*
X106960000Y-98500000D03*
D12*
X109500000Y-98500000D03*
D15*
X123680000Y-86500000D03*
X131300000Y-78880000D03*
X123680000Y-83960000D03*
X131300000Y-81420000D03*
X123680000Y-81420000D03*
X131300000Y-83960000D03*
X123680000Y-78880000D03*
D17*
X131300000Y-86500000D03*
D15*
X134120000Y-97500000D03*
X126500000Y-105120000D03*
X134120000Y-100040000D03*
X126500000Y-102580000D03*
X134120000Y-102580000D03*
X126500000Y-100040000D03*
X134120000Y-105120000D03*
D17*
X126500000Y-97500000D03*
D15*
X162500000Y-87500000D03*
D10*
X170120000Y-87500000D03*
D15*
X162500000Y-83000000D03*
D10*
X170120000Y-83000000D03*
D15*
X170120000Y-101500000D03*
D10*
X162500000Y-101500000D03*
D15*
X162500000Y-97000000D03*
D10*
X170120000Y-97000000D03*
D15*
X135380000Y-86500000D03*
D10*
X143000000Y-86500000D03*
D15*
X135380000Y-78500000D03*
D10*
X143000000Y-78500000D03*
D15*
X114880000Y-93500000D03*
D10*
X122500000Y-93500000D03*
D15*
X114880000Y-97000000D03*
D10*
X122500000Y-97000000D03*
D20*
X109000000Y-99000000D02*
X109500000Y-98500000D01*
X109500000Y-98500000D02*
X106960000Y-98500000D01*
X107500000Y-100500000D02*
X109500000Y-98500000D01*
X107500000Y-103500000D02*
X107500000Y-100500000D01*
X109062000Y-103500000D02*
X110562000Y-102000000D01*
X107500000Y-103500000D02*
X109062000Y-103500000D01*
X117040000Y-104078640D02*
X117040000Y-105000000D01*
X117040000Y-103406348D02*
X117040000Y-104078640D01*
X115633652Y-102000000D02*
X117040000Y-103406348D01*
X110562000Y-102000000D02*
X115633652Y-102000000D01*
X117299999Y-104740001D02*
X117040000Y-105000000D01*
X113620000Y-89500000D02*
X113500000Y-89620000D01*
X117000000Y-89500000D02*
X113620000Y-89500000D01*
X117000000Y-104960000D02*
X117040000Y-105000000D01*
X117000000Y-89500000D02*
X117000000Y-104960000D01*
X140500000Y-100868630D02*
X140500000Y-102000000D01*
X140500000Y-99868630D02*
X140500000Y-100868630D01*
X142868630Y-97500000D02*
X140500000Y-99868630D01*
X144000000Y-97500000D02*
X142868630Y-97500000D01*
X145040000Y-96460000D02*
X144000000Y-97500000D01*
X147785000Y-96460000D02*
X145040000Y-96460000D01*
X135251370Y-100040000D02*
X134120000Y-100040000D01*
X135259771Y-100031599D02*
X135251370Y-100040000D01*
X140500000Y-102000000D02*
X139071196Y-102000000D01*
X137944833Y-100031599D02*
X135259771Y-100031599D01*
X138968401Y-101055167D02*
X137944833Y-100031599D01*
X138968401Y-101897205D02*
X138968401Y-101055167D01*
X139071196Y-102000000D02*
X138968401Y-101897205D01*
X134120000Y-102580000D02*
X134460000Y-102580000D01*
X134540000Y-103000000D02*
X134120000Y-102580000D01*
X145540000Y-101540000D02*
X147785000Y-101540000D01*
X144000000Y-100000000D02*
X145540000Y-101540000D01*
X143000000Y-100000000D02*
X144000000Y-100000000D01*
X142468401Y-100531599D02*
X143000000Y-100000000D01*
X142468401Y-102944833D02*
X142468401Y-100531599D01*
X141444833Y-103968401D02*
X142468401Y-102944833D01*
X138848401Y-103968401D02*
X141444833Y-103968401D01*
X137000000Y-102120000D02*
X138848401Y-103968401D01*
X134580000Y-102120000D02*
X137000000Y-102120000D01*
X134120000Y-102580000D02*
X134580000Y-102120000D01*
X110702081Y-90880000D02*
X109500000Y-90880000D01*
X111692671Y-91870590D02*
X110702081Y-90880000D01*
X113250590Y-91870590D02*
X114880000Y-93500000D01*
X111692671Y-91870590D02*
X113250590Y-91870590D01*
X159120000Y-87500000D02*
X158580000Y-88040000D01*
X162500000Y-87500000D02*
X159120000Y-87500000D01*
X161880000Y-82960000D02*
X161920000Y-83000000D01*
X157850000Y-82960000D02*
X161880000Y-82960000D01*
X111300000Y-93420000D02*
X109500000Y-93420000D01*
X114880000Y-97000000D02*
X111300000Y-93420000D01*
X162000000Y-101540000D02*
X162040000Y-101500000D01*
X162460000Y-101540000D02*
X162500000Y-101500000D01*
X158580000Y-101540000D02*
X162460000Y-101540000D01*
X159120000Y-97000000D02*
X158580000Y-96460000D01*
X162500000Y-97000000D02*
X159120000Y-97000000D01*
X122500000Y-98131370D02*
X122500000Y-97000000D01*
X122500000Y-102251370D02*
X122500000Y-98131370D01*
X125368630Y-105120000D02*
X122500000Y-102251370D01*
X126500000Y-105120000D02*
X125368630Y-105120000D01*
X126500000Y-97500000D02*
X122500000Y-93500000D01*
X170620000Y-96500000D02*
X170120000Y-97000000D01*
X177500000Y-96500000D02*
X170620000Y-96500000D01*
X170120000Y-101500000D02*
X177500000Y-101500000D01*
X177500000Y-83000000D02*
X170000000Y-83000000D01*
X170120000Y-83000000D02*
X168000000Y-83000000D01*
X168000000Y-83000000D02*
X166000000Y-85000000D01*
X166000000Y-89460000D02*
X167500000Y-90960000D01*
X166000000Y-85000000D02*
X166000000Y-89460000D01*
X177000000Y-87500000D02*
X177500000Y-88000000D01*
X170120000Y-87500000D02*
X177000000Y-87500000D01*
X170120000Y-87500000D02*
X172500000Y-89880000D01*
X172500000Y-89880000D02*
X172500000Y-91500000D01*
X170500000Y-93500000D02*
X167500000Y-93500000D01*
X172500000Y-91500000D02*
X170500000Y-93500000D01*
X137120000Y-94380000D02*
X137000000Y-94500000D01*
X140500000Y-94380000D02*
X137120000Y-94380000D01*
X137000000Y-94620000D02*
X134120000Y-97500000D01*
X137000000Y-94500000D02*
X137000000Y-94620000D01*
X133000000Y-96380000D02*
X134120000Y-97500000D01*
X133000000Y-94000000D02*
X133000000Y-96380000D01*
X123680000Y-88680000D02*
X125000000Y-90000000D01*
X123680000Y-86500000D02*
X123680000Y-88680000D01*
X125799999Y-90799999D02*
X125000000Y-90000000D01*
X127031599Y-92031599D02*
X125799999Y-90799999D01*
X130831599Y-92031599D02*
X127031599Y-92031599D01*
X132800000Y-94000000D02*
X130831599Y-92031599D01*
X122000000Y-104880000D02*
X122120000Y-105000000D01*
X122000000Y-103942566D02*
X122000000Y-104880000D01*
X120531599Y-102474165D02*
X122000000Y-103942566D01*
X120531599Y-92555167D02*
X120531599Y-102474165D01*
X123086766Y-90000000D02*
X120531599Y-92555167D01*
X125000000Y-90000000D02*
X123086766Y-90000000D01*
X144540000Y-88040000D02*
X143000000Y-86500000D01*
X147785000Y-88040000D02*
X144540000Y-88040000D01*
X143000000Y-79631370D02*
X143000000Y-78500000D01*
X143000000Y-80715000D02*
X143000000Y-79631370D01*
X145245000Y-82960000D02*
X143000000Y-80715000D01*
X147785000Y-82960000D02*
X145245000Y-82960000D01*
X135000000Y-78880000D02*
X135380000Y-78500000D01*
X131300000Y-78880000D02*
X135000000Y-78880000D01*
X135380000Y-81011370D02*
X132431370Y-83960000D01*
X132431370Y-83960000D02*
X131300000Y-83960000D01*
X135380000Y-78500000D02*
X135380000Y-81011370D01*
X135380000Y-86500000D02*
X131300000Y-86500000D01*
X129331599Y-82257031D02*
X130168630Y-81420000D01*
X129331599Y-86093599D02*
X129331599Y-82257031D01*
X129738000Y-86500000D02*
X129331599Y-86093599D01*
X130168630Y-81420000D02*
X131300000Y-81420000D01*
X131300000Y-86500000D02*
X129738000Y-86500000D01*
X109500000Y-85800000D02*
X109500000Y-85500000D01*
X113300000Y-82000000D02*
X109500000Y-85800000D01*
X113500000Y-82000000D02*
X113300000Y-82000000D01*
X113500000Y-82000000D02*
X113500000Y-79000000D01*
X119413234Y-79000000D02*
X114631370Y-79000000D01*
X114631370Y-79000000D02*
X113500000Y-79000000D01*
X121833234Y-81420000D02*
X119413234Y-79000000D01*
X123680000Y-81420000D02*
X121833234Y-81420000D01*
X110040000Y-88340000D02*
X109500000Y-88340000D01*
X121460000Y-83960000D02*
X120500000Y-83000000D01*
X123680000Y-83960000D02*
X121460000Y-83960000D01*
X118120000Y-83000000D02*
X117000000Y-81880000D01*
X120500000Y-83000000D02*
X118120000Y-83000000D01*
X110540000Y-88340000D02*
X109500000Y-88340000D01*
X117000000Y-81880000D02*
X110540000Y-88340000D01*
D21*
G36*
X151873000Y-108522900D02*
G01*
X103977100Y-108522900D01*
X103977100Y-85624971D01*
X105182900Y-85624971D01*
X105182900Y-85975029D01*
X105251193Y-86318361D01*
X105385154Y-86641773D01*
X105579636Y-86932835D01*
X105716801Y-87070000D01*
X105579636Y-87207165D01*
X105385154Y-87498227D01*
X105251193Y-87821639D01*
X105182900Y-88164971D01*
X105182900Y-88515029D01*
X105251193Y-88858361D01*
X105385154Y-89181773D01*
X105579636Y-89472835D01*
X105716801Y-89610000D01*
X105579636Y-89747165D01*
X105385154Y-90038227D01*
X105251193Y-90361639D01*
X105182900Y-90704971D01*
X105182900Y-91055029D01*
X105251193Y-91398361D01*
X105385154Y-91721773D01*
X105579636Y-92012835D01*
X105716801Y-92150000D01*
X105579636Y-92287165D01*
X105385154Y-92578227D01*
X105251193Y-92901639D01*
X105182900Y-93244971D01*
X105182900Y-93595029D01*
X105251193Y-93938361D01*
X105385154Y-94261773D01*
X105579636Y-94552835D01*
X105827165Y-94800364D01*
X106118227Y-94994846D01*
X106441639Y-95128807D01*
X106784971Y-95197100D01*
X107135029Y-95197100D01*
X107478361Y-95128807D01*
X107801773Y-94994846D01*
X108092835Y-94800364D01*
X108230000Y-94663199D01*
X108367165Y-94800364D01*
X108658227Y-94994846D01*
X108981639Y-95128807D01*
X109324971Y-95197100D01*
X109675029Y-95197100D01*
X110018361Y-95128807D01*
X110341773Y-94994846D01*
X110632835Y-94800364D01*
X110705099Y-94728100D01*
X110758168Y-94728100D01*
X113152900Y-97122833D01*
X113152900Y-97170105D01*
X113219271Y-97503777D01*
X113349464Y-97818089D01*
X113538474Y-98100962D01*
X113779038Y-98341526D01*
X114061911Y-98530536D01*
X114376223Y-98660729D01*
X114709895Y-98727100D01*
X115050105Y-98727100D01*
X115383777Y-98660729D01*
X115691901Y-98533099D01*
X115691901Y-100691308D01*
X115633652Y-100685571D01*
X115569392Y-100691900D01*
X110626257Y-100691900D01*
X110561999Y-100685571D01*
X110497741Y-100691900D01*
X110497740Y-100691900D01*
X110305568Y-100710827D01*
X110058990Y-100785626D01*
X109831742Y-100907092D01*
X109632558Y-101070558D01*
X109591589Y-101120479D01*
X108808100Y-101903968D01*
X108808100Y-101041832D01*
X109568347Y-100281585D01*
X110350000Y-100281585D01*
X110531743Y-100263685D01*
X110706502Y-100210672D01*
X110867561Y-100124585D01*
X111008730Y-100008730D01*
X111124585Y-99867561D01*
X111210672Y-99706502D01*
X111263685Y-99531743D01*
X111281585Y-99350000D01*
X111281585Y-97650000D01*
X111263685Y-97468257D01*
X111210672Y-97293498D01*
X111124585Y-97132439D01*
X111008730Y-96991270D01*
X110867561Y-96875415D01*
X110706502Y-96789328D01*
X110531743Y-96736315D01*
X110350000Y-96718415D01*
X108650000Y-96718415D01*
X108468257Y-96736315D01*
X108293498Y-96789328D01*
X108132439Y-96875415D01*
X107991270Y-96991270D01*
X107959202Y-97030345D01*
X107801773Y-96925154D01*
X107478361Y-96791193D01*
X107135029Y-96722900D01*
X106784971Y-96722900D01*
X106441639Y-96791193D01*
X106118227Y-96925154D01*
X105827165Y-97119636D01*
X105579636Y-97367165D01*
X105385154Y-97658227D01*
X105251193Y-97981639D01*
X105182900Y-98324971D01*
X105182900Y-98675029D01*
X105251193Y-99018361D01*
X105385154Y-99341773D01*
X105579636Y-99632835D01*
X105827165Y-99880364D01*
X106118227Y-100074846D01*
X106245959Y-100127754D01*
X106210827Y-100243568D01*
X106185571Y-100500000D01*
X106191901Y-100564270D01*
X106191901Y-101920358D01*
X106182439Y-101925415D01*
X106041270Y-102041270D01*
X105925415Y-102182439D01*
X105839328Y-102343498D01*
X105786315Y-102518257D01*
X105768415Y-102700000D01*
X105768415Y-104300000D01*
X105786315Y-104481743D01*
X105839328Y-104656502D01*
X105925415Y-104817561D01*
X106041270Y-104958730D01*
X106182439Y-105074585D01*
X106343498Y-105160672D01*
X106518257Y-105213685D01*
X106700000Y-105231585D01*
X108300000Y-105231585D01*
X108481743Y-105213685D01*
X108656502Y-105160672D01*
X108817561Y-105074585D01*
X108958730Y-104958730D01*
X109074585Y-104817561D01*
X109077051Y-104812947D01*
X109126260Y-104808100D01*
X109318432Y-104789173D01*
X109565010Y-104714374D01*
X109792258Y-104592908D01*
X109991442Y-104429442D01*
X110032411Y-104379521D01*
X111103832Y-103308100D01*
X115091820Y-103308100D01*
X115691901Y-103908181D01*
X115691901Y-104176168D01*
X115641063Y-104252253D01*
X115522065Y-104539539D01*
X115461400Y-104844521D01*
X115461400Y-105155479D01*
X115522065Y-105460461D01*
X115641063Y-105747747D01*
X115813821Y-106006299D01*
X116033701Y-106226179D01*
X116292253Y-106398937D01*
X116579539Y-106517935D01*
X116884521Y-106578600D01*
X117195479Y-106578600D01*
X117500461Y-106517935D01*
X117787747Y-106398937D01*
X118046299Y-106226179D01*
X118266179Y-106006299D01*
X118438937Y-105747747D01*
X118557935Y-105460461D01*
X118618600Y-105155479D01*
X118618600Y-104844521D01*
X118608924Y-104795879D01*
X118614428Y-104740002D01*
X118589171Y-104483569D01*
X118514372Y-104236991D01*
X118392906Y-104009743D01*
X118348100Y-103955147D01*
X118348100Y-103470605D01*
X118354429Y-103406347D01*
X118344965Y-103310258D01*
X118329173Y-103149916D01*
X118308100Y-103080448D01*
X118308100Y-90634388D01*
X118341526Y-90600962D01*
X118530536Y-90318089D01*
X118660729Y-90003777D01*
X118727100Y-89670105D01*
X118727100Y-89329895D01*
X118660729Y-88996223D01*
X118530536Y-88681911D01*
X118341526Y-88399038D01*
X118100962Y-88158474D01*
X117818089Y-87969464D01*
X117503777Y-87839271D01*
X117170105Y-87772900D01*
X116829895Y-87772900D01*
X116496223Y-87839271D01*
X116181911Y-87969464D01*
X115899038Y-88158474D01*
X115865612Y-88191900D01*
X114471395Y-88191900D01*
X114318089Y-88089464D01*
X114003777Y-87959271D01*
X113670105Y-87892900D01*
X113329895Y-87892900D01*
X112996223Y-87959271D01*
X112681911Y-88089464D01*
X112557016Y-88172917D01*
X117000000Y-83729932D01*
X117149589Y-83879521D01*
X117190558Y-83929442D01*
X117389742Y-84092908D01*
X117616990Y-84214374D01*
X117863568Y-84289173D01*
X118055740Y-84308100D01*
X118055741Y-84308100D01*
X118119999Y-84314429D01*
X118184257Y-84308100D01*
X119365612Y-84308100D01*
X119399038Y-84341526D01*
X119681911Y-84530536D01*
X119996223Y-84660729D01*
X120329895Y-84727100D01*
X120377167Y-84727100D01*
X120489593Y-84839526D01*
X120530558Y-84889442D01*
X120729742Y-85052908D01*
X120956990Y-85174374D01*
X121128768Y-85226483D01*
X121203567Y-85249173D01*
X121459999Y-85274429D01*
X121524260Y-85268100D01*
X122469412Y-85268100D01*
X122338474Y-85399038D01*
X122149464Y-85681911D01*
X122019271Y-85996223D01*
X121952900Y-86329895D01*
X121952900Y-86670105D01*
X122019271Y-87003777D01*
X122149464Y-87318089D01*
X122338474Y-87600962D01*
X122371901Y-87634389D01*
X122371901Y-88615730D01*
X122365571Y-88680000D01*
X122386365Y-88891133D01*
X122356508Y-88907092D01*
X122157324Y-89070558D01*
X122116361Y-89120472D01*
X119652078Y-91584756D01*
X119602157Y-91625725D01*
X119438691Y-91824910D01*
X119317225Y-92052158D01*
X119269093Y-92210827D01*
X119242426Y-92298735D01*
X119217170Y-92555167D01*
X119223499Y-92619427D01*
X119223500Y-102409895D01*
X119217170Y-102474165D01*
X119242426Y-102730597D01*
X119294828Y-102903339D01*
X119317226Y-102977175D01*
X119438692Y-103204423D01*
X119602158Y-103403607D01*
X119652074Y-103444572D01*
X120644527Y-104437026D01*
X120602065Y-104539539D01*
X120541400Y-104844521D01*
X120541400Y-105155479D01*
X120602065Y-105460461D01*
X120721063Y-105747747D01*
X120893821Y-106006299D01*
X121113701Y-106226179D01*
X121372253Y-106398937D01*
X121659539Y-106517935D01*
X121964521Y-106578600D01*
X122275479Y-106578600D01*
X122580461Y-106517935D01*
X122867747Y-106398937D01*
X123126299Y-106226179D01*
X123346179Y-106006299D01*
X123518937Y-105747747D01*
X123637935Y-105460461D01*
X123674638Y-105275941D01*
X124398223Y-105999526D01*
X124439188Y-106049442D01*
X124638372Y-106212908D01*
X124865620Y-106334374D01*
X125112198Y-106409173D01*
X125304370Y-106428100D01*
X125304371Y-106428100D01*
X125368629Y-106434429D01*
X125371644Y-106434132D01*
X125399038Y-106461526D01*
X125681911Y-106650536D01*
X125996223Y-106780729D01*
X126329895Y-106847100D01*
X126670105Y-106847100D01*
X127003777Y-106780729D01*
X127318089Y-106650536D01*
X127600962Y-106461526D01*
X127841526Y-106220962D01*
X128030536Y-105938089D01*
X128160729Y-105623777D01*
X128227100Y-105290105D01*
X128227100Y-104949895D01*
X128160729Y-104616223D01*
X128030536Y-104301911D01*
X127841526Y-104019038D01*
X127600962Y-103778474D01*
X127318089Y-103589464D01*
X127003777Y-103459271D01*
X126670105Y-103392900D01*
X126329895Y-103392900D01*
X125996223Y-103459271D01*
X125686236Y-103587673D01*
X123808100Y-101709538D01*
X123808100Y-98134388D01*
X123841526Y-98100962D01*
X124030536Y-97818089D01*
X124160729Y-97503777D01*
X124227100Y-97170105D01*
X124227100Y-97077032D01*
X124768415Y-97618347D01*
X124768415Y-98300000D01*
X124786315Y-98481743D01*
X124839328Y-98656502D01*
X124925415Y-98817561D01*
X125041270Y-98958730D01*
X125182439Y-99074585D01*
X125343498Y-99160672D01*
X125518257Y-99213685D01*
X125700000Y-99231585D01*
X127300000Y-99231585D01*
X127481743Y-99213685D01*
X127656502Y-99160672D01*
X127817561Y-99074585D01*
X127958730Y-98958730D01*
X128074585Y-98817561D01*
X128160672Y-98656502D01*
X128213685Y-98481743D01*
X128231585Y-98300000D01*
X128231585Y-96700000D01*
X128213685Y-96518257D01*
X128160672Y-96343498D01*
X128074585Y-96182439D01*
X127958730Y-96041270D01*
X127817561Y-95925415D01*
X127656502Y-95839328D01*
X127481743Y-95786315D01*
X127300000Y-95768415D01*
X126618347Y-95768415D01*
X124227100Y-93377168D01*
X124227100Y-93329895D01*
X124160729Y-92996223D01*
X124030536Y-92681911D01*
X123841526Y-92399038D01*
X123600962Y-92158474D01*
X123318089Y-91969464D01*
X123069998Y-91866701D01*
X123628599Y-91308100D01*
X123865612Y-91308100D01*
X123899038Y-91341526D01*
X124181911Y-91530536D01*
X124496223Y-91660729D01*
X124829895Y-91727100D01*
X124877168Y-91727100D01*
X126061188Y-92911120D01*
X126102157Y-92961041D01*
X126301341Y-93124507D01*
X126528589Y-93245973D01*
X126775167Y-93320772D01*
X126967339Y-93339699D01*
X126967340Y-93339699D01*
X127031598Y-93346028D01*
X127095856Y-93339699D01*
X130289767Y-93339699D01*
X131072900Y-94122832D01*
X131072900Y-94170105D01*
X131139271Y-94503777D01*
X131269464Y-94818089D01*
X131458474Y-95100962D01*
X131691901Y-95334389D01*
X131691901Y-96315730D01*
X131685571Y-96380000D01*
X131710827Y-96636432D01*
X131773246Y-96842197D01*
X131785627Y-96883010D01*
X131907093Y-97110258D01*
X132070559Y-97309442D01*
X132120475Y-97350407D01*
X132392900Y-97622832D01*
X132392900Y-97670105D01*
X132459271Y-98003777D01*
X132589464Y-98318089D01*
X132778474Y-98600962D01*
X132947512Y-98770000D01*
X132778474Y-98939038D01*
X132589464Y-99221911D01*
X132459271Y-99536223D01*
X132392900Y-99869895D01*
X132392900Y-100210105D01*
X132459271Y-100543777D01*
X132589464Y-100858089D01*
X132778474Y-101140962D01*
X132947512Y-101310000D01*
X132778474Y-101479038D01*
X132589464Y-101761911D01*
X132459271Y-102076223D01*
X132392900Y-102409895D01*
X132392900Y-102750105D01*
X132459271Y-103083777D01*
X132589464Y-103398089D01*
X132778474Y-103680962D01*
X133019038Y-103921526D01*
X133301911Y-104110536D01*
X133616223Y-104240729D01*
X133949895Y-104307100D01*
X134290105Y-104307100D01*
X134348219Y-104295541D01*
X134540000Y-104314429D01*
X134796432Y-104289173D01*
X135043010Y-104214374D01*
X135270258Y-104092907D01*
X135469441Y-103929441D01*
X135632907Y-103730258D01*
X135754374Y-103503010D01*
X135777098Y-103428100D01*
X136028605Y-103428100D01*
X136181911Y-103530536D01*
X136496223Y-103660729D01*
X136739109Y-103709042D01*
X137877994Y-104847927D01*
X137918959Y-104897843D01*
X138118143Y-105061309D01*
X138227945Y-105119999D01*
X138345390Y-105182775D01*
X138591968Y-105257574D01*
X138848401Y-105282830D01*
X138912661Y-105276501D01*
X141380573Y-105276501D01*
X141444833Y-105282830D01*
X141509093Y-105276501D01*
X141701265Y-105257574D01*
X141947843Y-105182775D01*
X142175091Y-105061309D01*
X142374275Y-104897843D01*
X142415244Y-104847922D01*
X143347928Y-103915239D01*
X143397843Y-103874275D01*
X143561309Y-103675091D01*
X143673207Y-103465744D01*
X143682775Y-103447844D01*
X143757574Y-103201266D01*
X143782830Y-102944833D01*
X143776501Y-102880573D01*
X143776501Y-101716479D01*
X143829895Y-101727100D01*
X143877167Y-101727100D01*
X144569593Y-102419526D01*
X144610558Y-102469442D01*
X144809742Y-102632908D01*
X145036990Y-102754374D01*
X145152676Y-102789467D01*
X145283567Y-102829173D01*
X145350784Y-102835793D01*
X145489439Y-102949585D01*
X145650498Y-103035672D01*
X145825257Y-103088685D01*
X146007000Y-103106585D01*
X149563000Y-103106585D01*
X149744743Y-103088685D01*
X149919502Y-103035672D01*
X150080561Y-102949585D01*
X150221730Y-102833730D01*
X150337585Y-102692561D01*
X150423672Y-102531502D01*
X150476685Y-102356743D01*
X150494585Y-102175000D01*
X150494585Y-100905000D01*
X150476685Y-100723257D01*
X150423672Y-100548498D01*
X150337585Y-100387439D01*
X150241205Y-100270000D01*
X150337585Y-100152561D01*
X150423672Y-99991502D01*
X150476685Y-99816743D01*
X150494585Y-99635000D01*
X150494585Y-98365000D01*
X150476685Y-98183257D01*
X150423672Y-98008498D01*
X150337585Y-97847439D01*
X150241205Y-97730000D01*
X150337585Y-97612561D01*
X150423672Y-97451502D01*
X150476685Y-97276743D01*
X150494585Y-97095000D01*
X150494585Y-95825000D01*
X150476685Y-95643257D01*
X150423672Y-95468498D01*
X150337585Y-95307439D01*
X150221730Y-95166270D01*
X150080561Y-95050415D01*
X149919502Y-94964328D01*
X149744743Y-94911315D01*
X149563000Y-94893415D01*
X146007000Y-94893415D01*
X145825257Y-94911315D01*
X145650498Y-94964328D01*
X145489439Y-95050415D01*
X145365780Y-95151900D01*
X145104257Y-95151900D01*
X145039999Y-95145571D01*
X144975741Y-95151900D01*
X144975740Y-95151900D01*
X144783568Y-95170827D01*
X144536990Y-95245626D01*
X144309742Y-95367092D01*
X144110558Y-95530558D01*
X144069589Y-95580479D01*
X143877168Y-95772900D01*
X143829895Y-95772900D01*
X143496223Y-95839271D01*
X143181911Y-95969464D01*
X142899038Y-96158474D01*
X142871644Y-96185868D01*
X142868630Y-96185571D01*
X142612197Y-96210827D01*
X142365619Y-96285626D01*
X142189058Y-96380000D01*
X142138372Y-96407092D01*
X141939188Y-96570558D01*
X141898225Y-96620472D01*
X139620479Y-98898219D01*
X139570558Y-98939188D01*
X139407092Y-99138373D01*
X139285626Y-99365621D01*
X139249123Y-99485956D01*
X138915244Y-99152078D01*
X138874275Y-99102157D01*
X138675091Y-98938691D01*
X138447843Y-98817225D01*
X138201265Y-98742426D01*
X138009093Y-98723499D01*
X137944833Y-98717170D01*
X137880573Y-98723499D01*
X135338989Y-98723499D01*
X135461526Y-98600962D01*
X135650536Y-98318089D01*
X135780729Y-98003777D01*
X135847100Y-97670105D01*
X135847100Y-97622832D01*
X137410687Y-96059246D01*
X137503777Y-96040729D01*
X137818089Y-95910536D01*
X138100962Y-95721526D01*
X138134388Y-95688100D01*
X139365612Y-95688100D01*
X139399038Y-95721526D01*
X139681911Y-95910536D01*
X139996223Y-96040729D01*
X140329895Y-96107100D01*
X140670105Y-96107100D01*
X141003777Y-96040729D01*
X141318089Y-95910536D01*
X141600962Y-95721526D01*
X141841526Y-95480962D01*
X142030536Y-95198089D01*
X142160729Y-94883777D01*
X142227100Y-94550105D01*
X142227100Y-94209895D01*
X142160729Y-93876223D01*
X142030536Y-93561911D01*
X141841526Y-93279038D01*
X141600962Y-93038474D01*
X141318089Y-92849464D01*
X141003777Y-92719271D01*
X140670105Y-92652900D01*
X140329895Y-92652900D01*
X139996223Y-92719271D01*
X139681911Y-92849464D01*
X139399038Y-93038474D01*
X139365612Y-93071900D01*
X138134388Y-93071900D01*
X138100962Y-93038474D01*
X137818089Y-92849464D01*
X137503777Y-92719271D01*
X137170105Y-92652900D01*
X136829895Y-92652900D01*
X136496223Y-92719271D01*
X136181911Y-92849464D01*
X135899038Y-93038474D01*
X135658474Y-93279038D01*
X135469464Y-93561911D01*
X135339271Y-93876223D01*
X135272900Y-94209895D01*
X135272900Y-94497167D01*
X134308100Y-95461968D01*
X134308100Y-94851667D01*
X134330536Y-94818089D01*
X134460729Y-94503777D01*
X134527100Y-94170105D01*
X134527100Y-93829895D01*
X134460729Y-93496223D01*
X134330536Y-93181911D01*
X134141526Y-92899038D01*
X133900962Y-92658474D01*
X133618089Y-92469464D01*
X133303777Y-92339271D01*
X132970105Y-92272900D01*
X132922832Y-92272900D01*
X131802010Y-91152078D01*
X131761041Y-91102157D01*
X131561857Y-90938691D01*
X131334609Y-90817225D01*
X131088031Y-90742426D01*
X130831599Y-90717170D01*
X130767339Y-90723499D01*
X127573431Y-90723499D01*
X126727100Y-89877168D01*
X126727100Y-89829895D01*
X126660729Y-89496223D01*
X126530536Y-89181911D01*
X126341526Y-88899038D01*
X126100962Y-88658474D01*
X125818089Y-88469464D01*
X125503777Y-88339271D01*
X125170105Y-88272900D01*
X125122832Y-88272900D01*
X124988100Y-88138168D01*
X124988100Y-87634388D01*
X125021526Y-87600962D01*
X125210536Y-87318089D01*
X125340729Y-87003777D01*
X125407100Y-86670105D01*
X125407100Y-86329895D01*
X125340729Y-85996223D01*
X125210536Y-85681911D01*
X125021526Y-85399038D01*
X124852488Y-85230000D01*
X125021526Y-85060962D01*
X125210536Y-84778089D01*
X125340729Y-84463777D01*
X125407100Y-84130105D01*
X125407100Y-83789895D01*
X125340729Y-83456223D01*
X125210536Y-83141911D01*
X125021526Y-82859038D01*
X124852488Y-82690000D01*
X125021526Y-82520962D01*
X125197879Y-82257031D01*
X128017170Y-82257031D01*
X128023500Y-82321301D01*
X128023499Y-86029338D01*
X128017170Y-86093599D01*
X128039307Y-86318361D01*
X128042426Y-86350030D01*
X128117225Y-86596608D01*
X128238691Y-86823856D01*
X128402157Y-87023041D01*
X128452078Y-87064010D01*
X128767589Y-87379521D01*
X128808558Y-87429442D01*
X129007742Y-87592908D01*
X129126719Y-87656502D01*
X129234990Y-87714374D01*
X129481567Y-87789173D01*
X129722949Y-87812947D01*
X129725415Y-87817561D01*
X129841270Y-87958730D01*
X129982439Y-88074585D01*
X130143498Y-88160672D01*
X130318257Y-88213685D01*
X130500000Y-88231585D01*
X132100000Y-88231585D01*
X132281743Y-88213685D01*
X132456502Y-88160672D01*
X132617561Y-88074585D01*
X132758730Y-87958730D01*
X132874585Y-87817561D01*
X132879642Y-87808100D01*
X134245612Y-87808100D01*
X134279038Y-87841526D01*
X134561911Y-88030536D01*
X134876223Y-88160729D01*
X135209895Y-88227100D01*
X135550105Y-88227100D01*
X135883777Y-88160729D01*
X136198089Y-88030536D01*
X136480962Y-87841526D01*
X136721526Y-87600962D01*
X136910536Y-87318089D01*
X137040729Y-87003777D01*
X137107100Y-86670105D01*
X137107100Y-86329895D01*
X137040729Y-85996223D01*
X136910536Y-85681911D01*
X136721526Y-85399038D01*
X136480962Y-85158474D01*
X136198089Y-84969464D01*
X135883777Y-84839271D01*
X135550105Y-84772900D01*
X135209895Y-84772900D01*
X134876223Y-84839271D01*
X134561911Y-84969464D01*
X134279038Y-85158474D01*
X134245612Y-85191900D01*
X132879642Y-85191900D01*
X132879218Y-85191107D01*
X132934380Y-85174374D01*
X133161628Y-85052908D01*
X133360812Y-84889442D01*
X133401781Y-84839521D01*
X136259526Y-81981777D01*
X136309442Y-81940812D01*
X136472908Y-81741628D01*
X136594374Y-81514380D01*
X136669173Y-81267802D01*
X136688100Y-81075630D01*
X136694429Y-81011370D01*
X136688100Y-80947110D01*
X136688100Y-79634388D01*
X136721526Y-79600962D01*
X136910536Y-79318089D01*
X137040729Y-79003777D01*
X137107100Y-78670105D01*
X137107100Y-78329895D01*
X141272900Y-78329895D01*
X141272900Y-78670105D01*
X141339271Y-79003777D01*
X141469464Y-79318089D01*
X141658474Y-79600962D01*
X141691900Y-79634388D01*
X141691900Y-80650740D01*
X141685571Y-80715000D01*
X141708771Y-80950559D01*
X141710827Y-80971431D01*
X141785626Y-81218009D01*
X141907092Y-81445257D01*
X142070558Y-81644442D01*
X142120479Y-81685411D01*
X144274593Y-83839526D01*
X144315558Y-83889442D01*
X144514742Y-84052908D01*
X144741990Y-84174374D01*
X144988568Y-84249173D01*
X145180740Y-84268100D01*
X145180741Y-84268100D01*
X145244999Y-84274429D01*
X145296496Y-84269357D01*
X145232415Y-84347439D01*
X145146328Y-84508498D01*
X145093315Y-84683257D01*
X145075415Y-84865000D01*
X145075415Y-86135000D01*
X145093315Y-86316743D01*
X145146328Y-86491502D01*
X145232415Y-86652561D01*
X145297527Y-86731900D01*
X145081833Y-86731900D01*
X144727100Y-86377167D01*
X144727100Y-86329895D01*
X144660729Y-85996223D01*
X144530536Y-85681911D01*
X144341526Y-85399038D01*
X144100962Y-85158474D01*
X143818089Y-84969464D01*
X143503777Y-84839271D01*
X143170105Y-84772900D01*
X142829895Y-84772900D01*
X142496223Y-84839271D01*
X142181911Y-84969464D01*
X141899038Y-85158474D01*
X141658474Y-85399038D01*
X141469464Y-85681911D01*
X141339271Y-85996223D01*
X141272900Y-86329895D01*
X141272900Y-86670105D01*
X141339271Y-87003777D01*
X141469464Y-87318089D01*
X141658474Y-87600962D01*
X141899038Y-87841526D01*
X142181911Y-88030536D01*
X142496223Y-88160729D01*
X142829895Y-88227100D01*
X142877167Y-88227100D01*
X143569593Y-88919526D01*
X143610558Y-88969442D01*
X143809742Y-89132908D01*
X144036990Y-89254374D01*
X144204388Y-89305154D01*
X144283567Y-89329173D01*
X144540000Y-89354429D01*
X144604260Y-89348100D01*
X145365780Y-89348100D01*
X145489439Y-89449585D01*
X145650498Y-89535672D01*
X145825257Y-89588685D01*
X146007000Y-89606585D01*
X149563000Y-89606585D01*
X149744743Y-89588685D01*
X149919502Y-89535672D01*
X150080561Y-89449585D01*
X150221730Y-89333730D01*
X150337585Y-89192561D01*
X150423672Y-89031502D01*
X150476685Y-88856743D01*
X150494585Y-88675000D01*
X150494585Y-87405000D01*
X150476685Y-87223257D01*
X150423672Y-87048498D01*
X150337585Y-86887439D01*
X150241205Y-86770000D01*
X150337585Y-86652561D01*
X150423672Y-86491502D01*
X150476685Y-86316743D01*
X150494585Y-86135000D01*
X150494585Y-84865000D01*
X150476685Y-84683257D01*
X150423672Y-84508498D01*
X150337585Y-84347439D01*
X150241205Y-84230000D01*
X150337585Y-84112561D01*
X150423672Y-83951502D01*
X150476685Y-83776743D01*
X150494585Y-83595000D01*
X150494585Y-82325000D01*
X150476685Y-82143257D01*
X150423672Y-81968498D01*
X150337585Y-81807439D01*
X150221730Y-81666270D01*
X150080561Y-81550415D01*
X149919502Y-81464328D01*
X149744743Y-81411315D01*
X149563000Y-81393415D01*
X146007000Y-81393415D01*
X145825257Y-81411315D01*
X145650498Y-81464328D01*
X145617108Y-81482175D01*
X144308100Y-80173168D01*
X144308100Y-79634388D01*
X144341526Y-79600962D01*
X144530536Y-79318089D01*
X144660729Y-79003777D01*
X144727100Y-78670105D01*
X144727100Y-78329895D01*
X144660729Y-77996223D01*
X144530536Y-77681911D01*
X144341526Y-77399038D01*
X144100962Y-77158474D01*
X143818089Y-76969464D01*
X143503777Y-76839271D01*
X143170105Y-76772900D01*
X142829895Y-76772900D01*
X142496223Y-76839271D01*
X142181911Y-76969464D01*
X141899038Y-77158474D01*
X141658474Y-77399038D01*
X141469464Y-77681911D01*
X141339271Y-77996223D01*
X141272900Y-78329895D01*
X137107100Y-78329895D01*
X137040729Y-77996223D01*
X136910536Y-77681911D01*
X136721526Y-77399038D01*
X136480962Y-77158474D01*
X136198089Y-76969464D01*
X135883777Y-76839271D01*
X135550105Y-76772900D01*
X135209895Y-76772900D01*
X134876223Y-76839271D01*
X134561911Y-76969464D01*
X134279038Y-77158474D01*
X134038474Y-77399038D01*
X133922971Y-77571900D01*
X132434388Y-77571900D01*
X132400962Y-77538474D01*
X132118089Y-77349464D01*
X131803777Y-77219271D01*
X131470105Y-77152900D01*
X131129895Y-77152900D01*
X130796223Y-77219271D01*
X130481911Y-77349464D01*
X130199038Y-77538474D01*
X129958474Y-77779038D01*
X129769464Y-78061911D01*
X129639271Y-78376223D01*
X129572900Y-78709895D01*
X129572900Y-79050105D01*
X129639271Y-79383777D01*
X129769464Y-79698089D01*
X129958474Y-79980962D01*
X130090753Y-80113241D01*
X129912198Y-80130827D01*
X129665619Y-80205626D01*
X129473904Y-80308100D01*
X129438372Y-80327092D01*
X129239188Y-80490558D01*
X129198219Y-80540479D01*
X128452074Y-81286624D01*
X128402158Y-81327589D01*
X128305590Y-81445258D01*
X128238692Y-81526773D01*
X128117226Y-81754021D01*
X128042426Y-82000599D01*
X128017170Y-82257031D01*
X125197879Y-82257031D01*
X125210536Y-82238089D01*
X125340729Y-81923777D01*
X125407100Y-81590105D01*
X125407100Y-81249895D01*
X125340729Y-80916223D01*
X125210536Y-80601911D01*
X125021526Y-80319038D01*
X124780962Y-80078474D01*
X124498089Y-79889464D01*
X124183777Y-79759271D01*
X123850105Y-79692900D01*
X123509895Y-79692900D01*
X123176223Y-79759271D01*
X122861911Y-79889464D01*
X122579038Y-80078474D01*
X122545612Y-80111900D01*
X122375067Y-80111900D01*
X120383645Y-78120479D01*
X120342676Y-78070558D01*
X120143492Y-77907092D01*
X119916244Y-77785626D01*
X119669666Y-77710827D01*
X119477494Y-77691900D01*
X119413234Y-77685571D01*
X119348974Y-77691900D01*
X114634388Y-77691900D01*
X114600962Y-77658474D01*
X114318089Y-77469464D01*
X114003777Y-77339271D01*
X113670105Y-77272900D01*
X113329895Y-77272900D01*
X112996223Y-77339271D01*
X112681911Y-77469464D01*
X112399038Y-77658474D01*
X112158474Y-77899038D01*
X111969464Y-78181911D01*
X111839271Y-78496223D01*
X111772900Y-78829895D01*
X111772900Y-79170105D01*
X111839271Y-79503777D01*
X111969464Y-79818089D01*
X112158474Y-80100962D01*
X112191901Y-80134389D01*
X112191900Y-80865612D01*
X112158474Y-80899038D01*
X111969464Y-81181911D01*
X111839271Y-81496223D01*
X111810822Y-81639245D01*
X109427168Y-84022900D01*
X109324971Y-84022900D01*
X108981639Y-84091193D01*
X108658227Y-84225154D01*
X108367165Y-84419636D01*
X108230000Y-84556801D01*
X108092835Y-84419636D01*
X107801773Y-84225154D01*
X107478361Y-84091193D01*
X107135029Y-84022900D01*
X106784971Y-84022900D01*
X106441639Y-84091193D01*
X106118227Y-84225154D01*
X105827165Y-84419636D01*
X105579636Y-84667165D01*
X105385154Y-84958227D01*
X105251193Y-85281639D01*
X105182900Y-85624971D01*
X103977100Y-85624971D01*
X103977100Y-75977100D01*
X151873000Y-75977100D01*
X151873000Y-108522900D01*
G37*
X151873000Y-108522900D02*
X103977100Y-108522900D01*
X103977100Y-85624971D01*
X105182900Y-85624971D01*
X105182900Y-85975029D01*
X105251193Y-86318361D01*
X105385154Y-86641773D01*
X105579636Y-86932835D01*
X105716801Y-87070000D01*
X105579636Y-87207165D01*
X105385154Y-87498227D01*
X105251193Y-87821639D01*
X105182900Y-88164971D01*
X105182900Y-88515029D01*
X105251193Y-88858361D01*
X105385154Y-89181773D01*
X105579636Y-89472835D01*
X105716801Y-89610000D01*
X105579636Y-89747165D01*
X105385154Y-90038227D01*
X105251193Y-90361639D01*
X105182900Y-90704971D01*
X105182900Y-91055029D01*
X105251193Y-91398361D01*
X105385154Y-91721773D01*
X105579636Y-92012835D01*
X105716801Y-92150000D01*
X105579636Y-92287165D01*
X105385154Y-92578227D01*
X105251193Y-92901639D01*
X105182900Y-93244971D01*
X105182900Y-93595029D01*
X105251193Y-93938361D01*
X105385154Y-94261773D01*
X105579636Y-94552835D01*
X105827165Y-94800364D01*
X106118227Y-94994846D01*
X106441639Y-95128807D01*
X106784971Y-95197100D01*
X107135029Y-95197100D01*
X107478361Y-95128807D01*
X107801773Y-94994846D01*
X108092835Y-94800364D01*
X108230000Y-94663199D01*
X108367165Y-94800364D01*
X108658227Y-94994846D01*
X108981639Y-95128807D01*
X109324971Y-95197100D01*
X109675029Y-95197100D01*
X110018361Y-95128807D01*
X110341773Y-94994846D01*
X110632835Y-94800364D01*
X110705099Y-94728100D01*
X110758168Y-94728100D01*
X113152900Y-97122833D01*
X113152900Y-97170105D01*
X113219271Y-97503777D01*
X113349464Y-97818089D01*
X113538474Y-98100962D01*
X113779038Y-98341526D01*
X114061911Y-98530536D01*
X114376223Y-98660729D01*
X114709895Y-98727100D01*
X115050105Y-98727100D01*
X115383777Y-98660729D01*
X115691901Y-98533099D01*
X115691901Y-100691308D01*
X115633652Y-100685571D01*
X115569392Y-100691900D01*
X110626257Y-100691900D01*
X110561999Y-100685571D01*
X110497741Y-100691900D01*
X110497740Y-100691900D01*
X110305568Y-100710827D01*
X110058990Y-100785626D01*
X109831742Y-100907092D01*
X109632558Y-101070558D01*
X109591589Y-101120479D01*
X108808100Y-101903968D01*
X108808100Y-101041832D01*
X109568347Y-100281585D01*
X110350000Y-100281585D01*
X110531743Y-100263685D01*
X110706502Y-100210672D01*
X110867561Y-100124585D01*
X111008730Y-100008730D01*
X111124585Y-99867561D01*
X111210672Y-99706502D01*
X111263685Y-99531743D01*
X111281585Y-99350000D01*
X111281585Y-97650000D01*
X111263685Y-97468257D01*
X111210672Y-97293498D01*
X111124585Y-97132439D01*
X111008730Y-96991270D01*
X110867561Y-96875415D01*
X110706502Y-96789328D01*
X110531743Y-96736315D01*
X110350000Y-96718415D01*
X108650000Y-96718415D01*
X108468257Y-96736315D01*
X108293498Y-96789328D01*
X108132439Y-96875415D01*
X107991270Y-96991270D01*
X107959202Y-97030345D01*
X107801773Y-96925154D01*
X107478361Y-96791193D01*
X107135029Y-96722900D01*
X106784971Y-96722900D01*
X106441639Y-96791193D01*
X106118227Y-96925154D01*
X105827165Y-97119636D01*
X105579636Y-97367165D01*
X105385154Y-97658227D01*
X105251193Y-97981639D01*
X105182900Y-98324971D01*
X105182900Y-98675029D01*
X105251193Y-99018361D01*
X105385154Y-99341773D01*
X105579636Y-99632835D01*
X105827165Y-99880364D01*
X106118227Y-100074846D01*
X106245959Y-100127754D01*
X106210827Y-100243568D01*
X106185571Y-100500000D01*
X106191901Y-100564270D01*
X106191901Y-101920358D01*
X106182439Y-101925415D01*
X106041270Y-102041270D01*
X105925415Y-102182439D01*
X105839328Y-102343498D01*
X105786315Y-102518257D01*
X105768415Y-102700000D01*
X105768415Y-104300000D01*
X105786315Y-104481743D01*
X105839328Y-104656502D01*
X105925415Y-104817561D01*
X106041270Y-104958730D01*
X106182439Y-105074585D01*
X106343498Y-105160672D01*
X106518257Y-105213685D01*
X106700000Y-105231585D01*
X108300000Y-105231585D01*
X108481743Y-105213685D01*
X108656502Y-105160672D01*
X108817561Y-105074585D01*
X108958730Y-104958730D01*
X109074585Y-104817561D01*
X109077051Y-104812947D01*
X109126260Y-104808100D01*
X109318432Y-104789173D01*
X109565010Y-104714374D01*
X109792258Y-104592908D01*
X109991442Y-104429442D01*
X110032411Y-104379521D01*
X111103832Y-103308100D01*
X115091820Y-103308100D01*
X115691901Y-103908181D01*
X115691901Y-104176168D01*
X115641063Y-104252253D01*
X115522065Y-104539539D01*
X115461400Y-104844521D01*
X115461400Y-105155479D01*
X115522065Y-105460461D01*
X115641063Y-105747747D01*
X115813821Y-106006299D01*
X116033701Y-106226179D01*
X116292253Y-106398937D01*
X116579539Y-106517935D01*
X116884521Y-106578600D01*
X117195479Y-106578600D01*
X117500461Y-106517935D01*
X117787747Y-106398937D01*
X118046299Y-106226179D01*
X118266179Y-106006299D01*
X118438937Y-105747747D01*
X118557935Y-105460461D01*
X118618600Y-105155479D01*
X118618600Y-104844521D01*
X118608924Y-104795879D01*
X118614428Y-104740002D01*
X118589171Y-104483569D01*
X118514372Y-104236991D01*
X118392906Y-104009743D01*
X118348100Y-103955147D01*
X118348100Y-103470605D01*
X118354429Y-103406347D01*
X118344965Y-103310258D01*
X118329173Y-103149916D01*
X118308100Y-103080448D01*
X118308100Y-90634388D01*
X118341526Y-90600962D01*
X118530536Y-90318089D01*
X118660729Y-90003777D01*
X118727100Y-89670105D01*
X118727100Y-89329895D01*
X118660729Y-88996223D01*
X118530536Y-88681911D01*
X118341526Y-88399038D01*
X118100962Y-88158474D01*
X117818089Y-87969464D01*
X117503777Y-87839271D01*
X117170105Y-87772900D01*
X116829895Y-87772900D01*
X116496223Y-87839271D01*
X116181911Y-87969464D01*
X115899038Y-88158474D01*
X115865612Y-88191900D01*
X114471395Y-88191900D01*
X114318089Y-88089464D01*
X114003777Y-87959271D01*
X113670105Y-87892900D01*
X113329895Y-87892900D01*
X112996223Y-87959271D01*
X112681911Y-88089464D01*
X112557016Y-88172917D01*
X117000000Y-83729932D01*
X117149589Y-83879521D01*
X117190558Y-83929442D01*
X117389742Y-84092908D01*
X117616990Y-84214374D01*
X117863568Y-84289173D01*
X118055740Y-84308100D01*
X118055741Y-84308100D01*
X118119999Y-84314429D01*
X118184257Y-84308100D01*
X119365612Y-84308100D01*
X119399038Y-84341526D01*
X119681911Y-84530536D01*
X119996223Y-84660729D01*
X120329895Y-84727100D01*
X120377167Y-84727100D01*
X120489593Y-84839526D01*
X120530558Y-84889442D01*
X120729742Y-85052908D01*
X120956990Y-85174374D01*
X121128768Y-85226483D01*
X121203567Y-85249173D01*
X121459999Y-85274429D01*
X121524260Y-85268100D01*
X122469412Y-85268100D01*
X122338474Y-85399038D01*
X122149464Y-85681911D01*
X122019271Y-85996223D01*
X121952900Y-86329895D01*
X121952900Y-86670105D01*
X122019271Y-87003777D01*
X122149464Y-87318089D01*
X122338474Y-87600962D01*
X122371901Y-87634389D01*
X122371901Y-88615730D01*
X122365571Y-88680000D01*
X122386365Y-88891133D01*
X122356508Y-88907092D01*
X122157324Y-89070558D01*
X122116361Y-89120472D01*
X119652078Y-91584756D01*
X119602157Y-91625725D01*
X119438691Y-91824910D01*
X119317225Y-92052158D01*
X119269093Y-92210827D01*
X119242426Y-92298735D01*
X119217170Y-92555167D01*
X119223499Y-92619427D01*
X119223500Y-102409895D01*
X119217170Y-102474165D01*
X119242426Y-102730597D01*
X119294828Y-102903339D01*
X119317226Y-102977175D01*
X119438692Y-103204423D01*
X119602158Y-103403607D01*
X119652074Y-103444572D01*
X120644527Y-104437026D01*
X120602065Y-104539539D01*
X120541400Y-104844521D01*
X120541400Y-105155479D01*
X120602065Y-105460461D01*
X120721063Y-105747747D01*
X120893821Y-106006299D01*
X121113701Y-106226179D01*
X121372253Y-106398937D01*
X121659539Y-106517935D01*
X121964521Y-106578600D01*
X122275479Y-106578600D01*
X122580461Y-106517935D01*
X122867747Y-106398937D01*
X123126299Y-106226179D01*
X123346179Y-106006299D01*
X123518937Y-105747747D01*
X123637935Y-105460461D01*
X123674638Y-105275941D01*
X124398223Y-105999526D01*
X124439188Y-106049442D01*
X124638372Y-106212908D01*
X124865620Y-106334374D01*
X125112198Y-106409173D01*
X125304370Y-106428100D01*
X125304371Y-106428100D01*
X125368629Y-106434429D01*
X125371644Y-106434132D01*
X125399038Y-106461526D01*
X125681911Y-106650536D01*
X125996223Y-106780729D01*
X126329895Y-106847100D01*
X126670105Y-106847100D01*
X127003777Y-106780729D01*
X127318089Y-106650536D01*
X127600962Y-106461526D01*
X127841526Y-106220962D01*
X128030536Y-105938089D01*
X128160729Y-105623777D01*
X128227100Y-105290105D01*
X128227100Y-104949895D01*
X128160729Y-104616223D01*
X128030536Y-104301911D01*
X127841526Y-104019038D01*
X127600962Y-103778474D01*
X127318089Y-103589464D01*
X127003777Y-103459271D01*
X126670105Y-103392900D01*
X126329895Y-103392900D01*
X125996223Y-103459271D01*
X125686236Y-103587673D01*
X123808100Y-101709538D01*
X123808100Y-98134388D01*
X123841526Y-98100962D01*
X124030536Y-97818089D01*
X124160729Y-97503777D01*
X124227100Y-97170105D01*
X124227100Y-97077032D01*
X124768415Y-97618347D01*
X124768415Y-98300000D01*
X124786315Y-98481743D01*
X124839328Y-98656502D01*
X124925415Y-98817561D01*
X125041270Y-98958730D01*
X125182439Y-99074585D01*
X125343498Y-99160672D01*
X125518257Y-99213685D01*
X125700000Y-99231585D01*
X127300000Y-99231585D01*
X127481743Y-99213685D01*
X127656502Y-99160672D01*
X127817561Y-99074585D01*
X127958730Y-98958730D01*
X128074585Y-98817561D01*
X128160672Y-98656502D01*
X128213685Y-98481743D01*
X128231585Y-98300000D01*
X128231585Y-96700000D01*
X128213685Y-96518257D01*
X128160672Y-96343498D01*
X128074585Y-96182439D01*
X127958730Y-96041270D01*
X127817561Y-95925415D01*
X127656502Y-95839328D01*
X127481743Y-95786315D01*
X127300000Y-95768415D01*
X126618347Y-95768415D01*
X124227100Y-93377168D01*
X124227100Y-93329895D01*
X124160729Y-92996223D01*
X124030536Y-92681911D01*
X123841526Y-92399038D01*
X123600962Y-92158474D01*
X123318089Y-91969464D01*
X123069998Y-91866701D01*
X123628599Y-91308100D01*
X123865612Y-91308100D01*
X123899038Y-91341526D01*
X124181911Y-91530536D01*
X124496223Y-91660729D01*
X124829895Y-91727100D01*
X124877168Y-91727100D01*
X126061188Y-92911120D01*
X126102157Y-92961041D01*
X126301341Y-93124507D01*
X126528589Y-93245973D01*
X126775167Y-93320772D01*
X126967339Y-93339699D01*
X126967340Y-93339699D01*
X127031598Y-93346028D01*
X127095856Y-93339699D01*
X130289767Y-93339699D01*
X131072900Y-94122832D01*
X131072900Y-94170105D01*
X131139271Y-94503777D01*
X131269464Y-94818089D01*
X131458474Y-95100962D01*
X131691901Y-95334389D01*
X131691901Y-96315730D01*
X131685571Y-96380000D01*
X131710827Y-96636432D01*
X131773246Y-96842197D01*
X131785627Y-96883010D01*
X131907093Y-97110258D01*
X132070559Y-97309442D01*
X132120475Y-97350407D01*
X132392900Y-97622832D01*
X132392900Y-97670105D01*
X132459271Y-98003777D01*
X132589464Y-98318089D01*
X132778474Y-98600962D01*
X132947512Y-98770000D01*
X132778474Y-98939038D01*
X132589464Y-99221911D01*
X132459271Y-99536223D01*
X132392900Y-99869895D01*
X132392900Y-100210105D01*
X132459271Y-100543777D01*
X132589464Y-100858089D01*
X132778474Y-101140962D01*
X132947512Y-101310000D01*
X132778474Y-101479038D01*
X132589464Y-101761911D01*
X132459271Y-102076223D01*
X132392900Y-102409895D01*
X132392900Y-102750105D01*
X132459271Y-103083777D01*
X132589464Y-103398089D01*
X132778474Y-103680962D01*
X133019038Y-103921526D01*
X133301911Y-104110536D01*
X133616223Y-104240729D01*
X133949895Y-104307100D01*
X134290105Y-104307100D01*
X134348219Y-104295541D01*
X134540000Y-104314429D01*
X134796432Y-104289173D01*
X135043010Y-104214374D01*
X135270258Y-104092907D01*
X135469441Y-103929441D01*
X135632907Y-103730258D01*
X135754374Y-103503010D01*
X135777098Y-103428100D01*
X136028605Y-103428100D01*
X136181911Y-103530536D01*
X136496223Y-103660729D01*
X136739109Y-103709042D01*
X137877994Y-104847927D01*
X137918959Y-104897843D01*
X138118143Y-105061309D01*
X138227945Y-105119999D01*
X138345390Y-105182775D01*
X138591968Y-105257574D01*
X138848401Y-105282830D01*
X138912661Y-105276501D01*
X141380573Y-105276501D01*
X141444833Y-105282830D01*
X141509093Y-105276501D01*
X141701265Y-105257574D01*
X141947843Y-105182775D01*
X142175091Y-105061309D01*
X142374275Y-104897843D01*
X142415244Y-104847922D01*
X143347928Y-103915239D01*
X143397843Y-103874275D01*
X143561309Y-103675091D01*
X143673207Y-103465744D01*
X143682775Y-103447844D01*
X143757574Y-103201266D01*
X143782830Y-102944833D01*
X143776501Y-102880573D01*
X143776501Y-101716479D01*
X143829895Y-101727100D01*
X143877167Y-101727100D01*
X144569593Y-102419526D01*
X144610558Y-102469442D01*
X144809742Y-102632908D01*
X145036990Y-102754374D01*
X145152676Y-102789467D01*
X145283567Y-102829173D01*
X145350784Y-102835793D01*
X145489439Y-102949585D01*
X145650498Y-103035672D01*
X145825257Y-103088685D01*
X146007000Y-103106585D01*
X149563000Y-103106585D01*
X149744743Y-103088685D01*
X149919502Y-103035672D01*
X150080561Y-102949585D01*
X150221730Y-102833730D01*
X150337585Y-102692561D01*
X150423672Y-102531502D01*
X150476685Y-102356743D01*
X150494585Y-102175000D01*
X150494585Y-100905000D01*
X150476685Y-100723257D01*
X150423672Y-100548498D01*
X150337585Y-100387439D01*
X150241205Y-100270000D01*
X150337585Y-100152561D01*
X150423672Y-99991502D01*
X150476685Y-99816743D01*
X150494585Y-99635000D01*
X150494585Y-98365000D01*
X150476685Y-98183257D01*
X150423672Y-98008498D01*
X150337585Y-97847439D01*
X150241205Y-97730000D01*
X150337585Y-97612561D01*
X150423672Y-97451502D01*
X150476685Y-97276743D01*
X150494585Y-97095000D01*
X150494585Y-95825000D01*
X150476685Y-95643257D01*
X150423672Y-95468498D01*
X150337585Y-95307439D01*
X150221730Y-95166270D01*
X150080561Y-95050415D01*
X149919502Y-94964328D01*
X149744743Y-94911315D01*
X149563000Y-94893415D01*
X146007000Y-94893415D01*
X145825257Y-94911315D01*
X145650498Y-94964328D01*
X145489439Y-95050415D01*
X145365780Y-95151900D01*
X145104257Y-95151900D01*
X145039999Y-95145571D01*
X144975741Y-95151900D01*
X144975740Y-95151900D01*
X144783568Y-95170827D01*
X144536990Y-95245626D01*
X144309742Y-95367092D01*
X144110558Y-95530558D01*
X144069589Y-95580479D01*
X143877168Y-95772900D01*
X143829895Y-95772900D01*
X143496223Y-95839271D01*
X143181911Y-95969464D01*
X142899038Y-96158474D01*
X142871644Y-96185868D01*
X142868630Y-96185571D01*
X142612197Y-96210827D01*
X142365619Y-96285626D01*
X142189058Y-96380000D01*
X142138372Y-96407092D01*
X141939188Y-96570558D01*
X141898225Y-96620472D01*
X139620479Y-98898219D01*
X139570558Y-98939188D01*
X139407092Y-99138373D01*
X139285626Y-99365621D01*
X139249123Y-99485956D01*
X138915244Y-99152078D01*
X138874275Y-99102157D01*
X138675091Y-98938691D01*
X138447843Y-98817225D01*
X138201265Y-98742426D01*
X138009093Y-98723499D01*
X137944833Y-98717170D01*
X137880573Y-98723499D01*
X135338989Y-98723499D01*
X135461526Y-98600962D01*
X135650536Y-98318089D01*
X135780729Y-98003777D01*
X135847100Y-97670105D01*
X135847100Y-97622832D01*
X137410687Y-96059246D01*
X137503777Y-96040729D01*
X137818089Y-95910536D01*
X138100962Y-95721526D01*
X138134388Y-95688100D01*
X139365612Y-95688100D01*
X139399038Y-95721526D01*
X139681911Y-95910536D01*
X139996223Y-96040729D01*
X140329895Y-96107100D01*
X140670105Y-96107100D01*
X141003777Y-96040729D01*
X141318089Y-95910536D01*
X141600962Y-95721526D01*
X141841526Y-95480962D01*
X142030536Y-95198089D01*
X142160729Y-94883777D01*
X142227100Y-94550105D01*
X142227100Y-94209895D01*
X142160729Y-93876223D01*
X142030536Y-93561911D01*
X141841526Y-93279038D01*
X141600962Y-93038474D01*
X141318089Y-92849464D01*
X141003777Y-92719271D01*
X140670105Y-92652900D01*
X140329895Y-92652900D01*
X139996223Y-92719271D01*
X139681911Y-92849464D01*
X139399038Y-93038474D01*
X139365612Y-93071900D01*
X138134388Y-93071900D01*
X138100962Y-93038474D01*
X137818089Y-92849464D01*
X137503777Y-92719271D01*
X137170105Y-92652900D01*
X136829895Y-92652900D01*
X136496223Y-92719271D01*
X136181911Y-92849464D01*
X135899038Y-93038474D01*
X135658474Y-93279038D01*
X135469464Y-93561911D01*
X135339271Y-93876223D01*
X135272900Y-94209895D01*
X135272900Y-94497167D01*
X134308100Y-95461968D01*
X134308100Y-94851667D01*
X134330536Y-94818089D01*
X134460729Y-94503777D01*
X134527100Y-94170105D01*
X134527100Y-93829895D01*
X134460729Y-93496223D01*
X134330536Y-93181911D01*
X134141526Y-92899038D01*
X133900962Y-92658474D01*
X133618089Y-92469464D01*
X133303777Y-92339271D01*
X132970105Y-92272900D01*
X132922832Y-92272900D01*
X131802010Y-91152078D01*
X131761041Y-91102157D01*
X131561857Y-90938691D01*
X131334609Y-90817225D01*
X131088031Y-90742426D01*
X130831599Y-90717170D01*
X130767339Y-90723499D01*
X127573431Y-90723499D01*
X126727100Y-89877168D01*
X126727100Y-89829895D01*
X126660729Y-89496223D01*
X126530536Y-89181911D01*
X126341526Y-88899038D01*
X126100962Y-88658474D01*
X125818089Y-88469464D01*
X125503777Y-88339271D01*
X125170105Y-88272900D01*
X125122832Y-88272900D01*
X124988100Y-88138168D01*
X124988100Y-87634388D01*
X125021526Y-87600962D01*
X125210536Y-87318089D01*
X125340729Y-87003777D01*
X125407100Y-86670105D01*
X125407100Y-86329895D01*
X125340729Y-85996223D01*
X125210536Y-85681911D01*
X125021526Y-85399038D01*
X124852488Y-85230000D01*
X125021526Y-85060962D01*
X125210536Y-84778089D01*
X125340729Y-84463777D01*
X125407100Y-84130105D01*
X125407100Y-83789895D01*
X125340729Y-83456223D01*
X125210536Y-83141911D01*
X125021526Y-82859038D01*
X124852488Y-82690000D01*
X125021526Y-82520962D01*
X125197879Y-82257031D01*
X128017170Y-82257031D01*
X128023500Y-82321301D01*
X128023499Y-86029338D01*
X128017170Y-86093599D01*
X128039307Y-86318361D01*
X128042426Y-86350030D01*
X128117225Y-86596608D01*
X128238691Y-86823856D01*
X128402157Y-87023041D01*
X128452078Y-87064010D01*
X128767589Y-87379521D01*
X128808558Y-87429442D01*
X129007742Y-87592908D01*
X129126719Y-87656502D01*
X129234990Y-87714374D01*
X129481567Y-87789173D01*
X129722949Y-87812947D01*
X129725415Y-87817561D01*
X129841270Y-87958730D01*
X129982439Y-88074585D01*
X130143498Y-88160672D01*
X130318257Y-88213685D01*
X130500000Y-88231585D01*
X132100000Y-88231585D01*
X132281743Y-88213685D01*
X132456502Y-88160672D01*
X132617561Y-88074585D01*
X132758730Y-87958730D01*
X132874585Y-87817561D01*
X132879642Y-87808100D01*
X134245612Y-87808100D01*
X134279038Y-87841526D01*
X134561911Y-88030536D01*
X134876223Y-88160729D01*
X135209895Y-88227100D01*
X135550105Y-88227100D01*
X135883777Y-88160729D01*
X136198089Y-88030536D01*
X136480962Y-87841526D01*
X136721526Y-87600962D01*
X136910536Y-87318089D01*
X137040729Y-87003777D01*
X137107100Y-86670105D01*
X137107100Y-86329895D01*
X137040729Y-85996223D01*
X136910536Y-85681911D01*
X136721526Y-85399038D01*
X136480962Y-85158474D01*
X136198089Y-84969464D01*
X135883777Y-84839271D01*
X135550105Y-84772900D01*
X135209895Y-84772900D01*
X134876223Y-84839271D01*
X134561911Y-84969464D01*
X134279038Y-85158474D01*
X134245612Y-85191900D01*
X132879642Y-85191900D01*
X132879218Y-85191107D01*
X132934380Y-85174374D01*
X133161628Y-85052908D01*
X133360812Y-84889442D01*
X133401781Y-84839521D01*
X136259526Y-81981777D01*
X136309442Y-81940812D01*
X136472908Y-81741628D01*
X136594374Y-81514380D01*
X136669173Y-81267802D01*
X136688100Y-81075630D01*
X136694429Y-81011370D01*
X136688100Y-80947110D01*
X136688100Y-79634388D01*
X136721526Y-79600962D01*
X136910536Y-79318089D01*
X137040729Y-79003777D01*
X137107100Y-78670105D01*
X137107100Y-78329895D01*
X141272900Y-78329895D01*
X141272900Y-78670105D01*
X141339271Y-79003777D01*
X141469464Y-79318089D01*
X141658474Y-79600962D01*
X141691900Y-79634388D01*
X141691900Y-80650740D01*
X141685571Y-80715000D01*
X141708771Y-80950559D01*
X141710827Y-80971431D01*
X141785626Y-81218009D01*
X141907092Y-81445257D01*
X142070558Y-81644442D01*
X142120479Y-81685411D01*
X144274593Y-83839526D01*
X144315558Y-83889442D01*
X144514742Y-84052908D01*
X144741990Y-84174374D01*
X144988568Y-84249173D01*
X145180740Y-84268100D01*
X145180741Y-84268100D01*
X145244999Y-84274429D01*
X145296496Y-84269357D01*
X145232415Y-84347439D01*
X145146328Y-84508498D01*
X145093315Y-84683257D01*
X145075415Y-84865000D01*
X145075415Y-86135000D01*
X145093315Y-86316743D01*
X145146328Y-86491502D01*
X145232415Y-86652561D01*
X145297527Y-86731900D01*
X145081833Y-86731900D01*
X144727100Y-86377167D01*
X144727100Y-86329895D01*
X144660729Y-85996223D01*
X144530536Y-85681911D01*
X144341526Y-85399038D01*
X144100962Y-85158474D01*
X143818089Y-84969464D01*
X143503777Y-84839271D01*
X143170105Y-84772900D01*
X142829895Y-84772900D01*
X142496223Y-84839271D01*
X142181911Y-84969464D01*
X141899038Y-85158474D01*
X141658474Y-85399038D01*
X141469464Y-85681911D01*
X141339271Y-85996223D01*
X141272900Y-86329895D01*
X141272900Y-86670105D01*
X141339271Y-87003777D01*
X141469464Y-87318089D01*
X141658474Y-87600962D01*
X141899038Y-87841526D01*
X142181911Y-88030536D01*
X142496223Y-88160729D01*
X142829895Y-88227100D01*
X142877167Y-88227100D01*
X143569593Y-88919526D01*
X143610558Y-88969442D01*
X143809742Y-89132908D01*
X144036990Y-89254374D01*
X144204388Y-89305154D01*
X144283567Y-89329173D01*
X144540000Y-89354429D01*
X144604260Y-89348100D01*
X145365780Y-89348100D01*
X145489439Y-89449585D01*
X145650498Y-89535672D01*
X145825257Y-89588685D01*
X146007000Y-89606585D01*
X149563000Y-89606585D01*
X149744743Y-89588685D01*
X149919502Y-89535672D01*
X150080561Y-89449585D01*
X150221730Y-89333730D01*
X150337585Y-89192561D01*
X150423672Y-89031502D01*
X150476685Y-88856743D01*
X150494585Y-88675000D01*
X150494585Y-87405000D01*
X150476685Y-87223257D01*
X150423672Y-87048498D01*
X150337585Y-86887439D01*
X150241205Y-86770000D01*
X150337585Y-86652561D01*
X150423672Y-86491502D01*
X150476685Y-86316743D01*
X150494585Y-86135000D01*
X150494585Y-84865000D01*
X150476685Y-84683257D01*
X150423672Y-84508498D01*
X150337585Y-84347439D01*
X150241205Y-84230000D01*
X150337585Y-84112561D01*
X150423672Y-83951502D01*
X150476685Y-83776743D01*
X150494585Y-83595000D01*
X150494585Y-82325000D01*
X150476685Y-82143257D01*
X150423672Y-81968498D01*
X150337585Y-81807439D01*
X150221730Y-81666270D01*
X150080561Y-81550415D01*
X149919502Y-81464328D01*
X149744743Y-81411315D01*
X149563000Y-81393415D01*
X146007000Y-81393415D01*
X145825257Y-81411315D01*
X145650498Y-81464328D01*
X145617108Y-81482175D01*
X144308100Y-80173168D01*
X144308100Y-79634388D01*
X144341526Y-79600962D01*
X144530536Y-79318089D01*
X144660729Y-79003777D01*
X144727100Y-78670105D01*
X144727100Y-78329895D01*
X144660729Y-77996223D01*
X144530536Y-77681911D01*
X144341526Y-77399038D01*
X144100962Y-77158474D01*
X143818089Y-76969464D01*
X143503777Y-76839271D01*
X143170105Y-76772900D01*
X142829895Y-76772900D01*
X142496223Y-76839271D01*
X142181911Y-76969464D01*
X141899038Y-77158474D01*
X141658474Y-77399038D01*
X141469464Y-77681911D01*
X141339271Y-77996223D01*
X141272900Y-78329895D01*
X137107100Y-78329895D01*
X137040729Y-77996223D01*
X136910536Y-77681911D01*
X136721526Y-77399038D01*
X136480962Y-77158474D01*
X136198089Y-76969464D01*
X135883777Y-76839271D01*
X135550105Y-76772900D01*
X135209895Y-76772900D01*
X134876223Y-76839271D01*
X134561911Y-76969464D01*
X134279038Y-77158474D01*
X134038474Y-77399038D01*
X133922971Y-77571900D01*
X132434388Y-77571900D01*
X132400962Y-77538474D01*
X132118089Y-77349464D01*
X131803777Y-77219271D01*
X131470105Y-77152900D01*
X131129895Y-77152900D01*
X130796223Y-77219271D01*
X130481911Y-77349464D01*
X130199038Y-77538474D01*
X129958474Y-77779038D01*
X129769464Y-78061911D01*
X129639271Y-78376223D01*
X129572900Y-78709895D01*
X129572900Y-79050105D01*
X129639271Y-79383777D01*
X129769464Y-79698089D01*
X129958474Y-79980962D01*
X130090753Y-80113241D01*
X129912198Y-80130827D01*
X129665619Y-80205626D01*
X129473904Y-80308100D01*
X129438372Y-80327092D01*
X129239188Y-80490558D01*
X129198219Y-80540479D01*
X128452074Y-81286624D01*
X128402158Y-81327589D01*
X128305590Y-81445258D01*
X128238692Y-81526773D01*
X128117226Y-81754021D01*
X128042426Y-82000599D01*
X128017170Y-82257031D01*
X125197879Y-82257031D01*
X125210536Y-82238089D01*
X125340729Y-81923777D01*
X125407100Y-81590105D01*
X125407100Y-81249895D01*
X125340729Y-80916223D01*
X125210536Y-80601911D01*
X125021526Y-80319038D01*
X124780962Y-80078474D01*
X124498089Y-79889464D01*
X124183777Y-79759271D01*
X123850105Y-79692900D01*
X123509895Y-79692900D01*
X123176223Y-79759271D01*
X122861911Y-79889464D01*
X122579038Y-80078474D01*
X122545612Y-80111900D01*
X122375067Y-80111900D01*
X120383645Y-78120479D01*
X120342676Y-78070558D01*
X120143492Y-77907092D01*
X119916244Y-77785626D01*
X119669666Y-77710827D01*
X119477494Y-77691900D01*
X119413234Y-77685571D01*
X119348974Y-77691900D01*
X114634388Y-77691900D01*
X114600962Y-77658474D01*
X114318089Y-77469464D01*
X114003777Y-77339271D01*
X113670105Y-77272900D01*
X113329895Y-77272900D01*
X112996223Y-77339271D01*
X112681911Y-77469464D01*
X112399038Y-77658474D01*
X112158474Y-77899038D01*
X111969464Y-78181911D01*
X111839271Y-78496223D01*
X111772900Y-78829895D01*
X111772900Y-79170105D01*
X111839271Y-79503777D01*
X111969464Y-79818089D01*
X112158474Y-80100962D01*
X112191901Y-80134389D01*
X112191900Y-80865612D01*
X112158474Y-80899038D01*
X111969464Y-81181911D01*
X111839271Y-81496223D01*
X111810822Y-81639245D01*
X109427168Y-84022900D01*
X109324971Y-84022900D01*
X108981639Y-84091193D01*
X108658227Y-84225154D01*
X108367165Y-84419636D01*
X108230000Y-84556801D01*
X108092835Y-84419636D01*
X107801773Y-84225154D01*
X107478361Y-84091193D01*
X107135029Y-84022900D01*
X106784971Y-84022900D01*
X106441639Y-84091193D01*
X106118227Y-84225154D01*
X105827165Y-84419636D01*
X105579636Y-84667165D01*
X105385154Y-84958227D01*
X105251193Y-85281639D01*
X105182900Y-85624971D01*
X103977100Y-85624971D01*
X103977100Y-75977100D01*
X151873000Y-75977100D01*
X151873000Y-108522900D01*
G36*
X165908717Y-76050801D02*
G01*
X165539808Y-76203608D01*
X165207799Y-76425449D01*
X164925449Y-76707799D01*
X164703608Y-77039808D01*
X164550801Y-77408717D01*
X164472900Y-77800348D01*
X164472900Y-78199652D01*
X164550801Y-78591283D01*
X164703608Y-78960192D01*
X164925449Y-79292201D01*
X165207799Y-79574551D01*
X165539808Y-79796392D01*
X165908717Y-79949199D01*
X166300348Y-80027100D01*
X166699652Y-80027100D01*
X167091283Y-79949199D01*
X167460192Y-79796392D01*
X167792201Y-79574551D01*
X168074551Y-79292201D01*
X168296392Y-78960192D01*
X168449199Y-78591283D01*
X168527100Y-78199652D01*
X168527100Y-77800348D01*
X168449199Y-77408717D01*
X168296392Y-77039808D01*
X168074551Y-76707799D01*
X167792201Y-76425449D01*
X167460192Y-76203608D01*
X167091283Y-76050801D01*
X166720767Y-75977100D01*
X182022900Y-75977100D01*
X182022901Y-108522900D01*
X166720767Y-108522900D01*
X167091283Y-108449199D01*
X167460192Y-108296392D01*
X167792201Y-108074551D01*
X168074551Y-107792201D01*
X168296392Y-107460192D01*
X168449199Y-107091283D01*
X168527100Y-106699652D01*
X168527100Y-106300348D01*
X168449199Y-105908717D01*
X168296392Y-105539808D01*
X168074551Y-105207799D01*
X167792201Y-104925449D01*
X167460192Y-104703608D01*
X167091283Y-104550801D01*
X166699652Y-104472900D01*
X166300348Y-104472900D01*
X165908717Y-104550801D01*
X165539808Y-104703608D01*
X165207799Y-104925449D01*
X164925449Y-105207799D01*
X164703608Y-105539808D01*
X164550801Y-105908717D01*
X164472900Y-106300348D01*
X164472900Y-106699652D01*
X164550801Y-107091283D01*
X164703608Y-107460192D01*
X164925449Y-107792201D01*
X165207799Y-108074551D01*
X165539808Y-108296392D01*
X165908717Y-108449199D01*
X166279233Y-108522900D01*
X154127000Y-108522900D01*
X154127000Y-95825000D01*
X155870415Y-95825000D01*
X155870415Y-97095000D01*
X155888315Y-97276743D01*
X155941328Y-97451502D01*
X156027415Y-97612561D01*
X156123795Y-97730000D01*
X156027415Y-97847439D01*
X155941328Y-98008498D01*
X155888315Y-98183257D01*
X155870415Y-98365000D01*
X155870415Y-99635000D01*
X155888315Y-99816743D01*
X155941328Y-99991502D01*
X156027415Y-100152561D01*
X156123795Y-100270000D01*
X156027415Y-100387439D01*
X155941328Y-100548498D01*
X155888315Y-100723257D01*
X155870415Y-100905000D01*
X155870415Y-102175000D01*
X155888315Y-102356743D01*
X155941328Y-102531502D01*
X156027415Y-102692561D01*
X156143270Y-102833730D01*
X156284439Y-102949585D01*
X156445498Y-103035672D01*
X156620257Y-103088685D01*
X156802000Y-103106585D01*
X160358000Y-103106585D01*
X160539743Y-103088685D01*
X160714502Y-103035672D01*
X160875561Y-102949585D01*
X160999220Y-102848100D01*
X161408877Y-102848100D01*
X161681911Y-103030536D01*
X161996223Y-103160729D01*
X162329895Y-103227100D01*
X162670105Y-103227100D01*
X163003777Y-103160729D01*
X163318089Y-103030536D01*
X163600962Y-102841526D01*
X163841526Y-102600962D01*
X164030536Y-102318089D01*
X164160729Y-102003777D01*
X164227100Y-101670105D01*
X164227100Y-101329895D01*
X168392900Y-101329895D01*
X168392900Y-101670105D01*
X168459271Y-102003777D01*
X168589464Y-102318089D01*
X168778474Y-102600962D01*
X169019038Y-102841526D01*
X169301911Y-103030536D01*
X169616223Y-103160729D01*
X169949895Y-103227100D01*
X170290105Y-103227100D01*
X170623777Y-103160729D01*
X170938089Y-103030536D01*
X171220962Y-102841526D01*
X171254388Y-102808100D01*
X176118125Y-102808100D01*
X176287482Y-102977457D01*
X176599018Y-103185619D01*
X176945178Y-103329003D01*
X177312660Y-103402100D01*
X177687340Y-103402100D01*
X178054822Y-103329003D01*
X178400982Y-103185619D01*
X178712518Y-102977457D01*
X178977457Y-102712518D01*
X179185619Y-102400982D01*
X179329003Y-102054822D01*
X179402100Y-101687340D01*
X179402100Y-101312660D01*
X179329003Y-100945178D01*
X179185619Y-100599018D01*
X178977457Y-100287482D01*
X178712518Y-100022543D01*
X178400982Y-99814381D01*
X178054822Y-99670997D01*
X177687340Y-99597900D01*
X177312660Y-99597900D01*
X176945178Y-99670997D01*
X176599018Y-99814381D01*
X176287482Y-100022543D01*
X176118125Y-100191900D01*
X171254388Y-100191900D01*
X171220962Y-100158474D01*
X170938089Y-99969464D01*
X170623777Y-99839271D01*
X170290105Y-99772900D01*
X169949895Y-99772900D01*
X169616223Y-99839271D01*
X169301911Y-99969464D01*
X169019038Y-100158474D01*
X168778474Y-100399038D01*
X168589464Y-100681911D01*
X168459271Y-100996223D01*
X168392900Y-101329895D01*
X164227100Y-101329895D01*
X164160729Y-100996223D01*
X164030536Y-100681911D01*
X163841526Y-100399038D01*
X163600962Y-100158474D01*
X163318089Y-99969464D01*
X163003777Y-99839271D01*
X162670105Y-99772900D01*
X162329895Y-99772900D01*
X161996223Y-99839271D01*
X161681911Y-99969464D01*
X161399038Y-100158474D01*
X161325612Y-100231900D01*
X161067473Y-100231900D01*
X161132585Y-100152561D01*
X161218672Y-99991502D01*
X161271685Y-99816743D01*
X161289585Y-99635000D01*
X161289585Y-98365000D01*
X161283981Y-98308100D01*
X161365612Y-98308100D01*
X161399038Y-98341526D01*
X161681911Y-98530536D01*
X161996223Y-98660729D01*
X162329895Y-98727100D01*
X162670105Y-98727100D01*
X163003777Y-98660729D01*
X163318089Y-98530536D01*
X163600962Y-98341526D01*
X163841526Y-98100962D01*
X164030536Y-97818089D01*
X164160729Y-97503777D01*
X164227100Y-97170105D01*
X164227100Y-96829895D01*
X168392900Y-96829895D01*
X168392900Y-97170105D01*
X168459271Y-97503777D01*
X168589464Y-97818089D01*
X168778474Y-98100962D01*
X169019038Y-98341526D01*
X169301911Y-98530536D01*
X169616223Y-98660729D01*
X169949895Y-98727100D01*
X170290105Y-98727100D01*
X170623777Y-98660729D01*
X170938089Y-98530536D01*
X171220962Y-98341526D01*
X171461526Y-98100962D01*
X171650536Y-97818089D01*
X171654674Y-97808100D01*
X176118125Y-97808100D01*
X176287482Y-97977457D01*
X176599018Y-98185619D01*
X176945178Y-98329003D01*
X177312660Y-98402100D01*
X177687340Y-98402100D01*
X178054822Y-98329003D01*
X178400982Y-98185619D01*
X178712518Y-97977457D01*
X178977457Y-97712518D01*
X179185619Y-97400982D01*
X179329003Y-97054822D01*
X179402100Y-96687340D01*
X179402100Y-96312660D01*
X179329003Y-95945178D01*
X179185619Y-95599018D01*
X178977457Y-95287482D01*
X178712518Y-95022543D01*
X178400982Y-94814381D01*
X178054822Y-94670997D01*
X177687340Y-94597900D01*
X177312660Y-94597900D01*
X176945178Y-94670997D01*
X176599018Y-94814381D01*
X176287482Y-95022543D01*
X176118125Y-95191900D01*
X170684260Y-95191900D01*
X170620000Y-95185571D01*
X170363567Y-95210827D01*
X170248848Y-95245627D01*
X170158942Y-95272900D01*
X169949895Y-95272900D01*
X169616223Y-95339271D01*
X169301911Y-95469464D01*
X169019038Y-95658474D01*
X168778474Y-95899038D01*
X168589464Y-96181911D01*
X168459271Y-96496223D01*
X168392900Y-96829895D01*
X164227100Y-96829895D01*
X164160729Y-96496223D01*
X164030536Y-96181911D01*
X163841526Y-95899038D01*
X163600962Y-95658474D01*
X163318089Y-95469464D01*
X163003777Y-95339271D01*
X162670105Y-95272900D01*
X162329895Y-95272900D01*
X161996223Y-95339271D01*
X161681911Y-95469464D01*
X161399038Y-95658474D01*
X161365612Y-95691900D01*
X161276476Y-95691900D01*
X161271685Y-95643257D01*
X161218672Y-95468498D01*
X161132585Y-95307439D01*
X161016730Y-95166270D01*
X160875561Y-95050415D01*
X160714502Y-94964328D01*
X160539743Y-94911315D01*
X160358000Y-94893415D01*
X156802000Y-94893415D01*
X156620257Y-94911315D01*
X156445498Y-94964328D01*
X156284439Y-95050415D01*
X156143270Y-95166270D01*
X156027415Y-95307439D01*
X155941328Y-95468498D01*
X155888315Y-95643257D01*
X155870415Y-95825000D01*
X154127000Y-95825000D01*
X154127000Y-82325000D01*
X155870415Y-82325000D01*
X155870415Y-83595000D01*
X155888315Y-83776743D01*
X155941328Y-83951502D01*
X156027415Y-84112561D01*
X156123795Y-84230000D01*
X156027415Y-84347439D01*
X155941328Y-84508498D01*
X155888315Y-84683257D01*
X155870415Y-84865000D01*
X155870415Y-86135000D01*
X155888315Y-86316743D01*
X155941328Y-86491502D01*
X156027415Y-86652561D01*
X156123795Y-86770000D01*
X156027415Y-86887439D01*
X155941328Y-87048498D01*
X155888315Y-87223257D01*
X155870415Y-87405000D01*
X155870415Y-88675000D01*
X155888315Y-88856743D01*
X155941328Y-89031502D01*
X156027415Y-89192561D01*
X156143270Y-89333730D01*
X156284439Y-89449585D01*
X156445498Y-89535672D01*
X156620257Y-89588685D01*
X156802000Y-89606585D01*
X160358000Y-89606585D01*
X160539743Y-89588685D01*
X160714502Y-89535672D01*
X160875561Y-89449585D01*
X161016730Y-89333730D01*
X161132585Y-89192561D01*
X161218672Y-89031502D01*
X161271685Y-88856743D01*
X161276476Y-88808100D01*
X161365612Y-88808100D01*
X161399038Y-88841526D01*
X161681911Y-89030536D01*
X161996223Y-89160729D01*
X162329895Y-89227100D01*
X162670105Y-89227100D01*
X163003777Y-89160729D01*
X163318089Y-89030536D01*
X163600962Y-88841526D01*
X163841526Y-88600962D01*
X164030536Y-88318089D01*
X164160729Y-88003777D01*
X164227100Y-87670105D01*
X164227100Y-87329895D01*
X164160729Y-86996223D01*
X164030536Y-86681911D01*
X163841526Y-86399038D01*
X163600962Y-86158474D01*
X163318089Y-85969464D01*
X163003777Y-85839271D01*
X162670105Y-85772900D01*
X162329895Y-85772900D01*
X161996223Y-85839271D01*
X161681911Y-85969464D01*
X161399038Y-86158474D01*
X161365612Y-86191900D01*
X161283981Y-86191900D01*
X161289585Y-86135000D01*
X161289585Y-85000000D01*
X164685571Y-85000000D01*
X164691900Y-85064261D01*
X164691901Y-89395730D01*
X164685571Y-89460000D01*
X164710827Y-89716432D01*
X164767150Y-89902100D01*
X164785627Y-89963010D01*
X164907093Y-90190258D01*
X165070559Y-90389442D01*
X165120475Y-90430407D01*
X165722900Y-91032832D01*
X165722900Y-91135029D01*
X165791193Y-91478361D01*
X165925154Y-91801773D01*
X166030345Y-91959202D01*
X165991270Y-91991270D01*
X165875415Y-92132439D01*
X165789328Y-92293498D01*
X165736315Y-92468257D01*
X165718415Y-92650000D01*
X165718415Y-94350000D01*
X165736315Y-94531743D01*
X165789328Y-94706502D01*
X165875415Y-94867561D01*
X165991270Y-95008730D01*
X166132439Y-95124585D01*
X166293498Y-95210672D01*
X166468257Y-95263685D01*
X166650000Y-95281585D01*
X168350000Y-95281585D01*
X168531743Y-95263685D01*
X168706502Y-95210672D01*
X168867561Y-95124585D01*
X169008730Y-95008730D01*
X169124585Y-94867561D01*
X169156367Y-94808100D01*
X170435740Y-94808100D01*
X170500000Y-94814429D01*
X170564260Y-94808100D01*
X170756432Y-94789173D01*
X171003010Y-94714374D01*
X171230258Y-94592908D01*
X171429442Y-94429442D01*
X171470411Y-94379521D01*
X173379521Y-92470411D01*
X173429442Y-92429442D01*
X173592908Y-92230258D01*
X173714374Y-92003010D01*
X173789173Y-91756432D01*
X173808100Y-91564260D01*
X173808100Y-91564259D01*
X173814429Y-91500001D01*
X173808100Y-91435743D01*
X173808100Y-89944257D01*
X173814429Y-89879999D01*
X173795284Y-89685619D01*
X173789173Y-89623568D01*
X173714374Y-89376990D01*
X173592908Y-89149742D01*
X173429442Y-88950558D01*
X173379522Y-88909590D01*
X173278032Y-88808100D01*
X175775908Y-88808100D01*
X175814381Y-88900982D01*
X176022543Y-89212518D01*
X176287482Y-89477457D01*
X176599018Y-89685619D01*
X176945178Y-89829003D01*
X177312660Y-89902100D01*
X177687340Y-89902100D01*
X178054822Y-89829003D01*
X178400982Y-89685619D01*
X178712518Y-89477457D01*
X178977457Y-89212518D01*
X179185619Y-88900982D01*
X179329003Y-88554822D01*
X179402100Y-88187340D01*
X179402100Y-87812660D01*
X179329003Y-87445178D01*
X179185619Y-87099018D01*
X178977457Y-86787482D01*
X178712518Y-86522543D01*
X178400982Y-86314381D01*
X178054822Y-86170997D01*
X177687340Y-86097900D01*
X177312660Y-86097900D01*
X176945178Y-86170997D01*
X176894714Y-86191900D01*
X171254388Y-86191900D01*
X171220962Y-86158474D01*
X170938089Y-85969464D01*
X170623777Y-85839271D01*
X170290105Y-85772900D01*
X169949895Y-85772900D01*
X169616223Y-85839271D01*
X169301911Y-85969464D01*
X169019038Y-86158474D01*
X168778474Y-86399038D01*
X168589464Y-86681911D01*
X168459271Y-86996223D01*
X168392900Y-87329895D01*
X168392900Y-87670105D01*
X168459271Y-88003777D01*
X168589464Y-88318089D01*
X168778474Y-88600962D01*
X169019038Y-88841526D01*
X169301911Y-89030536D01*
X169616223Y-89160729D01*
X169949895Y-89227100D01*
X169997168Y-89227100D01*
X171191900Y-90421832D01*
X171191900Y-90958168D01*
X169958168Y-92191900D01*
X169156367Y-92191900D01*
X169124585Y-92132439D01*
X169008730Y-91991270D01*
X168969655Y-91959202D01*
X169074846Y-91801773D01*
X169208807Y-91478361D01*
X169277100Y-91135029D01*
X169277100Y-90784971D01*
X169208807Y-90441639D01*
X169074846Y-90118227D01*
X168880364Y-89827165D01*
X168632835Y-89579636D01*
X168341773Y-89385154D01*
X168018361Y-89251193D01*
X167675029Y-89182900D01*
X167572832Y-89182900D01*
X167308100Y-88918168D01*
X167308100Y-85541832D01*
X168541832Y-84308100D01*
X168985612Y-84308100D01*
X169019038Y-84341526D01*
X169301911Y-84530536D01*
X169616223Y-84660729D01*
X169949895Y-84727100D01*
X170290105Y-84727100D01*
X170623777Y-84660729D01*
X170938089Y-84530536D01*
X171220962Y-84341526D01*
X171254388Y-84308100D01*
X176118125Y-84308100D01*
X176287482Y-84477457D01*
X176599018Y-84685619D01*
X176945178Y-84829003D01*
X177312660Y-84902100D01*
X177687340Y-84902100D01*
X178054822Y-84829003D01*
X178400982Y-84685619D01*
X178712518Y-84477457D01*
X178977457Y-84212518D01*
X179185619Y-83900982D01*
X179329003Y-83554822D01*
X179402100Y-83187340D01*
X179402100Y-82812660D01*
X179329003Y-82445178D01*
X179185619Y-82099018D01*
X178977457Y-81787482D01*
X178712518Y-81522543D01*
X178400982Y-81314381D01*
X178054822Y-81170997D01*
X177687340Y-81097900D01*
X177312660Y-81097900D01*
X176945178Y-81170997D01*
X176599018Y-81314381D01*
X176287482Y-81522543D01*
X176118125Y-81691900D01*
X171254388Y-81691900D01*
X171220962Y-81658474D01*
X170938089Y-81469464D01*
X170623777Y-81339271D01*
X170290105Y-81272900D01*
X169949895Y-81272900D01*
X169616223Y-81339271D01*
X169301911Y-81469464D01*
X169019038Y-81658474D01*
X168985612Y-81691900D01*
X168064257Y-81691900D01*
X167999999Y-81685571D01*
X167935741Y-81691900D01*
X167935740Y-81691900D01*
X167743568Y-81710827D01*
X167496990Y-81785626D01*
X167269742Y-81907092D01*
X167070558Y-82070558D01*
X167029589Y-82120479D01*
X165120479Y-84029589D01*
X165070558Y-84070558D01*
X164907092Y-84269743D01*
X164785626Y-84496991D01*
X164735956Y-84660729D01*
X164710827Y-84743568D01*
X164685571Y-85000000D01*
X161289585Y-85000000D01*
X161289585Y-84865000D01*
X161271685Y-84683257D01*
X161218672Y-84508498D01*
X161132585Y-84347439D01*
X161067473Y-84268100D01*
X161325612Y-84268100D01*
X161399038Y-84341526D01*
X161681911Y-84530536D01*
X161996223Y-84660729D01*
X162329895Y-84727100D01*
X162670105Y-84727100D01*
X163003777Y-84660729D01*
X163318089Y-84530536D01*
X163600962Y-84341526D01*
X163841526Y-84100962D01*
X164030536Y-83818089D01*
X164160729Y-83503777D01*
X164227100Y-83170105D01*
X164227100Y-82829895D01*
X164160729Y-82496223D01*
X164030536Y-82181911D01*
X163841526Y-81899038D01*
X163600962Y-81658474D01*
X163318089Y-81469464D01*
X163003777Y-81339271D01*
X162670105Y-81272900D01*
X162329895Y-81272900D01*
X161996223Y-81339271D01*
X161681911Y-81469464D01*
X161408877Y-81651900D01*
X160999220Y-81651900D01*
X160875561Y-81550415D01*
X160714502Y-81464328D01*
X160539743Y-81411315D01*
X160358000Y-81393415D01*
X156802000Y-81393415D01*
X156620257Y-81411315D01*
X156445498Y-81464328D01*
X156284439Y-81550415D01*
X156143270Y-81666270D01*
X156027415Y-81807439D01*
X155941328Y-81968498D01*
X155888315Y-82143257D01*
X155870415Y-82325000D01*
X154127000Y-82325000D01*
X154127000Y-75977100D01*
X166279233Y-75977100D01*
X165908717Y-76050801D01*
G37*
X165908717Y-76050801D02*
X165539808Y-76203608D01*
X165207799Y-76425449D01*
X164925449Y-76707799D01*
X164703608Y-77039808D01*
X164550801Y-77408717D01*
X164472900Y-77800348D01*
X164472900Y-78199652D01*
X164550801Y-78591283D01*
X164703608Y-78960192D01*
X164925449Y-79292201D01*
X165207799Y-79574551D01*
X165539808Y-79796392D01*
X165908717Y-79949199D01*
X166300348Y-80027100D01*
X166699652Y-80027100D01*
X167091283Y-79949199D01*
X167460192Y-79796392D01*
X167792201Y-79574551D01*
X168074551Y-79292201D01*
X168296392Y-78960192D01*
X168449199Y-78591283D01*
X168527100Y-78199652D01*
X168527100Y-77800348D01*
X168449199Y-77408717D01*
X168296392Y-77039808D01*
X168074551Y-76707799D01*
X167792201Y-76425449D01*
X167460192Y-76203608D01*
X167091283Y-76050801D01*
X166720767Y-75977100D01*
X182022900Y-75977100D01*
X182022901Y-108522900D01*
X166720767Y-108522900D01*
X167091283Y-108449199D01*
X167460192Y-108296392D01*
X167792201Y-108074551D01*
X168074551Y-107792201D01*
X168296392Y-107460192D01*
X168449199Y-107091283D01*
X168527100Y-106699652D01*
X168527100Y-106300348D01*
X168449199Y-105908717D01*
X168296392Y-105539808D01*
X168074551Y-105207799D01*
X167792201Y-104925449D01*
X167460192Y-104703608D01*
X167091283Y-104550801D01*
X166699652Y-104472900D01*
X166300348Y-104472900D01*
X165908717Y-104550801D01*
X165539808Y-104703608D01*
X165207799Y-104925449D01*
X164925449Y-105207799D01*
X164703608Y-105539808D01*
X164550801Y-105908717D01*
X164472900Y-106300348D01*
X164472900Y-106699652D01*
X164550801Y-107091283D01*
X164703608Y-107460192D01*
X164925449Y-107792201D01*
X165207799Y-108074551D01*
X165539808Y-108296392D01*
X165908717Y-108449199D01*
X166279233Y-108522900D01*
X154127000Y-108522900D01*
X154127000Y-95825000D01*
X155870415Y-95825000D01*
X155870415Y-97095000D01*
X155888315Y-97276743D01*
X155941328Y-97451502D01*
X156027415Y-97612561D01*
X156123795Y-97730000D01*
X156027415Y-97847439D01*
X155941328Y-98008498D01*
X155888315Y-98183257D01*
X155870415Y-98365000D01*
X155870415Y-99635000D01*
X155888315Y-99816743D01*
X155941328Y-99991502D01*
X156027415Y-100152561D01*
X156123795Y-100270000D01*
X156027415Y-100387439D01*
X155941328Y-100548498D01*
X155888315Y-100723257D01*
X155870415Y-100905000D01*
X155870415Y-102175000D01*
X155888315Y-102356743D01*
X155941328Y-102531502D01*
X156027415Y-102692561D01*
X156143270Y-102833730D01*
X156284439Y-102949585D01*
X156445498Y-103035672D01*
X156620257Y-103088685D01*
X156802000Y-103106585D01*
X160358000Y-103106585D01*
X160539743Y-103088685D01*
X160714502Y-103035672D01*
X160875561Y-102949585D01*
X160999220Y-102848100D01*
X161408877Y-102848100D01*
X161681911Y-103030536D01*
X161996223Y-103160729D01*
X162329895Y-103227100D01*
X162670105Y-103227100D01*
X163003777Y-103160729D01*
X163318089Y-103030536D01*
X163600962Y-102841526D01*
X163841526Y-102600962D01*
X164030536Y-102318089D01*
X164160729Y-102003777D01*
X164227100Y-101670105D01*
X164227100Y-101329895D01*
X168392900Y-101329895D01*
X168392900Y-101670105D01*
X168459271Y-102003777D01*
X168589464Y-102318089D01*
X168778474Y-102600962D01*
X169019038Y-102841526D01*
X169301911Y-103030536D01*
X169616223Y-103160729D01*
X169949895Y-103227100D01*
X170290105Y-103227100D01*
X170623777Y-103160729D01*
X170938089Y-103030536D01*
X171220962Y-102841526D01*
X171254388Y-102808100D01*
X176118125Y-102808100D01*
X176287482Y-102977457D01*
X176599018Y-103185619D01*
X176945178Y-103329003D01*
X177312660Y-103402100D01*
X177687340Y-103402100D01*
X178054822Y-103329003D01*
X178400982Y-103185619D01*
X178712518Y-102977457D01*
X178977457Y-102712518D01*
X179185619Y-102400982D01*
X179329003Y-102054822D01*
X179402100Y-101687340D01*
X179402100Y-101312660D01*
X179329003Y-100945178D01*
X179185619Y-100599018D01*
X178977457Y-100287482D01*
X178712518Y-100022543D01*
X178400982Y-99814381D01*
X178054822Y-99670997D01*
X177687340Y-99597900D01*
X177312660Y-99597900D01*
X176945178Y-99670997D01*
X176599018Y-99814381D01*
X176287482Y-100022543D01*
X176118125Y-100191900D01*
X171254388Y-100191900D01*
X171220962Y-100158474D01*
X170938089Y-99969464D01*
X170623777Y-99839271D01*
X170290105Y-99772900D01*
X169949895Y-99772900D01*
X169616223Y-99839271D01*
X169301911Y-99969464D01*
X169019038Y-100158474D01*
X168778474Y-100399038D01*
X168589464Y-100681911D01*
X168459271Y-100996223D01*
X168392900Y-101329895D01*
X164227100Y-101329895D01*
X164160729Y-100996223D01*
X164030536Y-100681911D01*
X163841526Y-100399038D01*
X163600962Y-100158474D01*
X163318089Y-99969464D01*
X163003777Y-99839271D01*
X162670105Y-99772900D01*
X162329895Y-99772900D01*
X161996223Y-99839271D01*
X161681911Y-99969464D01*
X161399038Y-100158474D01*
X161325612Y-100231900D01*
X161067473Y-100231900D01*
X161132585Y-100152561D01*
X161218672Y-99991502D01*
X161271685Y-99816743D01*
X161289585Y-99635000D01*
X161289585Y-98365000D01*
X161283981Y-98308100D01*
X161365612Y-98308100D01*
X161399038Y-98341526D01*
X161681911Y-98530536D01*
X161996223Y-98660729D01*
X162329895Y-98727100D01*
X162670105Y-98727100D01*
X163003777Y-98660729D01*
X163318089Y-98530536D01*
X163600962Y-98341526D01*
X163841526Y-98100962D01*
X164030536Y-97818089D01*
X164160729Y-97503777D01*
X164227100Y-97170105D01*
X164227100Y-96829895D01*
X168392900Y-96829895D01*
X168392900Y-97170105D01*
X168459271Y-97503777D01*
X168589464Y-97818089D01*
X168778474Y-98100962D01*
X169019038Y-98341526D01*
X169301911Y-98530536D01*
X169616223Y-98660729D01*
X169949895Y-98727100D01*
X170290105Y-98727100D01*
X170623777Y-98660729D01*
X170938089Y-98530536D01*
X171220962Y-98341526D01*
X171461526Y-98100962D01*
X171650536Y-97818089D01*
X171654674Y-97808100D01*
X176118125Y-97808100D01*
X176287482Y-97977457D01*
X176599018Y-98185619D01*
X176945178Y-98329003D01*
X177312660Y-98402100D01*
X177687340Y-98402100D01*
X178054822Y-98329003D01*
X178400982Y-98185619D01*
X178712518Y-97977457D01*
X178977457Y-97712518D01*
X179185619Y-97400982D01*
X179329003Y-97054822D01*
X179402100Y-96687340D01*
X179402100Y-96312660D01*
X179329003Y-95945178D01*
X179185619Y-95599018D01*
X178977457Y-95287482D01*
X178712518Y-95022543D01*
X178400982Y-94814381D01*
X178054822Y-94670997D01*
X177687340Y-94597900D01*
X177312660Y-94597900D01*
X176945178Y-94670997D01*
X176599018Y-94814381D01*
X176287482Y-95022543D01*
X176118125Y-95191900D01*
X170684260Y-95191900D01*
X170620000Y-95185571D01*
X170363567Y-95210827D01*
X170248848Y-95245627D01*
X170158942Y-95272900D01*
X169949895Y-95272900D01*
X169616223Y-95339271D01*
X169301911Y-95469464D01*
X169019038Y-95658474D01*
X168778474Y-95899038D01*
X168589464Y-96181911D01*
X168459271Y-96496223D01*
X168392900Y-96829895D01*
X164227100Y-96829895D01*
X164160729Y-96496223D01*
X164030536Y-96181911D01*
X163841526Y-95899038D01*
X163600962Y-95658474D01*
X163318089Y-95469464D01*
X163003777Y-95339271D01*
X162670105Y-95272900D01*
X162329895Y-95272900D01*
X161996223Y-95339271D01*
X161681911Y-95469464D01*
X161399038Y-95658474D01*
X161365612Y-95691900D01*
X161276476Y-95691900D01*
X161271685Y-95643257D01*
X161218672Y-95468498D01*
X161132585Y-95307439D01*
X161016730Y-95166270D01*
X160875561Y-95050415D01*
X160714502Y-94964328D01*
X160539743Y-94911315D01*
X160358000Y-94893415D01*
X156802000Y-94893415D01*
X156620257Y-94911315D01*
X156445498Y-94964328D01*
X156284439Y-95050415D01*
X156143270Y-95166270D01*
X156027415Y-95307439D01*
X155941328Y-95468498D01*
X155888315Y-95643257D01*
X155870415Y-95825000D01*
X154127000Y-95825000D01*
X154127000Y-82325000D01*
X155870415Y-82325000D01*
X155870415Y-83595000D01*
X155888315Y-83776743D01*
X155941328Y-83951502D01*
X156027415Y-84112561D01*
X156123795Y-84230000D01*
X156027415Y-84347439D01*
X155941328Y-84508498D01*
X155888315Y-84683257D01*
X155870415Y-84865000D01*
X155870415Y-86135000D01*
X155888315Y-86316743D01*
X155941328Y-86491502D01*
X156027415Y-86652561D01*
X156123795Y-86770000D01*
X156027415Y-86887439D01*
X155941328Y-87048498D01*
X155888315Y-87223257D01*
X155870415Y-87405000D01*
X155870415Y-88675000D01*
X155888315Y-88856743D01*
X155941328Y-89031502D01*
X156027415Y-89192561D01*
X156143270Y-89333730D01*
X156284439Y-89449585D01*
X156445498Y-89535672D01*
X156620257Y-89588685D01*
X156802000Y-89606585D01*
X160358000Y-89606585D01*
X160539743Y-89588685D01*
X160714502Y-89535672D01*
X160875561Y-89449585D01*
X161016730Y-89333730D01*
X161132585Y-89192561D01*
X161218672Y-89031502D01*
X161271685Y-88856743D01*
X161276476Y-88808100D01*
X161365612Y-88808100D01*
X161399038Y-88841526D01*
X161681911Y-89030536D01*
X161996223Y-89160729D01*
X162329895Y-89227100D01*
X162670105Y-89227100D01*
X163003777Y-89160729D01*
X163318089Y-89030536D01*
X163600962Y-88841526D01*
X163841526Y-88600962D01*
X164030536Y-88318089D01*
X164160729Y-88003777D01*
X164227100Y-87670105D01*
X164227100Y-87329895D01*
X164160729Y-86996223D01*
X164030536Y-86681911D01*
X163841526Y-86399038D01*
X163600962Y-86158474D01*
X163318089Y-85969464D01*
X163003777Y-85839271D01*
X162670105Y-85772900D01*
X162329895Y-85772900D01*
X161996223Y-85839271D01*
X161681911Y-85969464D01*
X161399038Y-86158474D01*
X161365612Y-86191900D01*
X161283981Y-86191900D01*
X161289585Y-86135000D01*
X161289585Y-85000000D01*
X164685571Y-85000000D01*
X164691900Y-85064261D01*
X164691901Y-89395730D01*
X164685571Y-89460000D01*
X164710827Y-89716432D01*
X164767150Y-89902100D01*
X164785627Y-89963010D01*
X164907093Y-90190258D01*
X165070559Y-90389442D01*
X165120475Y-90430407D01*
X165722900Y-91032832D01*
X165722900Y-91135029D01*
X165791193Y-91478361D01*
X165925154Y-91801773D01*
X166030345Y-91959202D01*
X165991270Y-91991270D01*
X165875415Y-92132439D01*
X165789328Y-92293498D01*
X165736315Y-92468257D01*
X165718415Y-92650000D01*
X165718415Y-94350000D01*
X165736315Y-94531743D01*
X165789328Y-94706502D01*
X165875415Y-94867561D01*
X165991270Y-95008730D01*
X166132439Y-95124585D01*
X166293498Y-95210672D01*
X166468257Y-95263685D01*
X166650000Y-95281585D01*
X168350000Y-95281585D01*
X168531743Y-95263685D01*
X168706502Y-95210672D01*
X168867561Y-95124585D01*
X169008730Y-95008730D01*
X169124585Y-94867561D01*
X169156367Y-94808100D01*
X170435740Y-94808100D01*
X170500000Y-94814429D01*
X170564260Y-94808100D01*
X170756432Y-94789173D01*
X171003010Y-94714374D01*
X171230258Y-94592908D01*
X171429442Y-94429442D01*
X171470411Y-94379521D01*
X173379521Y-92470411D01*
X173429442Y-92429442D01*
X173592908Y-92230258D01*
X173714374Y-92003010D01*
X173789173Y-91756432D01*
X173808100Y-91564260D01*
X173808100Y-91564259D01*
X173814429Y-91500001D01*
X173808100Y-91435743D01*
X173808100Y-89944257D01*
X173814429Y-89879999D01*
X173795284Y-89685619D01*
X173789173Y-89623568D01*
X173714374Y-89376990D01*
X173592908Y-89149742D01*
X173429442Y-88950558D01*
X173379522Y-88909590D01*
X173278032Y-88808100D01*
X175775908Y-88808100D01*
X175814381Y-88900982D01*
X176022543Y-89212518D01*
X176287482Y-89477457D01*
X176599018Y-89685619D01*
X176945178Y-89829003D01*
X177312660Y-89902100D01*
X177687340Y-89902100D01*
X178054822Y-89829003D01*
X178400982Y-89685619D01*
X178712518Y-89477457D01*
X178977457Y-89212518D01*
X179185619Y-88900982D01*
X179329003Y-88554822D01*
X179402100Y-88187340D01*
X179402100Y-87812660D01*
X179329003Y-87445178D01*
X179185619Y-87099018D01*
X178977457Y-86787482D01*
X178712518Y-86522543D01*
X178400982Y-86314381D01*
X178054822Y-86170997D01*
X177687340Y-86097900D01*
X177312660Y-86097900D01*
X176945178Y-86170997D01*
X176894714Y-86191900D01*
X171254388Y-86191900D01*
X171220962Y-86158474D01*
X170938089Y-85969464D01*
X170623777Y-85839271D01*
X170290105Y-85772900D01*
X169949895Y-85772900D01*
X169616223Y-85839271D01*
X169301911Y-85969464D01*
X169019038Y-86158474D01*
X168778474Y-86399038D01*
X168589464Y-86681911D01*
X168459271Y-86996223D01*
X168392900Y-87329895D01*
X168392900Y-87670105D01*
X168459271Y-88003777D01*
X168589464Y-88318089D01*
X168778474Y-88600962D01*
X169019038Y-88841526D01*
X169301911Y-89030536D01*
X169616223Y-89160729D01*
X169949895Y-89227100D01*
X169997168Y-89227100D01*
X171191900Y-90421832D01*
X171191900Y-90958168D01*
X169958168Y-92191900D01*
X169156367Y-92191900D01*
X169124585Y-92132439D01*
X169008730Y-91991270D01*
X168969655Y-91959202D01*
X169074846Y-91801773D01*
X169208807Y-91478361D01*
X169277100Y-91135029D01*
X169277100Y-90784971D01*
X169208807Y-90441639D01*
X169074846Y-90118227D01*
X168880364Y-89827165D01*
X168632835Y-89579636D01*
X168341773Y-89385154D01*
X168018361Y-89251193D01*
X167675029Y-89182900D01*
X167572832Y-89182900D01*
X167308100Y-88918168D01*
X167308100Y-85541832D01*
X168541832Y-84308100D01*
X168985612Y-84308100D01*
X169019038Y-84341526D01*
X169301911Y-84530536D01*
X169616223Y-84660729D01*
X169949895Y-84727100D01*
X170290105Y-84727100D01*
X170623777Y-84660729D01*
X170938089Y-84530536D01*
X171220962Y-84341526D01*
X171254388Y-84308100D01*
X176118125Y-84308100D01*
X176287482Y-84477457D01*
X176599018Y-84685619D01*
X176945178Y-84829003D01*
X177312660Y-84902100D01*
X177687340Y-84902100D01*
X178054822Y-84829003D01*
X178400982Y-84685619D01*
X178712518Y-84477457D01*
X178977457Y-84212518D01*
X179185619Y-83900982D01*
X179329003Y-83554822D01*
X179402100Y-83187340D01*
X179402100Y-82812660D01*
X179329003Y-82445178D01*
X179185619Y-82099018D01*
X178977457Y-81787482D01*
X178712518Y-81522543D01*
X178400982Y-81314381D01*
X178054822Y-81170997D01*
X177687340Y-81097900D01*
X177312660Y-81097900D01*
X176945178Y-81170997D01*
X176599018Y-81314381D01*
X176287482Y-81522543D01*
X176118125Y-81691900D01*
X171254388Y-81691900D01*
X171220962Y-81658474D01*
X170938089Y-81469464D01*
X170623777Y-81339271D01*
X170290105Y-81272900D01*
X169949895Y-81272900D01*
X169616223Y-81339271D01*
X169301911Y-81469464D01*
X169019038Y-81658474D01*
X168985612Y-81691900D01*
X168064257Y-81691900D01*
X167999999Y-81685571D01*
X167935741Y-81691900D01*
X167935740Y-81691900D01*
X167743568Y-81710827D01*
X167496990Y-81785626D01*
X167269742Y-81907092D01*
X167070558Y-82070558D01*
X167029589Y-82120479D01*
X165120479Y-84029589D01*
X165070558Y-84070558D01*
X164907092Y-84269743D01*
X164785626Y-84496991D01*
X164735956Y-84660729D01*
X164710827Y-84743568D01*
X164685571Y-85000000D01*
X161289585Y-85000000D01*
X161289585Y-84865000D01*
X161271685Y-84683257D01*
X161218672Y-84508498D01*
X161132585Y-84347439D01*
X161067473Y-84268100D01*
X161325612Y-84268100D01*
X161399038Y-84341526D01*
X161681911Y-84530536D01*
X161996223Y-84660729D01*
X162329895Y-84727100D01*
X162670105Y-84727100D01*
X163003777Y-84660729D01*
X163318089Y-84530536D01*
X163600962Y-84341526D01*
X163841526Y-84100962D01*
X164030536Y-83818089D01*
X164160729Y-83503777D01*
X164227100Y-83170105D01*
X164227100Y-82829895D01*
X164160729Y-82496223D01*
X164030536Y-82181911D01*
X163841526Y-81899038D01*
X163600962Y-81658474D01*
X163318089Y-81469464D01*
X163003777Y-81339271D01*
X162670105Y-81272900D01*
X162329895Y-81272900D01*
X161996223Y-81339271D01*
X161681911Y-81469464D01*
X161408877Y-81651900D01*
X160999220Y-81651900D01*
X160875561Y-81550415D01*
X160714502Y-81464328D01*
X160539743Y-81411315D01*
X160358000Y-81393415D01*
X156802000Y-81393415D01*
X156620257Y-81411315D01*
X156445498Y-81464328D01*
X156284439Y-81550415D01*
X156143270Y-81666270D01*
X156027415Y-81807439D01*
X155941328Y-81968498D01*
X155888315Y-82143257D01*
X155870415Y-82325000D01*
X154127000Y-82325000D01*
X154127000Y-75977100D01*
X166279233Y-75977100D01*
X165908717Y-76050801D01*
M02*
