M48
; DRILL file {KiCad 5.1.5+dfsg1-2build2} date Fri 18 Jun 2021 08:03:53 AM EDT
; FORMAT={-:-/ absolute / metric / decimal}
; #@! TF.CreationDate,2021-06-18T08:03:53-04:00
; #@! TF.GenerationSoftware,Kicad,Pcbnew,5.1.5+dfsg1-2build2
FMAT,2
METRIC
T1C0.760
T2C0.800
T3C1.000
T4C1.100
T5C1.300
T6C2.200
%
G90
G05
T1
X114.5Y-105.0
X117.04Y-105.0
X119.58Y-105.0
X122.12Y-105.0
T2
X131.38Y-78.5
X139.0Y-78.5
X126.5Y-97.5
X126.5Y-100.04
X126.5Y-102.58
X126.5Y-105.12
X134.12Y-97.5
X134.12Y-100.04
X134.12Y-102.58
X134.12Y-105.12
X114.88Y-97.0
X122.5Y-97.0
X162.5Y-83.0
X170.12Y-83.0
X162.5Y-88.0
X170.12Y-88.0
X144.0Y-100.0
X144.0Y-105.0
X137.0Y-94.38
X137.0Y-102.0
X113.0Y-82.0
X113.0Y-89.62
X144.0Y-85.0
X144.0Y-90.0
X144.0Y-77.5
X144.0Y-82.5
X114.88Y-93.5
X122.5Y-93.5
X140.5Y-94.38
X140.5Y-102.0
X107.5Y-103.5
X107.5Y-106.0
X144.0Y-92.5
X144.0Y-97.5
X150.5Y-78.0
X155.5Y-78.0
X116.5Y-81.88
X116.5Y-89.5
X121.0Y-90.0
X126.0Y-90.0
X131.38Y-89.0
X139.0Y-89.0
X127.8Y-94.0
X132.8Y-94.0
X119.68Y-78.88
X119.68Y-81.42
X119.68Y-83.96
X119.68Y-86.5
X127.3Y-78.88
X127.3Y-81.42
X127.3Y-83.96
X127.3Y-86.5
X162.5Y-96.5
X170.12Y-96.5
X162.5Y-101.5
X170.12Y-101.5
T3
X166.5Y-92.0
X106.96Y-85.8
X106.96Y-88.34
X106.96Y-90.88
X106.96Y-93.42
X106.96Y-95.96
X106.96Y-98.5
X109.5Y-85.8
X109.5Y-88.34
X109.5Y-90.88
X109.5Y-93.42
X109.5Y-95.96
X109.5Y-98.5
T4
X130.11Y-82.0
X140.27Y-82.0
X130.11Y-85.5
X140.27Y-85.5
T5
X177.5Y-83.0
X177.5Y-88.0
X177.5Y-96.5
X177.5Y-101.5
T6
X166.5Y-78.0
X166.5Y-106.5
T0
M30
